SplineFontDB: 3.2
FontName: Inconsolata-SemiCondensed
FullName: Inconsolata Semi Condensed
FamilyName: Inconsolata Semi Condensed
Weight: Book
Copyright: Copyright 2006 The Inconsolata Project Authors (https://github.com/cyrealtype/Inconsolata)
Version: 3.000; ttfautohint (v1.8.3)
ItalicAngle: -9
UnderlinePosition: -297
UnderlineWidth: 102
Ascent: 1802
Descent: 246
InvalidEm: 0
sfntRevision: 0x00030000
LayerCount: 2
Layer: 0 1 "Back" 1
Layer: 1 1 "Fore" 0
XUID: [1021 771 -2115194757 16451]
StyleMap: 0x0040
FSType: 0
OS2Version: 4
OS2_WeightWidthSlopeOnly: 0
OS2_UseTypoMetrics: 1
CreationTime: 1576097233
ModificationTime: 1732402467
PfmFamily: 81
TTFWeight: 400
TTFWidth: 4
LineGap: 0
VLineGap: 0
Panose: 0 0 0 0 0 0 0 0 0 0
OS2TypoAscent: 1759
OS2TypoAOffset: 0
OS2TypoDescent: -389
OS2TypoDOffset: 0
OS2TypoLinegap: 0
OS2WinAscent: 2056
OS2WinAOffset: 0
OS2WinDescent: 930
OS2WinDOffset: 0
HheadAscent: 1759
HheadAOffset: 0
HheadDescent: -389
HheadDOffset: 0
OS2SubXSize: 1331
OS2SubYSize: 1229
OS2SubXOff: 0
OS2SubYOff: 154
OS2SupXSize: 1331
OS2SupYSize: 1229
OS2SupXOff: 0
OS2SupYOff: 717
OS2StrikeYSize: 102
OS2StrikeYPos: 561
OS2CapHeight: 1276
OS2XHeight: 936
OS2Vendor: 'CYRE'
OS2CodePages: 60000193.cdd40000
OS2UnicodeRanges: a00000ff.0000f9eb.00000020.00000000
Lookup: 1 0 0 "'aalt' Access All Alternates in Latin lookup 0" { "'aalt' Access All Alternates in Latin lookup 0 subtable"  } ['aalt' ('DFLT' <'dflt' > 'latn' <'AZE ' 'CAT ' 'CRT ' 'KAZ ' 'MOL ' 'ROM ' 'TAT ' 'TRK ' 'dflt' > ) ]
Lookup: 3 0 0 "'aalt' Access All Alternates in Latin lookup 1" { "'aalt' Access All Alternates in Latin lookup 1 subtable"  } ['aalt' ('DFLT' <'dflt' > 'latn' <'AZE ' 'CAT ' 'CRT ' 'KAZ ' 'MOL ' 'ROM ' 'TAT ' 'TRK ' 'dflt' > ) ]

StartChar: A
Encoding: 65 65 1
Width: 922
VWidth: 2441
GlyphClass: 2
Flags: HW
AnchorPoint: "Anchor-3" 691 0 basechar 0
AnchorPoint: "Anchor-2" 381 0 basechar 0
AnchorPoint: "Anchor-0" 621.902 1521 basechar 0
LayerCount: 2
Fore
SplineSet
559.55859375 1140 m 1,0,-1
 319.229492188 576 l 1,1,-1
 619.229492188 576 l 1,2,-1
 559.55859375 1140 l 1,0,-1
683 0 m 1,3,-1
 634.481445312 445 l 1,4,-1
 263.481445312 445 l 1,5,-1
 75 0 l 1,6,-1
 -64 0 l 1,7,-1
 614.020507812 1547 l 1,8,-1
 638.020507812 1547 l 1,9,-1
 826 0 l 1,10,-1
 683 0 l 1,3,-1
EndSplineSet
Substitution2: "Single Substitution lookup 29 subtable" ordfeminine
Substitution2: "'aalt' Access All Alternates in Latin lookup 0 subtable" ordfeminine
EndChar

StartChar: AE
Encoding: 198 198 26
Width: 922
VWidth: 2441
GlyphClass: 1
Flags: HW
LayerCount: 2
Fore
SplineSet
265.427734375 552 m 1,0,-1
 470.427734375 552 l 1,1,-1
 609.303710938 1372 l 1,2,-1
 588.303710938 1372 l 1,3,-1
 265.427734375 552 l 1,0,-1
-74 0 m 1,4,-1
 529.219726562 1523 l 1,5,-1
 1057.21972656 1523 l 1,6,-1
 1033.62011719 1374 l 1,7,-1
 724.620117188 1374 l 1,8,-1
 644.635742188 869 l 1,9,-1
 904.635742188 869 l 1,10,-1
 880.719726562 718 l 1,11,-1
 620.719726562 718 l 1,12,-1
 530.599609375 149 l 1,13,-1
 835.599609375 149 l 1,14,-1
 812 0 l 1,15,-1
 383 0 l 1,16,-1
 448.729492188 415 l 1,17,-1
 218.729492188 415 l 1,18,-1
 52 0 l 1,19,-1
 -74 0 l 1,4,-1
EndSplineSet
EndChar

StartChar: B
Encoding: 66 66 28
Width: 922
VWidth: 2441
GlyphClass: 2
Flags: HW
AnchorPoint: "Anchor-2" 450 0 basechar 0
AnchorPoint: "Anchor-0" 690.902 1521 basechar 0
LayerCount: 2
Fore
SplineSet
192.282226562 147 m 1,0,-1
 441.282226562 147 l 2,1,2
 581.282226562 147 581.282226562 147 678.65625 212.5 c 128,-1,3
 776.03125 278 776.03125 278 801.213867188 437 c 0,4,5
 822.913085938 574 822.913085938 574 757.11328125 660.5 c 128,-1,6
 691.313476562 747 691.313476562 747 500.313476562 747 c 2,7,-1
 287.313476562 747 l 1,8,-1
 192.282226562 147 l 1,0,-1
310.279296875 892 m 1,9,-1
 516.279296875 892 l 2,10,11
 693.279296875 892 693.279296875 892 771.548828125 960 c 128,-1,12
 849.819335938 1028 849.819335938 1028 866.291015625 1132 c 0,13,14
 882.129882812 1232 882.129882812 1232 827.270507812 1305.5 c 128,-1,15
 772.412109375 1379 772.412109375 1379 615.412109375 1379 c 2,16,-1
 387.412109375 1379 l 1,17,-1
 310.279296875 892 l 1,9,-1
10 0 m 1,18,-1
 250.90234375 1521 l 1,19,-1
 637.90234375 1521 l 2,20,21
 865.90234375 1521 865.90234375 1521 961.459960938 1423.5 c 128,-1,22
 1057.01757812 1326 1057.01757812 1326 1029.6171875 1153 c 0,23,24
 1010.76953125 1034 1010.76953125 1034 944.356445312 943 c 128,-1,25
 877.943359375 852 877.943359375 852 775.083007812 815 c 1,26,27
 881.431640625 773 881.431640625 773 935.142578125 667 c 128,-1,28
 988.853515625 561 988.853515625 561 967.629882812 427 c 0,29,30
 936.270507812 229 936.270507812 229 796.134765625 114.5 c 128,-1,31
 656 0 656 0 395 0 c 2,32,-1
 10 0 l 1,18,-1
EndSplineSet
EndChar

StartChar: C
Encoding: 67 67 29
Width: 922
VWidth: 2441
GlyphClass: 2
Flags: HW
AnchorPoint: "Anchor-2" 489 0 basechar 0
AnchorPoint: "Anchor-0" 708.902 1521 basechar 0
LayerCount: 2
Fore
SplineSet
496.19921875 -24 m 0,0,1
 355.19921875 -24 355.19921875 -24 253.790039062 55.5 c 128,-1,2
 152.381835938 135 152.381835938 135 111.044921875 306.5 c 128,-1,3
 69.7080078125 478 69.7080078125 478 111.10546875 752 c 0,4,5
 146.900390625 978 146.900390625 978 215.895507812 1129.5 c 128,-1,6
 284.890625 1281 284.890625 1281 371.907226562 1369.5 c 128,-1,7
 458.924804688 1458 458.924804688 1458 553.364257812 1495.5 c 128,-1,8
 647.803710938 1533 647.803710938 1533 735.803710938 1533 c 0,9,10
 874.803710938 1533 874.803710938 1533 963.107421875 1456 c 128,-1,11
 1051.41210938 1379 1051.41210938 1379 1079.6640625 1248 c 1,12,-1
 943.943359375 1174 l 1,13,-1
 920.04296875 1162 l 1,14,-1
 915.735351562 1179 l 1,15,16
 923.744140625 1198 923.744140625 1198 922.016601562 1215.5 c 128,-1,17
 920.288085938 1233 920.288085938 1233 908.1484375 1270 c 1,18,19
 869.02734375 1345 869.02734375 1345 818.065429688 1370.5 c 128,-1,20
 767.104492188 1396 767.104492188 1396 710.104492188 1396 c 0,21,22
 551.104492188 1396 551.104492188 1396 431.208984375 1232.5 c 128,-1,23
 311.3125 1069 311.3125 1069 263.005859375 764 c 0,24,25
 231.645507812 566 231.645507812 566 256.337890625 422 c 128,-1,26
 281.03125 278 281.03125 278 348.176757812 200 c 128,-1,27
 415.323242188 122 415.323242188 122 515.323242188 122 c 0,28,29
 592.323242188 122 592.323242188 122 668.6875 168.5 c 128,-1,30
 745.052734375 215 745.052734375 215 800.515625 300 c 1,31,-1
 897.577148438 212 l 1,32,33
 817.046875 95 817.046875 95 719.123046875 35.5 c 128,-1,34
 621.19921875 -24 621.19921875 -24 496.19921875 -24 c 0,0,1
EndSplineSet
EndChar

StartChar: D
Encoding: 68 68 36
Width: 922
VWidth: 2441
GlyphClass: 2
Flags: HW
AnchorPoint: "Anchor-4" 573.688 762 basechar 0
AnchorPoint: "Anchor-2" 453 0 basechar 0
AnchorPoint: "Anchor-0" 628.902 1521 basechar 0
LayerCount: 2
Fore
SplineSet
198.907226562 132 m 1,0,-1
 329.907226562 132 l 2,1,2
 560.907226562 132 560.907226562 132 693.248046875 292 c 0,3,4
 823.161132812 449.064453125 823.161132812 449.064453125 868.032226562 732.365234375 c 0,5,6
 868.87109375 737.66015625 868.87109375 737.66015625 869.6796875 743 c 0,7,8
 916.561523438 1039 916.561523438 1039 847.486328125 1209 c 128,-1,9
 778.412109375 1379 778.412109375 1379 551.412109375 1379 c 2,10,-1
 396.412109375 1379 l 1,11,-1
 198.907226562 132 l 1,0,-1
21.68359375 -2 m 1,12,-1
 262.90234375 1521 l 1,13,-1
 582.90234375 1521 l 2,14,15
 756.90234375 1521 756.90234375 1521 847.087890625 1468.5 c 128,-1,16
 937.272460938 1416 937.272460938 1416 989.43359375 1316 c 0,17,18
 1089.31738281 1119.48828125 1089.31738281 1119.48828125 1031.98242188 757.494140625 c 0,19,20
 1031.54882812 754.751953125 1031.54882812 754.751953125 1031.10546875 752 c 1,21,22
 986.884765625 517 986.884765625 517 899.276367188 349 c 128,-1,23
 811.66796875 181 811.66796875 181 669.67578125 89.5 c 128,-1,24
 527.68359375 -2 527.68359375 -2 313.68359375 -2 c 2,25,-1
 21.68359375 -2 l 1,12,-1
EndSplineSet
EndChar

StartChar: Eth
Encoding: 208 208 37
Width: 922
VWidth: 2441
GlyphClass: 1
Flags: HW
LayerCount: 2
Fore
SplineSet
226.015625 139 m 1,0,-1
 342.015625 139 l 2,1,2
 536.015625 139 536.015625 139 660.357421875 299 c 128,-1,3
 784.698242188 459 784.698242188 459 830.313476562 747 c 0,4,5
 876.719726562 1040 876.719726562 1040 814.407226562 1208.5 c 128,-1,6
 752.095703125 1377 752.095703125 1377 560.095703125 1377 c 2,7,-1
 422.095703125 1377 l 1,8,-1
 342.745117188 876 l 1,9,-1
 548.745117188 876 l 1,10,-1
 526.25390625 734 l 1,11,-1
 320.25390625 734 l 1,12,-1
 226.015625 139 l 1,0,-1
63.68359375 -2 m 1,13,-1
 180.25390625 734 l 1,14,-1
 83.25390625 734 l 1,15,-1
 105.745117188 876 l 1,16,-1
 202.745117188 876 l 1,17,-1
 304.90234375 1521 l 1,18,-1
 588.90234375 1521 l 2,19,20
 715.90234375 1521 715.90234375 1521 791.830078125 1479.5 c 128,-1,21
 867.756835938 1438 867.756835938 1438 909.3828125 1372.5 c 128,-1,22
 951.008789062 1307 951.008789062 1307 970.604492188 1235 c 0,23,24
 989.418945312 1177 989.418945312 1177 997.5703125 1058 c 128,-1,25
 1005.72265625 939 1005.72265625 939 976.580078125 755 c 0,26,27
 918.294921875 387 918.294921875 387 747.489257812 192.5 c 128,-1,28
 576.68359375 -2 576.68359375 -2 323.68359375 -2 c 2,29,-1
 63.68359375 -2 l 1,13,-1
EndSplineSet
EndChar

StartChar: E
Encoding: 69 69 42
Width: 922
VWidth: 2441
GlyphClass: 2
Flags: HW
AnchorPoint: "Anchor-3" 897.801 24 basechar 0
AnchorPoint: "Anchor-2" 456 0 basechar 0
AnchorPoint: "Anchor-0" 717.902 1521 basechar 0
LayerCount: 2
Fore
SplineSet
36 0 m 1,0,-1
 277.219726562 1523 l 1,1,-1
 1116.21972656 1523 l 1,2,-1
 1092.62011719 1374 l 1,3,-1
 407.620117188 1374 l 1,4,-1
 327.635742188 869 l 1,5,-1
 893.635742188 869 l 1,6,-1
 869.719726562 718 l 1,7,-1
 303.719726562 718 l 1,8,-1
 213.599609375 149 l 1,9,-1
 893.599609375 149 l 1,10,-1
 870 0 l 1,11,-1
 36 0 l 1,0,-1
EndSplineSet
EndChar

StartChar: uni01B8
Encoding: 440 440 65
Width: 922
VWidth: 2441
GlyphClass: 1
Flags: HW
LayerCount: 2
Fore
SplineSet
490.723632812 -27 m 0,0,1
 346.723632812 -27 346.723632812 -27 259.7265625 33 c 128,-1,2
 172.729492188 93 172.729492188 93 139.963867188 195.5 c 128,-1,3
 107.198242188 298 107.198242188 298 126.521484375 420 c 0,4,5
 147.903320312 555 147.903320312 555 218.350585938 662 c 128,-1,6
 288.797851562 769 288.797851562 769 394.750976562 835 c 128,-1,7
 500.704101562 901 500.704101562 901 625.813476562 908 c 1,8,-1
 315.986328125 1370 l 1,9,-1
 339.90234375 1521 l 1,10,-1
 1010.90234375 1521 l 1,11,-1
 986.986328125 1370 l 1,12,-1
 490.986328125 1370 l 1,13,-1
 792.813476562 908 l 1,14,-1
 772.698242188 781 l 1,15,16
 747.635742188 782.57421875 747.635742188 782.57421875 723.657226562 782.57421875 c 0,17,18
 564.799804688 782.57421875 564.799804688 782.57421875 453.506835938 713.5 c 0,19,20
 325.416015625 634 325.416015625 634 293.421875 432 c 0,21,22
 270.139648438 285 270.139648438 285 330.334960938 201 c 128,-1,23
 390.53125 117 390.53125 117 530.53125 117 c 0,24,25
 591.53125 117 591.53125 117 635.9609375 135.5 c 128,-1,26
 680.391601562 154 680.391601562 154 719.250976562 191 c 0,27,28
 748.319335938 223 748.319335938 223 759.774414062 238.5 c 128,-1,29
 771.229492188 254 771.229492188 254 772.555664062 275 c 1,30,-1
 784.08984375 291 l 1,31,-1
 801.239257812 273 l 1,32,-1
 871.490234375 142 l 1,33,34
 787.869140625 56 787.869140625 56 691.796875 14.5 c 128,-1,35
 595.723632812 -27 595.723632812 -27 490.723632812 -27 c 0,0,1
EndSplineSet
EndChar

StartChar: F
Encoding: 70 70 66
Width: 922
VWidth: 2441
GlyphClass: 2
Flags: HW
AnchorPoint: "Anchor-2" 456 0 basechar 0
AnchorPoint: "Anchor-0" 696.902 1521 basechar 0
LayerCount: 2
Fore
SplineSet
76 0 m 1,0,-1
 317.219726562 1523 l 1,1,-1
 1107.21972656 1523 l 1,2,-1
 1084.09570312 1377 l 1,3,-1
 457.095703125 1377 l 1,4,-1
 380.595703125 894 l 1,5,-1
 884.595703125 894 l 1,6,-1
 861.788085938 750 l 1,7,-1
 357.788085938 750 l 1,8,-1
 239 0 l 1,9,-1
 76 0 l 1,0,-1
EndSplineSet
EndChar

StartChar: G
Encoding: 71 71 67
Width: 922
VWidth: 2441
GlyphClass: 2
Flags: HW
AnchorPoint: "Anchor-2" 462 0 basechar 0
AnchorPoint: "Anchor-0" 722.902 1521 basechar 0
LayerCount: 2
Fore
SplineSet
482.19921875 -24 m 0,0,1
 326.19921875 -24 326.19921875 -24 227.849609375 68.5 c 128,-1,2
 129.5 161 129.5 161 95.2421875 333 c 128,-1,3
 60.984375 505 60.984375 505 98.6796875 743 c 0,4,5
 100.147460938 752.764648438 100.147460938 752.764648438 101.671875 762.38671875 c 0,6,7
 139.0078125 998.1171875 139.0078125 998.1171875 209.825195312 1148 c 0,8,9
 283.533203125 1304 283.533203125 1304 375.075195312 1389.5 c 128,-1,10
 466.6171875 1475 466.6171875 1475 558.606445312 1506.5 c 128,-1,11
 650.595703125 1538 650.595703125 1538 725.595703125 1538 c 0,12,13
 843.278320312 1536 843.278320312 1536 940.008789062 1468 c 128,-1,14
 1036.73828125 1400 1036.73828125 1400 1070.15722656 1289 c 1,15,-1
 951.5859375 1197 l 1,16,-1
 928.735351562 1179 l 1,17,-1
 921.953125 1193 l 1,18,19
 926.961914062 1212 926.961914062 1212 923.3125 1230 c 128,-1,20
 919.6640625 1248 919.6640625 1248 900.573242188 1279 c 0,21,22
 862.443359375 1335 862.443359375 1335 815.719726562 1362 c 128,-1,23
 768.99609375 1389 768.99609375 1389 699.99609375 1389 c 0,24,25
 606.99609375 1389 606.99609375 1389 518.78515625 1334 c 128,-1,26
 430.573242188 1279 430.573242188 1279 363.008789062 1146 c 128,-1,27
 295.443359375 1013 295.443359375 1013 258.22265625 778 c 0,28,29
 208.015625 461 208.015625 461 275.827148438 292.5 c 128,-1,30
 343.639648438 124 343.639648438 124 505.639648438 124 c 0,31,32
 561.639648438 124 561.639648438 124 632.965820312 145 c 128,-1,33
 704.291992188 166 704.291992188 166 759.577148438 212 c 1,34,-1
 818.337890625 583 l 1,35,-1
 585.337890625 583 l 1,36,-1
 608.145507812 727 l 1,37,-1
 986.145507812 727 l 1,38,-1
 891.907226562 132 l 1,39,40
 682.19921875 -24 682.19921875 -24 482.19921875 -24 c 0,0,1
EndSplineSet
EndChar

StartChar: H
Encoding: 72 72 74
Width: 922
VWidth: 2441
GlyphClass: 2
Flags: HW
AnchorPoint: "Anchor-4" 636.688 762 basechar 0
AnchorPoint: "Anchor-2" 516 0 basechar 0
AnchorPoint: "Anchor-0" 756.902 1521 basechar 0
LayerCount: 2
Fore
SplineSet
256.90234375 1521 m 1,0,-1
 444.90234375 1521 l 1,1,-1
 442.209960938 1504 l 1,2,3
 425.993164062 1490 425.993164062 1490 420.299804688 1473 c 128,-1,4
 414.607421875 1456 414.607421875 1456 407.956054688 1414 c 2,5,-1
 321.953125 871 l 1,6,-1
 842.953125 871 l 1,7,-1
 945.90234375 1521 l 1,8,-1
 1132.90234375 1521 l 1,9,-1
 1130.20996094 1504 l 1,10,11
 1115.99316406 1490 1115.99316406 1490 1109.79980469 1473 c 128,-1,12
 1103.60742188 1456 1103.60742188 1456 1096.95605469 1414 c 2,13,-1
 873 0 l 1,14,-1
 702 0 l 1,15,-1
 816.829101562 725 l 1,16,-1
 298.829101562 725 l 1,17,-1
 184 0 l 1,18,-1
 16 0 l 1,19,-1
 256.90234375 1521 l 1,0,-1
EndSplineSet
EndChar

StartChar: Hbar
Encoding: 294 294 75
Width: 922
VWidth: 2441
GlyphClass: 2
Flags: HW
AnchorPoint: "Anchor-4" 545.688 762 basechar 0
AnchorPoint: "Anchor-2" 425 0 basechar 0
AnchorPoint: "Anchor-0" 665.902 1521 basechar 0
LayerCount: 2
Fore
SplineSet
281.953125 871 m 1,0,-1
 721.953125 871 l 1,1,-1
 776.595703125 1216 l 1,2,-1
 336.595703125 1216 l 1,3,-1
 281.953125 871 l 1,0,-1
114.595703125 1216 m 1,4,-1
 135.977539062 1351 l 1,5,-1
 215.977539062 1351 l 1,6,-1
 242.90234375 1521 l 1,7,-1
 401.90234375 1521 l 1,8,-1
 399.209960938 1504 l 1,9,10
 384.993164062 1490 384.993164062 1490 379.799804688 1473 c 128,-1,11
 374.607421875 1456 374.607421875 1456 367.956054688 1414 c 2,12,-1
 357.977539062 1351 l 1,13,-1
 797.977539062 1351 l 1,14,-1
 824.90234375 1521 l 1,15,-1
 982.90234375 1521 l 1,16,-1
 980.209960938 1504 l 1,17,18
 967.993164062 1490 967.993164062 1490 962.299804688 1473 c 128,-1,19
 956.607421875 1456 956.607421875 1456 949.956054688 1414 c 2,20,-1
 939.977539062 1351 l 1,21,-1
 1025.97753906 1351 l 1,22,-1
 1004.59570312 1216 l 1,23,-1
 918.595703125 1216 l 1,24,-1
 726 0 l 1,25,-1
 582 0 l 1,26,-1
 696.829101562 725 l 1,27,-1
 258.829101562 725 l 1,28,-1
 144 0 l 1,29,-1
 2 0 l 1,30,-1
 194.595703125 1216 l 1,31,-1
 114.595703125 1216 l 1,4,-1
EndSplineSet
EndChar

StartChar: I
Encoding: 73 73 79
Width: 922
VWidth: 2441
GlyphClass: 2
Flags: HW
AnchorPoint: "Anchor-3" 682 0 basechar 0
AnchorPoint: "Anchor-2" 456 0 basechar 0
AnchorPoint: "Anchor-0" 671.902 1521 basechar 0
LayerCount: 2
Fore
SplineSet
85 0 m 1,0,-1
 107.490234375 142 l 1,1,-1
 373.490234375 142 l 1,2,-1
 569.412109375 1379 l 1,3,-1
 317.412109375 1379 l 1,4,-1
 339.90234375 1521 l 1,5,-1
 1017.90234375 1521 l 1,6,-1
 995.412109375 1379 l 1,7,-1
 730.412109375 1379 l 1,8,-1
 534.015625 139 l 1,9,-1
 814.015625 139 l 1,10,-1
 792 0 l 1,11,-1
 85 0 l 1,0,-1
EndSplineSet
EndChar

StartChar: J
Encoding: 74 74 94
Width: 922
VWidth: 2441
GlyphClass: 2
Flags: HW
AnchorPoint: "Anchor-2" 448 0 basechar 0
AnchorPoint: "Anchor-0" 861.902 1521 basechar 0
LayerCount: 2
Fore
SplineSet
324.723632812 -27 m 0,0,1
 130.723632812 -27 130.723632812 -27 30.9072265625 132 c 1,2,-1
 138.655273438 263 l 1,3,-1
 155.981445312 284 l 1,4,-1
 169.555664062 275 l 1,5,6
 168.229492188 254 168.229492188 254 172.641601562 234.5 c 128,-1,7
 177.052734375 215 177.052734375 215 201.459960938 186 c 0,8,9
 263.481445312 123 263.481445312 123 348.323242188 122 c 0,10,11
 454.323242188 122 454.323242188 122 517.602539062 209 c 128,-1,12
 580.881835938 296 580.881835938 296 614.458984375 508 c 2,13,-1
 752.412109375 1379 l 1,14,-1
 493.412109375 1379 l 1,15,-1
 515.90234375 1521 l 1,16,-1
 1140.90234375 1521 l 1,17,-1
 1118.41210938 1379 l 1,18,-1
 910.412109375 1379 l 1,19,-1
 772.776367188 510 l 1,20,21
 770.422851562 492.321289062 770.422851562 492.321289062 767.72265625 475.276367188 c 0,22,23
 740.186523438 301.419921875 740.186523438 301.419921875 676.647460938 193.5 c 0,24,25
 606.87890625 75 606.87890625 75 514.30078125 24 c 128,-1,26
 421.723632812 -27 421.723632812 -27 324.723632812 -27 c 0,0,1
EndSplineSet
EndChar

StartChar: K
Encoding: 75 75 96
Width: 922
VWidth: 2441
GlyphClass: 1
Flags: HW
LayerCount: 2
Fore
SplineSet
375.580078125 755 m 1,0,-1
 253.514648438 622 l 1,1,-1
 155 0 l 1,2,-1
 -6 0 l 1,3,-1
 234.90234375 1521 l 1,4,-1
 416.90234375 1521 l 1,5,-1
 414.209960938 1504 l 1,6,7
 397.993164062 1490 397.993164062 1490 391.799804688 1473 c 128,-1,8
 385.607421875 1456 385.607421875 1456 378.956054688 1414 c 2,9,-1
 285.350585938 823 l 1,10,-1
 925.803710938 1533 l 1,11,12
 976.90234375 1521 976.90234375 1521 1039.90234375 1521 c 2,13,-1
 1092.90234375 1521 l 1,14,-1
 506.051757812 859 l 1,15,-1
 884 0 l 1,16,-1
 690.416015625 -10 l 1,17,-1
 375.580078125 755 l 1,0,-1
EndSplineSet
EndChar

StartChar: uni0198
Encoding: 408 408 98
Width: 922
VWidth: 2441
GlyphClass: 1
Flags: HW
LayerCount: 2
Fore
SplineSet
236.90234375 1521 m 1,0,-1
 419.90234375 1521 l 1,1,-1
 417.209960938 1504 l 1,2,3
 400.993164062 1490 400.993164062 1490 394.299804688 1473 c 128,-1,4
 387.607421875 1456 387.607421875 1456 380.956054688 1414 c 2,5,-1
 284.658203125 806 l 1,6,7
 462.213867188 1081 462.213867188 1081 600.659179688 1238.5 c 128,-1,8
 739.104492188 1396 739.104492188 1396 848.795898438 1463.5 c 128,-1,9
 958.486328125 1531 958.486328125 1531 1046.48632812 1531 c 0,10,11
 1088.48632812 1531 1088.48632812 1531 1115.90234375 1521 c 1,12,-1
 1086.02734375 1345 l 1,13,-1
 1082.22558594 1321 l 1,14,-1
 1068.22558594 1321 l 1,15,16
 1059.44335938 1335 1059.44335938 1335 1045.52734375 1345 c 128,-1,17
 1031.61132812 1355 1031.61132812 1355 997.0859375 1358 c 2,18,-1
 991.0859375 1358 l 2,19,20
 968.0859375 1358 968.0859375 1358 933.369140625 1344 c 128,-1,21
 898.651367188 1330 898.651367188 1330 842.024414062 1285 c 128,-1,22
 785.396484375 1240 785.396484375 1240 700.24609375 1147.5 c 128,-1,23
 615.095703125 1055 615.095703125 1055 491.387695312 899 c 1,24,-1
 886 0 l 1,25,-1
 693.416015625 -10 l 1,26,-1
 377.788085938 750 l 1,27,28
 316.642578125 667 316.642578125 667 247.4375 571 c 1,29,-1
 157 0 l 1,30,-1
 -4 0 l 1,31,-1
 236.90234375 1521 l 1,0,-1
EndSplineSet
EndChar

StartChar: L
Encoding: 76 76 99
Width: 922
VWidth: 2441
GlyphClass: 2
Flags: HW
AnchorPoint: "Anchor-4" 261.688 762 basechar 0
AnchorPoint: "Anchor-2" 456 0 basechar 0
AnchorPoint: "Anchor-1" 478.757 1116 basechar 0
AnchorPoint: "Anchor-0" 586.902 1521 basechar 0
LayerCount: 2
Fore
SplineSet
290.90234375 1521 m 1,0,-1
 479.90234375 1521 l 1,1,-1
 477.209960938 1504 l 1,2,3
 460.993164062 1490 460.993164062 1490 453.799804688 1473 c 128,-1,4
 446.607421875 1456 446.607421875 1456 439.956054688 1414 c 2,5,-1
 239.282226562 147 l 1,6,-1
 896.282226562 147 l 1,7,-1
 873 0 l 1,8,-1
 50 0 l 1,9,-1
 290.90234375 1521 l 1,0,-1
EndSplineSet
EndChar

StartChar: uni01C7
Encoding: 455 455 100
Width: 922
VWidth: 2380
GlyphClass: 1
Flags: HW
LayerCount: 2
Fore
SplineSet
56.521484375 98 m 1,0,-1
 281.90234375 1521 l 1,1,-1
 457.90234375 1521 l 1,2,3
 455.368164062 1505 455.368164062 1505 449.814453125 1501.5 c 128,-1,4
 444.259765625 1498 444.259765625 1498 437.333984375 1489 c 128,-1,5
 430.409179688 1480 430.409179688 1480 424.548828125 1443 c 2,6,-1
 233.37890625 236 l 1,7,-1
 573.37890625 236 l 1,8,-1
 551.521484375 98 l 1,9,-1
 56.521484375 98 l 1,0,-1
456.037109375 -246 m 0,10,11
 273.037109375 -246 273.037109375 -246 173.478515625 -98 c 1,12,-1
 295.2265625 33 l 1,13,14
 312.692382812 17 312.692382812 17 310 0 c 128,-1,15
 307.307617188 -17 307.307617188 -17 324.505859375 -41 c 0,16,17
 337.338867188 -61 337.338867188 -61 375.93359375 -82.5 c 128,-1,18
 414.528320312 -104 414.528320312 -104 473.528320312 -104 c 0,19,20
 569.528320312 -104 569.528320312 -104 631.119140625 -24.5 c 128,-1,21
 692.7109375 55 692.7109375 55 724.071289062 253 c 2,22,-1
 903.837890625 1388 l 1,23,-1
 646.837890625 1388 l 1,24,-1
 667.90234375 1521 l 1,25,-1
 1076.90234375 1521 l 1,26,-1
 876.546875 256 l 1,27,28
 874.567382812 241.504882812 874.567382812 241.504882812 872.34375 227.46484375 c 0,0,0
 846.4921875 64.2470703125 846.4921875 64.2470703125 787.560546875 -37.5 c 128,-1,29
 723.559570312 -148 723.559570312 -148 635.297851562 -197 c 128,-1,30
 547.037109375 -246 547.037109375 -246 456.037109375 -246 c 0,10,11
EndSplineSet
EndChar

StartChar: Lcaron
Encoding: 317 317 102
Width: 922
VWidth: 2441
GlyphClass: 2
Flags: HW
AnchorPoint: "Anchor-4" 261.688 762 basechar 0
AnchorPoint: "Anchor-2" 456 0 basechar 0
AnchorPoint: "Anchor-1" 478.757 1116 basechar 0
AnchorPoint: "Anchor-0" 586.902 1521 basechar 0
LayerCount: 2
Fore
SplineSet
290.90234375 1521 m 1,0,-1
 479.90234375 1521 l 1,1,-1
 477.209960938 1504 l 1,2,3
 460.993164062 1490 460.993164062 1490 453.799804688 1473 c 128,-1,4
 446.607421875 1456 446.607421875 1456 439.956054688 1414 c 2,5,-1
 239.282226562 147 l 1,6,-1
 896.282226562 147 l 1,7,-1
 873 0 l 1,8,-1
 50 0 l 1,9,-1
 290.90234375 1521 l 1,0,-1
810.334960938 1006 m 1,10,-1
 755.204101562 1062 l 1,11,12
 814.282226562 1113 814.282226562 1113 855.151367188 1169 c 128,-1,13
 896.020507812 1225 896.020507812 1225 901.880859375 1262 c 0,14,15
 906.157226562 1289 906.157226562 1289 886.404296875 1309.5 c 128,-1,16
 866.651367188 1330 866.651367188 1330 848.53125 1354.5 c 128,-1,17
 830.412109375 1379 830.412109375 1379 835.956054688 1414 c 0,18,19
 843.716796875 1463 843.716796875 1463 879.205078125 1494.5 c 128,-1,20
 914.694335938 1526 914.694335938 1526 960.694335938 1526 c 128,-1,21
 1006.69433594 1526 1006.69433594 1526 1036.54296875 1484 c 128,-1,22
 1066.39453125 1441.99414062 1066.39453125 1441.99414062 1054.73730469 1368.38964844 c 0,23,24
 1030.74023438 1216.87792969 1030.74023438 1216.87792969 810.334960938 1006 c 1,10,-1
EndSplineSet
EndChar

StartChar: uni01C8
Encoding: 456 456 106
Width: 922
VWidth: 2365
GlyphClass: 1
Flags: HW
LayerCount: 2
Fore
SplineSet
361.037109375 -246 m 0,0,1
 270.037109375 -246 270.037109375 -246 205.66015625 -210.5 c 128,-1,2
 141.283203125 -175 141.283203125 -175 99.2109375 -106 c 1,3,-1
 221.384765625 34 l 1,4,5
 232.009765625 19 232.009765625 19 232.158203125 1 c 128,-1,6
 232.307617188 -17 232.307617188 -17 244.981445312 -38 c 128,-1,7
 257.655273438 -59 257.655273438 -59 302.37890625 -86 c 0,8,9
 340.89453125 -108 340.89453125 -108 393.89453125 -108 c 0,10,11
 480.89453125 -108 480.89453125 -108 550.873046875 -45 c 128,-1,12
 620.850585938 18 620.850585938 18 646.66796875 181 c 2,13,-1
 780.977539062 1029 l 1,14,-1
 499.977539062 1029 l 1,15,-1
 520.409179688 1158 l 1,16,-1
 953.409179688 1158 l 1,17,-1
 800.092773438 190 l 2,18,19
 775.54296875 35 775.54296875 35 711.497070312 -60 c 128,-1,20
 647.450195312 -155 647.450195312 -155 556.560546875 -198.5 c 128,-1,21
 465.670898438 -242 465.670898438 -242 361.037109375 -246 c 0,0,1
57.33203125 141 m 1,22,-1
 277.01171875 1528 l 1,23,-1
 448.01171875 1528 l 1,24,25
 444.52734375 1506 444.52734375 1506 433.333984375 1489 c 128,-1,26
 422.141601562 1472 422.141601562 1472 418.815429688 1451 c 2,27,-1
 232.872070312 277 l 1,28,-1
 548.872070312 277 l 1,29,-1
 527.33203125 141 l 1,30,-1
 57.33203125 141 l 1,22,-1
891.620117188 1374 m 0,31,32
 849.620117188 1374 849.620117188 1374 823.188476562 1406 c 128,-1,33
 796.756835938 1438 796.756835938 1438 803.883789062 1483 c 0,34,35
 811.328125 1530 811.328125 1530 846.896484375 1562 c 128,-1,36
 882.46484375 1594 882.46484375 1594 926.46484375 1594 c 0,37,38
 971.46484375 1594 971.46484375 1594 997.23828125 1561 c 128,-1,39
 1023.01171875 1528 1023.01171875 1528 1015.88378906 1483 c 128,-1,40
 1008.75683594 1438 1008.75683594 1438 972.688476562 1406 c 128,-1,41
 936.620117188 1374 936.620117188 1374 891.620117188 1374 c 0,31,32
EndSplineSet
EndChar

StartChar: Lslash
Encoding: 321 321 108
Width: 922
VWidth: 2441
GlyphClass: 1
Flags: HW
LayerCount: 2
Fore
SplineSet
57 0 m 1,0,-1
 151.080078125 594 l 1,1,-1
 35.427734375 552 l 1,2,-1
 59.02734375 701 l 1,3,-1
 174.99609375 745 l 1,4,-1
 297.90234375 1521 l 1,5,-1
 472.90234375 1521 l 2,6,7
 479.90234375 1521 479.90234375 1521 479.110351562 1516 c 0,8,9
 477.52734375 1506 477.52734375 1506 465.625976562 1494 c 128,-1,10
 453.725585938 1482 453.725585938 1482 442.756835938 1438 c 1,11,-1
 341.866210938 801 l 1,12,-1
 706.614257812 932 l 2,13,14
 723.72265625 939 723.72265625 939 738.752929688 945.5 c 128,-1,15
 753.782226562 952 753.782226562 952 762.57421875 957 c 1,16,-1
 737.866210938 801 l 1,17,-1
 318.266601562 652 l 1,18,-1
 238.282226562 147 l 1,19,-1
 861.282226562 147 l 1,20,-1
 838 0 l 1,21,-1
 57 0 l 1,0,-1
EndSplineSet
EndChar

StartChar: M
Encoding: 77 77 109
Width: 922
VWidth: 2441
GlyphClass: 2
Flags: HW
AnchorPoint: "Anchor-2" 436 0 basechar 0
AnchorPoint: "Anchor-0" 676.902 1521 basechar 0
LayerCount: 2
Fore
SplineSet
-7 0 m 1,0,-1
 233.90234375 1521 l 1,1,-1
 355.90234375 1521 l 1,2,-1
 561.440429688 792 l 1,3,-1
 1004.21972656 1523 l 1,4,-1
 1124.21972656 1523 l 1,5,-1
 883 0 l 1,6,-1
 737 0 l 1,7,-1
 916.291015625 1132 l 1,8,-1
 538.735351562 535 l 1,9,-1
 482.735351562 535 l 1,10,-1
 315.182617188 1125 l 1,11,-1
 137 0 l 1,12,-1
 -7 0 l 1,0,-1
EndSplineSet
EndChar

StartChar: N
Encoding: 78 78 111
Width: 922
VWidth: 2441
GlyphClass: 2
Flags: HW
AnchorPoint: "Anchor-2" 452 0 basechar 0
AnchorPoint: "Anchor-0" 692.902 1521 basechar 0
LayerCount: 2
Fore
SplineSet
255.90234375 1521 m 1,0,-1
 408.90234375 1521 l 1,1,-1
 794.62109375 408 l 1,2,-1
 970.90234375 1521 l 1,3,-1
 1145.90234375 1521 l 1,4,-1
 1143.20996094 1504 l 1,5,6
 1126.99316406 1490 1126.99316406 1490 1119.79980469 1473 c 128,-1,7
 1112.60742188 1456 1112.60742188 1456 1105.95605469 1414 c 2,8,-1
 882 0 l 1,9,-1
 757 0 l 1,10,-1
 352.051757812 1181 l 1,11,-1
 165 0 l 1,12,-1
 15 0 l 1,13,-1
 255.90234375 1521 l 1,0,-1
EndSplineSet
EndChar

StartChar: Eng
Encoding: 330 330 117
Width: 922
VWidth: 2344
GlyphClass: 2
Flags: HW
AnchorPoint: "Anchor-2" 423.184 159 basechar 0
AnchorPoint: "Anchor-0" 638.902 1521 basechar 0
LayerCount: 2
Fore
SplineSet
891.90234375 1521 m 1,0,-1
 1043.90234375 1521 l 1,1,2
 1041.84375 1508 1041.84375 1508 1033.1015625 1497 c 128,-1,3
 1024.359375 1486 1024.359375 1486 1020.55761719 1462 c 2,4,-1
 814.18359375 159 l 2,5,6
 781.239257812 -49 781.239257812 -49 683.138671875 -147.5 c 128,-1,7
 585.037109375 -246 585.037109375 -246 449.037109375 -246 c 0,8,9
 355.037109375 -246 355.037109375 -246 284.58984375 -192 c 1,10,-1
 376.130859375 -56 l 1,11,12
 392.1796875 -62 392.1796875 -62 397.779296875 -74 c 128,-1,13
 403.37890625 -86 403.37890625 -86 418.63671875 -97 c 128,-1,14
 433.89453125 -108 433.89453125 -108 474.89453125 -108 c 0,15,16
 566.89453125 -108 566.89453125 -108 611.510742188 -31.5 c 128,-1,17
 656.126953125 45 656.126953125 45 683.78515625 207 c 1,18,-1
 332.75390625 1217 l 1,19,-1
 165.18359375 159 l 1,20,-1
 29.18359375 159 l 1,21,-1
 244.90234375 1521 l 1,22,-1
 384.90234375 1521 l 1,23,-1
 733.993164062 524 l 1,24,-1
 891.90234375 1521 l 1,0,-1
EndSplineSet
EndChar

StartChar: O
Encoding: 79 79 120
Width: 922
VWidth: 2441
GlyphClass: 2
Flags: HW
AnchorPoint: "Anchor-4" 525.688 762 basechar 0
AnchorPoint: "Anchor-3" 480.801 24 basechar 0
AnchorPoint: "Anchor-2" 405 0 basechar 0
AnchorPoint: "Anchor-1" 886.856 1426 basechar 0
AnchorPoint: "Anchor-0" 645.902 1521 basechar 0
LayerCount: 2
Fore
SplineSet
423.84765625 119 m 128,-1,1
 560.84765625 119 560.84765625 119 663.897460938 274 c 128,-1,2
 766.947265625 429 766.947265625 429 818.10546875 752 c 0,3,4
 866.412109375 1057 866.412109375 1057 813.80859375 1220.5 c 128,-1,5
 761.204101562 1384 761.204101562 1384 624.204101562 1384 c 128,-1,6
 487.204101562 1384 487.204101562 1384 381.80859375 1220.5 c 128,-1,7
 276.412109375 1057 276.412109375 1057 228.10546875 752 c 0,8,9
 177.10546875 430 177.10546875 430 231.9765625 274.5 c 128,-1,0
 286.84765625 119 286.84765625 119 423.84765625 119 c 128,-1,1
400.723632812 -27 m 0,10,11
 185.723632812 -27 185.723632812 -27 101.1875 168.5 c 128,-1,12
 16.65234375 364 16.65234375 364 78.10546875 752 c 0,13,14
 137.657226562 1128 137.657226562 1128 284.572265625 1329.5 c 128,-1,15
 431.486328125 1531 431.486328125 1531 647.486328125 1531 c 0,16,17
 860.486328125 1531 860.486328125 1531 944.072265625 1329.5 c 128,-1,18
 1027.65722656 1128 1027.65722656 1128 968.10546875 752 c 0,19,20
 906.493164062 363 906.493164062 363 760.108398438 168 c 128,-1,21
 613.723632812 -27 613.723632812 -27 400.723632812 -27 c 0,10,11
EndSplineSet
Substitution2: "Single Substitution lookup 29 subtable" ordmasculine
Substitution2: "'aalt' Access All Alternates in Latin lookup 0 subtable" ordmasculine
EndChar

StartChar: Oslash
Encoding: 216 216 148
Width: 922
VWidth: 2441
GlyphClass: 2
Flags: HW
AnchorPoint: "Anchor-4" 525.688 762 basechar 0
AnchorPoint: "Anchor-3" 480.801 24 basechar 0
AnchorPoint: "Anchor-2" 405 0 basechar 0
AnchorPoint: "Anchor-1" 886.856 1426 basechar 0
AnchorPoint: "Anchor-0" 645.902 1521 basechar 0
LayerCount: 2
Fore
SplineSet
423.84765625 119 m 0,0,1
 560.84765625 119 560.84765625 119 663.897460938 274 c 128,-1,2
 766.947265625 429 766.947265625 429 818.10546875 752 c 0,3,4
 861.34375 1025 861.34375 1025 822.84375 1186 c 1,5,-1
 253.686523438 219 l 1,6,7
 311.84765625 119 311.84765625 119 423.84765625 119 c 0,0,1
228.10546875 752 m 0,8,9
 187.875 498 187.875 498 215.642578125 345 c 1,10,-1
 777.741210938 1299 l 1,11,12
 723.987304688 1384.01171875 723.987304688 1384.01171875 626.477539062 1384.01171875 c 0,13,14
 625.34375 1384.01171875 625.34375 1384.01171875 624.204101562 1384 c 0,15,16
 487.204101562 1384 487.204101562 1384 381.80859375 1220.5 c 128,-1,17
 276.412109375 1057 276.412109375 1057 228.10546875 752 c 0,8,9
64.6865234375 -103 m 1,18,-1
 -20.869140625 -56 l 1,19,-1
 106.18359375 159 l 1,20,21
 15.54296875 357 15.54296875 357 78.10546875 752 c 0,22,23
 137.657226562 1128 137.657226562 1128 284.572265625 1329.5 c 128,-1,24
 431.486328125 1531 431.486328125 1531 647.486328125 1531 c 0,25,26
 782.486328125 1531 782.486328125 1531 866.182617188 1447 c 1,27,-1
 993.709960938 1665 l 1,28,-1
 1074.6328125 1614 l 1,29,-1
 928.194335938 1365 l 1,30,31
 1033.04296875 1162 1033.04296875 1162 968.10546875 752 c 0,32,33
 906.493164062 363 906.493164062 363 759.108398438 168 c 128,-1,34
 611.723632812 -27 611.723632812 -27 400.723632812 -27 c 0,35,36
 250.723632812 -27 250.723632812 -27 164.770507812 68 c 1,37,-1
 64.6865234375 -103 l 1,18,-1
EndSplineSet
EndChar

StartChar: OE
Encoding: 338 338 154
Width: 922
VWidth: 2441
GlyphClass: 1
Flags: HW
LayerCount: 2
Fore
SplineSet
261.907226562 132 m 0,0,1
 309.907226562 132 309.907226562 132 354.563476562 183.5 c 128,-1,2
 399.220703125 235 399.220703125 235 423.890625 315 c 1,3,-1
 561.52734375 1184 l 1,4,5
 555.1484375 1270 555.1484375 1270 531.1015625 1336 c 128,-1,6
 507.0546875 1402 507.0546875 1402 448.0546875 1402 c 0,7,8
 400.0546875 1402 400.0546875 1402 351.606445312 1345.5 c 128,-1,9
 303.157226562 1289 303.157226562 1289 257.142578125 1150 c 128,-1,10
 211.126953125 1011 211.126953125 1011 172.005859375 764 c 0,11,12
 124.490234375 464 124.490234375 464 147.698242188 298 c 128,-1,13
 170.907226562 132 170.907226562 132 261.907226562 132 c 0,0,1
221.307617188 -17 m 0,14,15
 84.3076171875 -17 84.3076171875 -17 30.6337890625 165 c 128,-1,16
 -23.041015625 347 -23.041015625 347 42.6884765625 762 c 0,17,18
 106.201171875 1163 106.201171875 1163 216.793945312 1353 c 128,-1,19
 327.38671875 1543 327.38671875 1543 470.38671875 1543 c 0,20,21
 510.38671875 1543 510.38671875 1543 545.298828125 1523.5 c 128,-1,22
 580.209960938 1504 580.209960938 1504 606.607421875 1456 c 1,23,-1
 617.219726562 1523 l 1,24,-1
 1053.21972656 1523 l 1,25,-1
 1029.62011719 1374 l 1,26,-1
 718.620117188 1374 l 1,27,-1
 638.635742188 869 l 1,28,-1
 902.635742188 869 l 1,29,-1
 878.719726562 718 l 1,30,-1
 614.719726562 718 l 1,31,-1
 524.599609375 149 l 1,32,-1
 831.599609375 149 l 1,33,-1
 808 0 l 1,34,-1
 374 0 l 1,35,-1
 385.5625 73 l 1,36,37
 344.80078125 24 344.80078125 24 305.0546875 3.5 c 128,-1,38
 265.307617188 -17 265.307617188 -17 221.307617188 -17 c 0,14,15
EndSplineSet
EndChar

StartChar: P
Encoding: 80 80 155
Width: 922
VWidth: 2441
GlyphClass: 2
Flags: HW
AnchorPoint: "Anchor-2" 111 0 basechar 0
AnchorPoint: "Anchor-0" 696.902 1521 basechar 0
LayerCount: 2
Fore
SplineSet
328.875 820 m 1,0,-1
 592.875 820 l 2,1,2
 741.875 820 741.875 820 820.516601562 893.5 c 128,-1,3
 899.158203125 967 899.158203125 967 918.322265625 1088 c 0,4,5
 937.169921875 1207 937.169921875 1207 882.682617188 1286 c 128,-1,6
 828.194335938 1365 828.194335938 1365 681.194335938 1365 c 2,7,-1
 415.194335938 1365 l 1,8,-1
 328.875 820 l 1,0,-1
32 0 m 1,9,-1
 272.90234375 1521 l 1,10,-1
 710.90234375 1521 l 2,11,12
 942.90234375 1521 942.90234375 1521 1027.58007812 1399 c 128,-1,13
 1112.25683594 1277 1112.25683594 1277 1083.27246094 1094 c 0,14,15
 1053.81347656 908 1053.81347656 908 931.044921875 789.5 c 128,-1,16
 808.276367188 671 808.276367188 671 588.276367188 671 c 2,17,-1
 305.276367188 671 l 1,18,-1
 199 0 l 1,19,-1
 32 0 l 1,9,-1
EndSplineSet
EndChar

StartChar: Thorn
Encoding: 222 222 156
Width: 922
VWidth: 2441
GlyphClass: 1
Flags: HW
LayerCount: 2
Fore
SplineSet
278.260742188 532 m 1,0,-1
 566.260742188 532 l 2,1,2
 710.260742188 532 710.260742188 532 784.193359375 610.5 c 128,-1,3
 858.126953125 689 858.126953125 689 875.866210938 801 c 128,-1,4
 893.60546875 913 893.60546875 913 840.013671875 994.5 c 128,-1,5
 786.421875 1076 786.421875 1076 637.421875 1076 c 2,6,-1
 364.421875 1076 l 1,7,-1
 278.260742188 532 l 1,0,-1
32 0 m 1,8,-1
 272.90234375 1521 l 1,9,-1
 454.90234375 1521 l 1,10,11
 459.110351562 1516 459.110351562 1516 457.793945312 1514 c 0,12,13
 456.685546875 1507 456.685546875 1507 444.651367188 1491 c 128,-1,14
 432.6171875 1475 432.6171875 1475 424.1328125 1453 c 1,15,-1
 389.288085938 1233 l 1,16,-1
 672.288085938 1233 l 2,17,18
 823.288085938 1233 823.288085938 1233 911.180664062 1175.5 c 128,-1,19
 999.07421875 1118 999.07421875 1118 1030.13085938 1020.5 c 128,-1,20
 1061.18847656 923 1061.18847656 923 1042.65820312 806 c 128,-1,21
 1024.12695312 689 1024.12695312 689 963.73828125 595 c 128,-1,22
 903.350585938 501 903.350585938 501 798.981445312 445 c 128,-1,23
 694.611328125 389 694.611328125 389 543.611328125 389 c 2,24,-1
 255.611328125 389 l 1,25,-1
 194 0 l 1,26,-1
 32 0 l 1,8,-1
EndSplineSet
EndChar

StartChar: Q
Encoding: 81 81 157
Width: 922
VWidth: 2388
GlyphClass: 2
Flags: HW
AnchorPoint: "Anchor-2" 422.779 87 basechar 0
AnchorPoint: "Anchor-0" 650.062 1522 basechar 0
LayerCount: 2
Fore
SplineSet
453.577148438 212 m 0,0,1
 522.577148438 212 522.577148438 212 598.129882812 266 c 128,-1,2
 673.682617188 320 673.682617188 320 737.84765625 441 c 128,-1,3
 802.01171875 562 802.01171875 562 834.005859375 764 c 0,4,5
 864.256835938 955 864.256835938 955 854.817382812 1078.5 c 128,-1,6
 845.377929688 1202 845.377929688 1202 810.46484375 1272 c 128,-1,7
 775.551757812 1342 775.551757812 1342 727.565429688 1370.5 c 128,-1,8
 679.580078125 1399 679.580078125 1399 632.580078125 1399 c 0,9,10
 532.580078125 1399 532.580078125 1399 453.622070312 1323.5 c 128,-1,11
 374.6640625 1248 374.6640625 1248 320.232421875 1119 c 128,-1,12
 265.80078125 990 265.80078125 990 240.775390625 832 c 0,13,14
 194.844726562 542 194.844726562 542 251.7109375 377 c 128,-1,15
 308.577148438 212 308.577148438 212 453.577148438 212 c 0,0,1
674.196289062 -245 m 1,16,17
 648.51953125 -246.407226562 648.51953125 -246.407226562 625.045898438 -246.407226562 c 0,18,19
 464.99609375 -246.407226562 464.99609375 -246.407226562 407.33203125 -181 c 0,20,21
 341.2109375 -106 341.2109375 -106 369.245117188 71 c 1,22,23
 269.096679688 89 269.096679688 89 192.504882812 170.5 c 128,-1,24
 115.913085938 252 115.913085938 252 84.462890625 407 c 128,-1,25
 53.01171875 562 53.01171875 562 90.232421875 797 c 0,26,27
 124.6015625 1014 124.6015625 1014 188.592773438 1156 c 128,-1,28
 252.583007812 1298 252.583007812 1298 333.966796875 1382.5 c 128,-1,29
 415.349609375 1467 415.349609375 1467 497.97265625 1502.5 c 128,-1,30
 580.595703125 1538 580.595703125 1538 654.595703125 1538 c 0,31,32
 768.595703125 1538 768.595703125 1538 859.875 1464 c 128,-1,33
 951.154296875 1390 951.154296875 1390 989.154296875 1229 c 0,34,35
 1024.90234375 1077.54101562 1024.90234375 1077.54101562 986.3359375 834.041992188 c 0,36,37
 983.907226562 818.704101562 983.907226562 818.704101562 981.182617188 803 c 1,38,39
 929.07421875 474 929.07421875 474 807.881835938 296 c 128,-1,40
 686.689453125 118 686.689453125 118 498.245117188 71 c 1,41,42
 490.208007812 -5 490.208007812 -5 511.026367188 -53.5 c 128,-1,43
 531.844726562 -102 531.844726562 -102 616.844726562 -102 c 1,44,-1
 781.270507812 -93 l 1,45,-1
 752.196289062 -245 l 1,46,-1
 674.196289062 -245 l 1,16,17
EndSplineSet
EndChar

StartChar: R
Encoding: 82 82 158
Width: 922
VWidth: 2441
GlyphClass: 2
Flags: HW
AnchorPoint: "Anchor-2" 450 0 basechar 0
AnchorPoint: "Anchor-0" 690.902 1521 basechar 0
LayerCount: 2
Fore
SplineSet
318.875 820 m 1,0,-1
 572.875 820 l 2,1,2
 712.875 820 712.875 820 791.016601562 893.5 c 128,-1,3
 869.158203125 967 869.158203125 967 888.322265625 1088 c 0,4,5
 907.645507812 1210 907.645507812 1210 852.919921875 1287.5 c 128,-1,6
 798.194335938 1365 798.194335938 1365 659.194335938 1365 c 2,7,-1
 405.194335938 1365 l 1,8,-1
 318.875 820 l 1,0,-1
26 0 m 1,9,-1
 266.90234375 1521 l 1,10,-1
 665.90234375 1521 l 2,11,12
 905.90234375 1521 905.90234375 1521 993.133789062 1402.5 c 128,-1,13
 1080.36523438 1284 1080.36523438 1284 1049.32226562 1088 c 0,14,15
 1034.90917969 997 1034.90917969 997 987.946289062 912 c 128,-1,16
 940.984375 827 940.984375 827 869.6640625 765 c 128,-1,17
 798.344726562 703 798.344726562 703 709.859375 681 c 1,18,-1
 916 0 l 1,19,-1
 741 0 l 1,20,-1
 542.750976562 674 l 1,21,-1
 295.750976562 674 l 1,22,-1
 189 0 l 1,23,-1
 26 0 l 1,9,-1
EndSplineSet
EndChar

StartChar: S
Encoding: 83 83 166
Width: 922
VWidth: 2441
GlyphClass: 2
Flags: HW
AnchorPoint: "Anchor-2" 448 0 basechar 0
AnchorPoint: "Anchor-0" 719.902 1521 basechar 0
LayerCount: 2
Fore
SplineSet
444.19921875 -24 m 0,0,1
 178.19921875 -24 178.19921875 -24 45.81640625 163 c 1,2,-1
 150 322 l 1,3,-1
 163.642578125 345 l 1,4,-1
 178.375976562 337 l 1,5,6
 182.366210938 318 182.366210938 318 183.302734375 295.5 c 128,-1,7
 184.239257812 273 184.239257812 273 205.329101562 242 c 1,8,9
 251.250976562 191 251.250976562 191 321.603515625 158.5 c 128,-1,10
 391.956054688 126 391.956054688 126 486.956054688 126 c 0,11,12
 608.956054688 126 608.956054688 126 700.755859375 200.5 c 128,-1,13
 792.555664062 275 792.555664062 275 810.928710938 391 c 0,14,15
 821.698242188 459 821.698242188 459 805.958984375 508 c 128,-1,16
 790.219726562 557 790.219726562 557 730.743164062 604.5 c 128,-1,17
 671.266601562 652 671.266601562 652 553.927734375 713 c 1,18,19
 353.658203125 806 353.658203125 806 291.29296875 920.5 c 128,-1,20
 228.927734375 1035 228.927734375 1035 249.517578125 1165 c 0,21,22
 277.235351562 1340 277.235351562 1340 403.573242188 1440 c 128,-1,23
 529.912109375 1540 529.912109375 1540 725.912109375 1540 c 0,24,25
 837.912109375 1540 837.912109375 1540 927.651367188 1491 c 128,-1,26
 1017.390625 1442 1017.390625 1442 1075.61132812 1355 c 1,27,-1
 968.704101562 1223 l 1,28,-1
 953.6953125 1204 l 1,29,-1
 940.803710938 1211 l 1,30,31
 938.8125 1230 938.8125 1230 936.796875 1252 c 128,-1,32
 934.782226562 1274 934.782226562 1274 915.533203125 1304 c 1,33,34
 870.0859375 1358 870.0859375 1358 814.912109375 1379 c 128,-1,35
 759.73828125 1400 759.73828125 1400 679.73828125 1400 c 0,36,37
 572.73828125 1400 572.73828125 1400 501.259765625 1337 c 128,-1,38
 429.782226562 1274 429.782226562 1274 414.418945312 1177 c 0,39,40
 403.6484375 1109 403.6484375 1109 422.095703125 1055 c 128,-1,41
 440.54296875 1001 440.54296875 1001 502.96484375 950 c 128,-1,42
 565.387695312 899 565.387695312 899 693.04296875 840 c 0,43,44
 818.381835938 779 818.381835938 779 883.32421875 715.5 c 128,-1,45
 948.266601562 652 948.266601562 652 966.86328125 580 c 128,-1,46
 985.458984375 508 985.458984375 508 970.729492188 415 c 0,47,48
 953.307617188 305 953.307617188 305 890.810546875 204 c 128,-1,49
 828.313476562 103 828.313476562 103 716.755859375 39.5 c 128,-1,50
 605.19921875 -24 605.19921875 -24 444.19921875 -24 c 0,0,1
EndSplineSet
EndChar

StartChar: uni1E9E
Encoding: 7838 7838 177
Width: 922
VWidth: 2441
GlyphClass: 1
Flags: HW
LayerCount: 2
Fore
SplineSet
517.19921875 -24 m 0,0,1
 384.19921875 -24 384.19921875 -24 297.760742188 49 c 1,2,-1
 369.459960938 186 l 1,3,4
 403.708007812 156 403.708007812 156 444.33203125 141 c 128,-1,5
 484.956054688 126 484.956054688 126 525.956054688 126 c 0,6,7
 631.956054688 126 631.956054688 126 720.736328125 213 c 128,-1,8
 809.515625 300 809.515625 300 835.490234375 464 c 0,9,10
 848.319335938 545 848.319335938 545 834.619140625 619.5 c 128,-1,11
 820.918945312 694 820.918945312 694 758.442382812 741.5 c 128,-1,12
 695.96484375 789 695.96484375 789 561.96484375 789 c 2,13,-1
 495.96484375 789 l 1,14,-1
 517.822265625 927 l 1,15,-1
 858.704101562 1223 l 1,16,17
 869.791015625 1293 869.791015625 1293 859.03125 1354.5 c 128,-1,18
 848.272460938 1416 848.272460938 1416 804.94921875 1455 c 128,-1,19
 761.625976562 1494 761.625976562 1494 678.625976562 1494 c 0,20,21
 611.625976562 1494 611.625976562 1494 547.137695312 1462.5 c 128,-1,22
 482.6484375 1431 482.6484375 1431 432.006835938 1357.5 c 128,-1,23
 381.365234375 1284 381.365234375 1284 361.725585938 1160 c 2,24,-1
 178 0 l 1,25,-1
 24 0 l 1,26,-1
 202.657226562 1128 l 2,27,28
 233.225585938 1321 233.225585938 1321 312.069335938 1430.5 c 128,-1,29
 390.912109375 1540 390.912109375 1540 493.77734375 1586.5 c 128,-1,30
 596.641601562 1633 596.641601562 1633 700.641601562 1633 c 0,31,32
 828.641601562 1633 828.641601562 1633 903.375976562 1574.5 c 128,-1,33
 978.110351562 1516 978.110351562 1516 1004.66796875 1418.5 c 128,-1,34
 1031.22558594 1321 1031.22558594 1321 1012.6953125 1204 c 1,35,-1
 673.713867188 920 l 1,36,37
 856.387695312 899 856.387695312 899 937.619140625 780.5 c 128,-1,38
 1018.85058594 662 1018.85058594 662 984.005859375 442 c 0,39,40
 958.189453125 279 958.189453125 279 888.637695312 174.5 c 128,-1,41
 819.086914062 70 819.086914062 70 721.142578125 23 c 128,-1,42
 623.19921875 -24 623.19921875 -24 517.19921875 -24 c 0,0,1
EndSplineSet
EndChar

StartChar: T
Encoding: 84 84 179
Width: 922
VWidth: 2441
GlyphClass: 2
Flags: HW
AnchorPoint: "Anchor-4" 530.688 762 basechar 0
AnchorPoint: "Anchor-2" 421 0 basechar 0
AnchorPoint: "Anchor-0" 661.902 1521 basechar 0
LayerCount: 2
Fore
SplineSet
331 0 m 1,0,-1
 548.303710938 1372 l 1,1,-1
 187.303710938 1372 l 1,2,-1
 211.219726562 1523 l 1,3,-1
 1101.21972656 1523 l 1,4,-1
 1077.30371094 1372 l 1,5,-1
 701.303710938 1372 l 1,6,-1
 484 0 l 1,7,-1
 331 0 l 1,0,-1
EndSplineSet
EndChar

StartChar: Tbar
Encoding: 358 358 180
Width: 922
VWidth: 2441
GlyphClass: 2
Flags: HW
AnchorPoint: "Anchor-4" 530.688 762 basechar 0
AnchorPoint: "Anchor-2" 421 0 basechar 0
AnchorPoint: "Anchor-0" 661.902 1521 basechar 0
LayerCount: 2
Fore
SplineSet
331 0 m 1,0,-1
 440.443359375 691 l 1,1,-1
 196.443359375 691 l 1,2,-1
 218.458984375 830 l 1,3,-1
 462.458984375 830 l 1,4,-1
 548.303710938 1372 l 1,5,-1
 187.303710938 1372 l 1,6,-1
 211.219726562 1523 l 1,7,-1
 1101.21972656 1523 l 1,8,-1
 1077.30371094 1372 l 1,9,-1
 701.303710938 1372 l 1,10,-1
 615.458984375 830 l 1,11,-1
 886.458984375 830 l 1,12,-1
 864.443359375 691 l 1,13,-1
 593.443359375 691 l 1,14,-1
 484 0 l 1,15,-1
 331 0 l 1,0,-1
EndSplineSet
EndChar

StartChar: U
Encoding: 85 85 186
Width: 922
VWidth: 2441
GlyphClass: 2
Flags: HW
AnchorPoint: "Anchor-3" 573.801 24 basechar 0
AnchorPoint: "Anchor-2" 456 0 basechar 0
AnchorPoint: "Anchor-1" 1145.9 1521 basechar 0
AnchorPoint: "Anchor-0" 696.902 1521 basechar 0
LayerCount: 2
Fore
SplineSet
453.723632812 -27 m 0,0,1
 229.723632812 -27 229.723632812 -27 142.9765625 113.5 c 128,-1,2
 56.2294921875 254 56.2294921875 254 97.568359375 515 c 2,3,-1
 256.90234375 1521 l 1,4,-1
 437.90234375 1521 l 1,5,-1
 435.209960938 1504 l 1,6,7
 418.993164062 1490 418.993164062 1490 411.799804688 1473 c 128,-1,8
 404.607421875 1456 404.607421875 1456 397.956054688 1414 c 2,9,-1
 255.250976562 513 l 2,10,11
 225.791992188 327 225.791992188 327 272.923828125 220.5 c 128,-1,12
 320.055664062 114 320.055664062 114 478.055664062 114 c 0,13,14
 639.055664062 114 639.055664062 114 720.3984375 223.5 c 128,-1,15
 801.7421875 333 801.7421875 333 831.360351562 520 c 2,16,-1
 989.90234375 1521 l 1,17,-1
 1145.90234375 1521 l 1,18,-1
 987.676757812 522 l 2,19,20
 942.061523438 234 942.061523438 234 801.392578125 103.5 c 128,-1,21
 660.723632812 -27 660.723632812 -27 453.723632812 -27 c 0,0,1
EndSplineSet
EndChar

StartChar: V
Encoding: 86 86 209
Width: 922
VWidth: 2441
GlyphClass: 2
Flags: HW
AnchorPoint: "Anchor-2" 398 0 basechar 0
AnchorPoint: "Anchor-0" 638.902 1521 basechar 0
LayerCount: 2
Fore
SplineSet
367.416015625 -10 m 1,0,-1
 197.219726562 1523 l 1,1,-1
 345.219726562 1523 l 1,2,-1
 472.077148438 373 l 1,3,-1
 944.90234375 1521 l 1,4,-1
 1086.90234375 1521 l 1,5,-1
 438.416015625 -10 l 1,6,-1
 367.416015625 -10 l 1,0,-1
EndSplineSet
EndChar

StartChar: W
Encoding: 87 87 210
Width: 922
VWidth: 2441
GlyphClass: 2
Flags: HW
AnchorPoint: "Anchor-2" 387 0 basechar 0
AnchorPoint: "Anchor-0" 637.902 1521 basechar 0
LayerCount: 2
Fore
SplineSet
126 0 m 1,0,-1
 178.90234375 1521 l 1,1,-1
 306.90234375 1521 l 1,2,-1
 270.884765625 517 l 1,3,-1
 598.1640625 1409 l 1,4,-1
 644.1640625 1409 l 1,5,-1
 688.250976562 513 l 1,6,-1
 952.90234375 1521 l 1,7,-1
 1068.90234375 1521 l 1,8,-1
 641 0 l 1,9,-1
 587 0 l 1,10,-1
 544.05859375 979 l 1,11,-1
 185 0 l 1,12,-1
 126 0 l 1,0,-1
EndSplineSet
EndChar

StartChar: X
Encoding: 88 88 215
Width: 922
VWidth: 2441
GlyphClass: 2
Flags: HW
AnchorPoint: "Anchor-2" 428 0 basechar 0
AnchorPoint: "Anchor-0" 668.902 1521 basechar 0
LayerCount: 2
Fore
SplineSet
-8 0 m 1,0,-1
 464.90625 776 l 1,1,-1
 240.219726562 1523 l 1,2,-1
 402.219726562 1523 l 1,3,-1
 579.256835938 955 l 1,4,-1
 933.219726562 1523 l 1,5,-1
 1083.21972656 1523 l 1,6,-1
 642.22265625 778 l 1,7,-1
 882 0 l 1,8,-1
 713 0 l 1,9,-1
 524.080078125 594 l 1,10,-1
 154 0 l 1,11,-1
 -8 0 l 1,0,-1
EndSplineSet
EndChar

StartChar: Y
Encoding: 89 89 216
Width: 922
VWidth: 2441
GlyphClass: 2
Flags: HW
AnchorPoint: "Anchor-2" 421 0 basechar 0
AnchorPoint: "Anchor-0" 646.902 1521 basechar 0
LayerCount: 2
Fore
SplineSet
343 0 m 1,0,-1
 437.397460938 596 l 1,1,-1
 201.90234375 1521 l 1,2,-1
 368.90234375 1521 l 1,3,-1
 552.756835938 794 l 1,4,-1
 938.90234375 1521 l 1,5,-1
 1091.90234375 1521 l 1,6,-1
 595.397460938 596 l 1,7,-1
 501 0 l 1,8,-1
 343 0 l 1,0,-1
EndSplineSet
EndChar

StartChar: Z
Encoding: 90 90 226
Width: 922
VWidth: 2441
GlyphClass: 2
Flags: HW
AnchorPoint: "Anchor-2" 488 0 basechar 0
AnchorPoint: "Anchor-0" 705.902 1521 basechar 0
LayerCount: 2
Fore
SplineSet
31.53125 117 m 1,0,-1
 902.986328125 1370 l 1,1,-1
 256.986328125 1370 l 1,2,-1
 280.90234375 1521 l 1,3,-1
 1107.90234375 1521 l 1,4,-1
 1089.37207031 1404 l 1,5,-1
 230.599609375 149 l 1,6,-1
 821.599609375 149 l 2,7,8
 860.599609375 149 860.599609375 149 878.891601562 154 c 128,-1,9
 897.18359375 159 897.18359375 159 914.400390625 173 c 1,10,-1
 930.400390625 173 l 1,11,-1
 903 0 l 1,12,-1
 13 0 l 1,13,-1
 31.53125 117 l 1,0,-1
EndSplineSet
EndChar

StartChar: a
Encoding: 97 97 232
Width: 922
VWidth: 2441
GlyphClass: 2
Flags: HW
AnchorPoint: "Anchor-3" 758 0 basechar 0
AnchorPoint: "Anchor-2" 448 0 basechar 0
AnchorPoint: "Anchor-0" 631.965 1111 basechar 0
LayerCount: 2
Fore
SplineSet
220.40625 293 m 0,0,1
 204.092773438 190 204.092773438 190 258.020507812 148.5 c 128,-1,2
 311.947265625 107 311.947265625 107 400.947265625 107 c 0,3,4
 559.947265625 107 559.947265625 107 669.973632812 214.5 c 128,-1,5
 780 322 780 322 820.676757812 522 c 1,6,7
 770.78515625 529 770.78515625 529 718.15625 534.5 c 128,-1,8
 665.52734375 540 665.52734375 540 616.52734375 540 c 0,9,10
 457.52734375 540 457.52734375 540 349.420898438 482.5 c 128,-1,11
 241.313476562 425 241.313476562 425 220.40625 293 c 0,0,1
365.723632812 -27 m 0,12,13
 192.723632812 -27 192.723632812 -27 114.661132812 61 c 128,-1,14
 36.599609375 149 36.599609375 149 57.9814453125 284 c 0,15,16
 77.9375 410 77.9375 410 159.137695312 496.5 c 128,-1,17
 240.337890625 583 240.337890625 583 361.806640625 627 c 128,-1,18
 483.276367188 671 483.276367188 671 625.276367188 671 c 0,19,20
 674.276367188 671 674.276367188 671 728.221679688 667.5 c 128,-1,21
 782.166992188 664 782.166992188 664 842.05859375 657 c 1,22,23
 861.1015625 853 861.1015625 853 798.005859375 925 c 128,-1,24
 734.909179688 997 734.909179688 997 588.909179688 997 c 0,25,26
 437.909179688 997 437.909179688 997 301.219726562 879 c 1,27,-1
 241.958984375 991 l 1,28,29
 407.55859375 1140 407.55859375 1140 621.55859375 1140 c 0,30,31
 758.55859375 1140 758.55859375 1140 849.297851562 1091 c 128,-1,32
 940.036132812 1042 940.036132812 1042 974.84765625 924 c 128,-1,33
 1009.65820312 806 1009.65820312 806 976.080078125 594 c 2,34,-1
 882 0 l 1,35,-1
 709 0 l 1,36,-1
 735.92578125 170 l 1,37,38
 686.096679688 89 686.096679688 89 621.444335938 47 c 128,-1,39
 556.791992188 5 556.791992188 5 490.2578125 -11 c 128,-1,40
 423.723632812 -27 423.723632812 -27 365.723632812 -27 c 0,12,13
EndSplineSet
Substitution2: "Single Substitution lookup 29 subtable" ordfeminine
Substitution2: "'aalt' Access All Alternates in Latin lookup 0 subtable" ordfeminine
EndChar

StartChar: ae
Encoding: 230 230 257
Width: 922
VWidth: 2441
GlyphClass: 1
Flags: HW
LayerCount: 2
Fore
SplineSet
184.84765625 119 m 0,0,1
 247.84765625 119 247.84765625 119 285.796875 175.5 c 128,-1,2
 323.745117188 232 323.745117188 232 345.791992188 327 c 128,-1,3
 367.837890625 422 367.837890625 422 385.735351562 535 c 1,4,5
 241.151367188 525 241.151367188 525 176.390625 476 c 128,-1,6
 111.629882812 427 111.629882812 427 91.1982421875 298 c 0,7,8
 74.884765625 195 74.884765625 195 100.366210938 157 c 128,-1,9
 125.84765625 119 125.84765625 119 184.84765625 119 c 0,0,1
528.859375 681 m 1,10,-1
 793.918945312 694 l 1,11,12
 818.309570312 848 818.309570312 848 802.6640625 926 c 128,-1,13
 787.017578125 1004 787.017578125 1004 722.017578125 1004 c 0,14,15
 654.017578125 1004 654.017578125 1004 603.79296875 920.5 c 128,-1,16
 553.567382812 837 553.567382812 837 528.859375 681 c 1,10,-1
155.723632812 -27 m 0,17,18
 24.7236328125 -27 24.7236328125 -27 -16.2294921875 68 c 128,-1,19
 -57.18359375 163 -57.18359375 163 -35.484375 300 c 0,20,21
 20.900390625 656 20.900390625 656 408.384765625 678 c 1,22,23
 433.567382812 837 433.567382812 837 415.29296875 920.5 c 128,-1,24
 397.017578125 1004 397.017578125 1004 319.017578125 1004 c 0,25,26
 237.017578125 1004 237.017578125 1004 165.1796875 904 c 1,27,-1
 116.126953125 1011 l 1,28,29
 215.94921875 1140.0078125 215.94921875 1140.0078125 346.546875 1140.0078125 c 0,30,31
 347.551757812 1140.0078125 347.551757812 1140.0078125 348.55859375 1140 c 0,32,33
 416.55859375 1140 416.55859375 1140 464.22265625 1100 c 128,-1,34
 511.887695312 1060 511.887695312 1060 528.958984375 991 c 1,35,36
 570.729492188 1059 570.729492188 1059 630.143554688 1099.5 c 128,-1,37
 689.55859375 1140 689.55859375 1140 745.55859375 1140 c 0,38,39
 870.55859375 1140 870.55859375 1140 905.1015625 1014 c 128,-1,40
 939.645507812 888 939.645507812 888 902.583007812 654 c 2,41,-1
 887.853515625 561 l 1,42,-1
 507.63671875 547 l 1,43,-1
 488.629882812 427 l 2,44,45
 466.139648438 285 466.139648438 285 501.939453125 198.5 c 128,-1,46
 537.739257812 112 537.739257812 112 625.739257812 112 c 0,47,48
 709.739257812 112 709.739257812 112 771.676757812 200 c 1,49,-1
 822.521484375 98 l 1,50,51
 720.881835938 -26 720.881835938 -26 592.723632812 -27 c 0,52,53
 522.723632812 -27 522.723632812 -27 466.455078125 15.5 c 128,-1,54
 410.186523438 58 410.186523438 58 387.381835938 135 c 1,55,56
 344.502929688 60 344.502929688 60 283.11328125 16.5 c 128,-1,57
 221.723632812 -27 221.723632812 -27 155.723632812 -27 c 0,17,18
EndSplineSet
EndChar

StartChar: b
Encoding: 98 98 259
Width: 922
VWidth: 2441
GlyphClass: 2
Flags: HW
AnchorPoint: "Anchor-2" 516 0 basechar 0
AnchorPoint: "Anchor-0" 692.757 1116 basechar 0
LayerCount: 2
Fore
SplineSet
491.956054688 126 m 0,0,1
 561.956054688 126 561.956054688 126 631.0546875 164.5 c 128,-1,2
 700.15234375 203 700.15234375 203 754.040039062 297 c 128,-1,3
 807.928710938 391 807.928710938 391 834.537109375 559 c 0,4,5
 871.282226562 791 871.282226562 791 812.858398438 892.5 c 128,-1,6
 754.434570312 994 754.434570312 994 636.434570312 994 c 0,7,8
 514.434570312 994 514.434570312 994 419.561523438 878 c 128,-1,9
 324.688476562 762 324.688476562 762 291.745117188 554 c 0,10,11
 260.068359375 354 260.068359375 354 302.512695312 240 c 128,-1,12
 344.956054688 126 344.956054688 126 491.956054688 126 c 0,0,1
490.723632812 -27 m 0,13,14
 397.723632812 -27 397.723632812 -27 328.088867188 19.5 c 128,-1,15
 258.453125 66 258.453125 66 222.282226562 147 c 1,16,-1
 148 0 l 1,17,-1
 38 0 l 1,18,-1
 295.216796875 1624 l 1,19,-1
 480.216796875 1624 l 1,20,-1
 477.5234375 1607 l 1,21,22
 463.306640625 1593 463.306640625 1593 457.03515625 1575.5 c 128,-1,23
 450.762695312 1558 450.762695312 1558 444.110351562 1516 c 2,24,-1
 353.672851562 945 l 1,25,26
 414.403320312 1038 414.403320312 1038 508.138671875 1090 c 128,-1,27
 601.875 1142 601.875 1142 684.875 1142 c 0,28,29
 868.875 1142 868.875 1142 960.755859375 1005.5 c 128,-1,30
 1052.63574219 869 1052.63574219 869 1005.12109375 569 c 0,31,32
 971.860351562 359 971.860351562 359 889.690429688 228.5 c 128,-1,33
 807.521484375 98 807.521484375 98 701.623046875 35.5 c 128,-1,34
 595.723632812 -27 595.723632812 -27 490.723632812 -27 c 0,13,14
EndSplineSet
EndChar

StartChar: c
Encoding: 99 99 261
Width: 922
VWidth: 2441
GlyphClass: 2
Flags: HW
AnchorPoint: "Anchor-2" 533 0 basechar 0
AnchorPoint: "Anchor-0" 709.757 1116 basechar 0
LayerCount: 2
Fore
SplineSet
526.723632812 -27 m 0,0,1
 377.723632812 -27 377.723632812 -27 275.786132812 46 c 128,-1,2
 173.84765625 119 173.84765625 119 131.333984375 251.5 c 128,-1,3
 88.8193359375 384 88.8193359375 384 116.219726562 557 c 0,4,5
 144.571289062 736 144.571289062 736 231.240234375 866.5 c 128,-1,6
 317.909179688 997 317.909179688 997 441.99609375 1067 c 128,-1,7
 566.083007812 1137 566.083007812 1137 708.083007812 1137 c 0,8,9
 832.083007812 1137 832.083007812 1137 923.267578125 1084.5 c 128,-1,10
 1014.453125 1032 1014.453125 1032 1058.72265625 939 c 1,11,-1
 941.775390625 832 l 1,12,-1
 922.766601562 813 l 1,13,-1
 912.666992188 825 l 1,14,15
 913.676757812 844 913.676757812 844 909.106445312 862.5 c 128,-1,16
 904.537109375 881 904.537109375 881 882.60546875 913 c 1,17,18
 843.57421875 957 843.57421875 957 792.50390625 975.5 c 128,-1,19
 741.434570312 994 741.434570312 994 671.434570312 994 c 0,20,21
 588.434570312 994 588.434570312 994 508.172851562 945 c 128,-1,22
 427.912109375 896 427.912109375 896 368.366210938 801 c 128,-1,23
 308.819335938 706 308.819335938 706 286.645507812 566 c 0,24,25
 254.493164062 363 254.493164062 363 332.224609375 244.5 c 128,-1,26
 409.956054688 126 409.956054688 126 559.956054688 126 c 0,27,28
 713.956054688 126 713.956054688 126 843.021484375 259 c 1,29,-1
 915.698242188 137 l 1,30,31
 743.723632812 -27 743.723632812 -27 526.723632812 -27 c 0,0,1
EndSplineSet
EndChar

StartChar: d
Encoding: 100 100 268
Width: 922
VWidth: 2441
GlyphClass: 2
Flags: HW
AnchorPoint: "Anchor-4" 910.235 1340 basechar 0
AnchorPoint: "Anchor-2" 456 0 basechar 0
AnchorPoint: "Anchor-1" 1114.76 1116 basechar 0
AnchorPoint: "Anchor-0" 632.757 1116 basechar 0
LayerCount: 2
Fore
SplineSet
463.956054688 126 m 0,0,1
 602.956054688 126 602.956054688 126 681.462890625 246 c 128,-1,2
 759.96875 366 759.96875 366 791.329101562 564 c 128,-1,3
 822.688476562 762 822.688476562 762 775.616210938 881.5 c 128,-1,4
 728.54296875 1001 728.54296875 1001 589.54296875 1001 c 0,5,6
 457.54296875 1001 457.54296875 1001 372.650390625 897.5 c 128,-1,7
 287.756835938 794 287.756835938 794 256.397460938 596 c 0,8,9
 219.65234375 364 219.65234375 364 274.303710938 245 c 128,-1,10
 328.956054688 126 328.956054688 126 463.956054688 126 c 0,0,1
412.19921875 -24 m 0,11,12
 309.19921875 -24 309.19921875 -24 224.860351562 37 c 128,-1,13
 140.521484375 98 140.521484375 98 100.690429688 228.5 c 128,-1,14
 60.8603515625 359 60.8603515625 359 94.12109375 569 c 128,-1,15
 127.381835938 779 127.381835938 779 209.416992188 905.5 c 128,-1,16
 291.453125 1032 291.453125 1032 397.98046875 1089 c 128,-1,17
 504.508789062 1146 504.508789062 1146 607.508789062 1146 c 0,18,19
 712.508789062 1146 712.508789062 1146 777.272460938 1094 c 128,-1,20
 842.036132812 1042 842.036132812 1042 865.256835938 955 c 1,21,-1
 971.216796875 1624 l 1,22,-1
 1146.21679688 1624 l 1,23,-1
 1143.5234375 1607 l 1,24,25
 1127.30664062 1593 1127.30664062 1593 1121.03515625 1575.5 c 128,-1,26
 1114.76269531 1558 1114.76269531 1558 1108.11035156 1516 c 2,27,-1
 897.400390625 173 l 2,28,29
 890.431640625 129 890.431640625 129 886.200195312 86.5 c 128,-1,30
 881.96875 44 881.96875 44 892 0 c 1,31,-1
 731 0 l 1,32,33
 720.65234375 42 720.65234375 42 723.645507812 83 c 128,-1,34
 726.639648438 124 726.639648438 124 733.608398438 168 c 1,35,36
 673.987304688 82 673.987304688 82 592.092773438 29 c 128,-1,37
 510.19921875 -24 510.19921875 -24 412.19921875 -24 c 0,11,12
EndSplineSet
EndChar

StartChar: eth
Encoding: 240 240 269
Width: 922
VWidth: 2441
GlyphClass: 1
Flags: HW
LayerCount: 2
Fore
SplineSet
466.53125 117 m 0,0,1
 538.53125 117 538.53125 117 608 161 c 128,-1,2
 677.46875 205 677.46875 205 732.6484375 304 c 128,-1,3
 787.829101562 403 787.829101562 403 813.645507812 566 c 0,4,5
 838.829101562 725 838.829101562 725 810.716796875 819 c 128,-1,6
 782.60546875 913 782.60546875 913 724.756835938 955 c 128,-1,7
 666.909179688 997 666.909179688 997 600.909179688 997 c 0,8,9
 530.909179688 997 530.909179688 997 457.543945312 950.5 c 128,-1,10
 384.1796875 904 384.1796875 904 327.553710938 808.5 c 128,-1,11
 270.927734375 713 270.927734375 713 247.645507812 566 c 0,12,13
 213.592773438 351 213.592773438 351 280.061523438 234 c 128,-1,14
 346.53125 117 346.53125 117 466.53125 117 c 0,0,1
443.248046875 -30 m 0,15,16
 321.248046875 -30 321.248046875 -30 228.334960938 40 c 128,-1,17
 135.421875 110 135.421875 110 92.353515625 239 c 128,-1,18
 49.28515625 368 49.28515625 368 77.3193359375 545 c 0,19,20
 105.037109375 720 105.037109375 720 187.260742188 854 c 128,-1,21
 269.483398438 988 269.483398438 988 379.021484375 1064 c 128,-1,22
 488.55859375 1140 488.55859375 1140 599.55859375 1140 c 0,23,24
 766.55859375 1140 766.55859375 1140 844.551757812 1020 c 1,25,26
 825.96484375 1111 825.96484375 1111 795.373046875 1192.5 c 128,-1,27
 764.782226562 1274 764.782226562 1274 717.34375 1347 c 1,28,-1
 437.880859375 1262 l 1,29,-1
 414.095703125 1377 l 1,30,-1
 642.865234375 1445 l 1,31,32
 603.151367188 1491 603.151367188 1491 555.407226562 1530.5 c 128,-1,33
 507.663085938 1570 507.663085938 1570 451.573242188 1601 c 1,34,-1
 634.75 1640 l 1,35,36
 676.682617188 1608 676.682617188 1608 716.401367188 1571.5 c 128,-1,37
 756.120117188 1535 756.120117188 1535 793.833984375 1489 c 1,38,-1
 1034.08007812 1560 l 1,39,-1
 1055.1328125 1453 l 1,40,-1
 863.788085938 1394 l 1,41,42
 959.080078125 1238 959.080078125 1238 987.907226562 1047.5 c 128,-1,43
 1016.73535156 857 1016.73535156 857 978.723632812 617 c 0,44,45
 929.307617188 305 929.307617188 305 792.278320312 137.5 c 128,-1,46
 655.248046875 -30 655.248046875 -30 443.248046875 -30 c 0,15,16
EndSplineSet
EndChar

StartChar: dcaron
Encoding: 271 271 270
Width: 922
VWidth: 2441
GlyphClass: 1
Flags: HW
LayerCount: 2
Fore
SplineSet
314.639648438 124 m 0,0,1
 492.639648438 124 492.639648438 124 562.329101562 564 c 0,2,3
 631.225585938 999 631.225585938 999 448.225585938 999 c 0,4,5
 357.225585938 999 357.225585938 999 295.154296875 907 c 128,-1,6
 233.083007812 815 233.083007812 815 198.397460938 596 c 0,7,8
 170.045898438 417 170.045898438 417 177.811523438 314.5 c 128,-1,9
 185.577148438 212 185.577148438 212 221.108398438 168 c 128,-1,10
 256.639648438 124 256.639648438 124 314.639648438 124 c 0,0,1
265.19921875 -24 m 0,11,12
 189.19921875 -24 189.19921875 -24 130.671875 29.5 c 128,-1,13
 72.1455078125 83 72.1455078125 83 50.15625 212.5 c 128,-1,14
 28.1669921875 342 28.1669921875 342 64.12109375 569 c 0,15,16
 99.2822265625 791 99.2822265625 791 161.659179688 916.5 c 128,-1,17
 224.036132812 1042 224.036132812 1042 302.272460938 1094 c 128,-1,18
 380.508789062 1146 380.508789062 1146 460.508789062 1146 c 0,19,20
 615.508789062 1146 615.508789062 1146 631.682617188 964 c 1,21,-1
 736.216796875 1624 l 1,22,-1
 888.216796875 1624 l 1,23,-1
 885.5234375 1607 l 1,24,25
 870.306640625 1593 870.306640625 1593 863.53515625 1575.5 c 128,-1,26
 856.762695312 1558 856.762695312 1558 850.110351562 1516 c 2,27,-1
 637.400390625 173 l 2,28,29
 630.431640625 129 630.431640625 129 626.200195312 86.5 c 128,-1,30
 621.96875 44 621.96875 44 627 0 c 1,31,-1
 495 0 l 1,32,33
 489.860351562 37 489.860351562 37 491.299804688 74.5 c 128,-1,34
 492.739257812 112 492.739257812 112 499.708007812 156 c 1,35,36
 456.1953125 77 456.1953125 77 396.697265625 26.5 c 128,-1,37
 337.19921875 -24 337.19921875 -24 265.19921875 -24 c 0,11,12
1033.32519531 1631 m 0,38,39
 1069.32519531 1631 1069.32519531 1631 1090.20214844 1595.5 c 128,-1,40
 1111.08007812 1560 1111.08007812 1560 1102.20996094 1504 c 0,41,42
 1090.33105469 1429 1090.33105469 1429 1032.17578125 1327 c 128,-1,43
 974.020507812 1225 974.020507812 1225 907.55859375 1140 c 1,44,-1
 854.319335938 1189 l 1,45,46
 889.971679688 1231 889.971679688 1231 924.311523438 1280.5 c 128,-1,47
 958.651367188 1330 958.651367188 1330 966.887695312 1382 c 0,48,49
 970.688476562 1406 970.688476562 1406 957.0390625 1424 c 128,-1,50
 943.390625 1442 943.390625 1442 930.770507812 1466.5 c 128,-1,51
 918.151367188 1491 918.151367188 1491 924.803710938 1533 c 0,52,53
 930.663085938 1570 930.663085938 1570 959.994140625 1600.5 c 128,-1,54
 989.325195312 1631 989.325195312 1631 1033.32519531 1631 c 0,38,39
EndSplineSet
EndChar

StartChar: e
Encoding: 101 101 274
Width: 922
VWidth: 2441
GlyphClass: 2
Flags: HW
AnchorPoint: "Anchor-3" 610.326 21 basechar 0
AnchorPoint: "Anchor-2" 523 0 basechar 0
AnchorPoint: "Anchor-0" 651.757 1116 basechar 0
LayerCount: 2
Fore
SplineSet
282.958984375 669 m 1,0,-1
 822.958984375 669 l 1,1,2
 848.458984375 830 848.458984375 830 795.29296875 920.5 c 128,-1,3
 742.126953125 1011 742.126953125 1011 623.126953125 1011 c 0,4,5
 518.126953125 1011 518.126953125 1011 425.614257812 932 c 128,-1,6
 333.1015625 853 333.1015625 853 282.958984375 669 c 1,0,-1
500.19921875 -24 m 0,7,8
 276.19921875 -24 276.19921875 -24 165.6640625 121 c 128,-1,9
 55.1298828125 266 55.1298828125 266 100.745117188 554 c 0,10,11
 131.788085938 750 131.788085938 750 213.95703125 880.5 c 128,-1,12
 296.126953125 1011 296.126953125 1011 410.000976562 1076.5 c 128,-1,13
 523.875 1142 523.875 1142 655.875 1142 c 0,14,15
 772.875 1142 772.875 1142 855.6640625 1087 c 128,-1,16
 938.453125 1032 938.453125 1032 973.659179688 916.5 c 128,-1,17
 1008.86621094 801 1008.86621094 801 979.08984375 613 c 0,18,19
 975.763671875 592 975.763671875 592 971.75390625 573 c 128,-1,20
 967.745117188 554 967.745117188 554 962.260742188 532 c 1,21,-1
 256.260742188 532 l 1,22,23
 228.099609375 310 228.099609375 310 308.077148438 212 c 128,-1,24
 388.055664062 114 388.055664062 114 525.055664062 114 c 0,25,26
 681.055664062 114 681.055664062 114 800.220703125 235 c 1,27,-1
 878.490234375 142 l 1,28,29
 719.19921875 -24 719.19921875 -24 500.19921875 -24 c 0,7,8
EndSplineSet
EndChar

StartChar: uni029A
Encoding: 666 666 296
Width: 922
VWidth: 2441
GlyphClass: 1
Flags: HW
LayerCount: 2
Fore
SplineSet
440.639648438 124 m 0,0,1
 578.639648438 124 578.639648438 124 677.903320312 233 c 128,-1,2
 777.166992188 342 777.166992188 342 811.853515625 561 c 0,3,4
 844.322265625 766 844.322265625 766 784.116210938 881.5 c 128,-1,5
 723.909179688 997 723.909179688 997 587.909179688 997 c 0,6,7
 488.909179688 997 488.909179688 997 435.043945312 950.5 c 128,-1,8
 381.1796875 904 381.1796875 904 368.984375 827 c 0,9,10
 358.213867188 759 358.213867188 759 394.482421875 716.5 c 128,-1,11
 430.750976562 674 430.750976562 674 536.750976562 674 c 0,12,13
 550.750976562 674 550.750976562 674 563.250976562 674 c 128,-1,14
 575.750976562 674 575.750976562 674 590.068359375 676 c 1,15,-1
 564.884765625 517 l 1,16,17
 544.201171875 519 544.201171875 519 526.176757812 522 c 128,-1,18
 508.151367188 525 508.151367188 525 487.151367188 525 c 0,19,20
 390.151367188 525 390.151367188 525 317.049804688 477 c 128,-1,21
 243.947265625 429 243.947265625 429 229.05859375 335 c 0,22,23
 213.537109375 237 213.537109375 237 274.088867188 180.5 c 128,-1,24
 334.639648438 124 334.639648438 124 440.639648438 124 c 0,0,1
417.990234375 -19 m 0,25,26
 295.307617188 -17 295.307617188 -17 208.568359375 32 c 128,-1,27
 121.829101562 81 121.829101562 81 81.974609375 164 c 128,-1,28
 42.12109375 247 42.12109375 247 58.2763671875 349 c 0,29,30
 74.58984375 452 74.58984375 452 138.834960938 523 c 128,-1,31
 203.080078125 594 203.080078125 594 293.40625 615 c 1,32,33
 173.552734375 698 173.552734375 698 196.04296875 840 c 0,34,35
 217.741210938 977 217.741210938 977 338.150390625 1058.5 c 128,-1,36
 458.55859375 1140 458.55859375 1140 618.55859375 1140 c 0,37,38
 828.55859375 1140 828.55859375 1140 926.112304688 982.5 c 128,-1,39
 1023.66699219 825 1023.66699219 825 981.537109375 559 c 0,40,41
 953.819335938 384 953.819335938 384 874.571289062 253 c 128,-1,42
 795.323242188 122 795.323242188 122 678.157226562 51.5 c 128,-1,43
 560.990234375 -19 560.990234375 -19 417.990234375 -19 c 0,25,26
EndSplineSet
EndChar

StartChar: f
Encoding: 102 102 300
Width: 922
VWidth: 2441
GlyphClass: 1
Flags: HW
LayerCount: 2
Fore
SplineSet
401.375 981 m 1,0,-1
 191.375 981 l 1,1,-1
 212.756835938 1116 l 1,2,-1
 422.756835938 1116 l 1,3,-1
 437.486328125 1209 l 2,4,5
 472.96484375 1433 472.96484375 1433 593.69921875 1535.5 c 128,-1,6
 714.43359375 1638 714.43359375 1638 871.43359375 1638 c 0,7,8
 965.43359375 1638 965.43359375 1638 1042.99414062 1600.5 c 128,-1,9
 1120.5546875 1563 1120.5546875 1563 1161.04296875 1484 c 1,10,-1
 1058.40332031 1360 l 1,11,-1
 1040.23535156 1340 l 1,12,-1
 1027.97753906 1351 l 1,13,14
 1025.98632812 1370 1025.98632812 1370 1024.73339844 1390.5 c 128,-1,15
 1023.48046875 1411 1023.48046875 1411 1003.07324219 1440 c 0,16,17
 972.6171875 1475 972.6171875 1475 940.254882812 1488.5 c 128,-1,18
 907.893554688 1502 907.893554688 1502 854.893554688 1502 c 0,19,20
 760.893554688 1502 760.893554688 1502 688.702148438 1434.5 c 128,-1,21
 616.51171875 1367 616.51171875 1367 591.486328125 1209 c 2,22,-1
 576.756835938 1116 l 1,23,-1
 896.756835938 1116 l 1,24,-1
 875.375 981 l 1,25,-1
 555.375 981 l 1,26,-1
 400 0 l 1,27,-1
 246 0 l 1,28,-1
 401.375 981 l 1,0,-1
EndSplineSet
EndChar

StartChar: g
Encoding: 103 103 301
Width: 922
VWidth: 2298
GlyphClass: 2
Flags: HW
AnchorPoint: "Anchor-2" 343.363 -225 basechar 0
AnchorPoint: "Anchor-0" 526.391 1120 basechar 0
LayerCount: 2
Fore
SplineSet
123.434570312 28 m 0,0,1
 111.713867188 -46 111.713867188 -46 178.299804688 -86.5 c 128,-1,2
 244.884765625 -127 244.884765625 -127 372.884765625 -127 c 0,3,4
 505.884765625 -127 505.884765625 -127 570.774414062 -83.5 c 128,-1,5
 635.665039062 -40 635.665039062 -40 646.751953125 30 c 0,6,7
 654.353515625 78 654.353515625 78 644.763671875 109 c 128,-1,8
 635.173828125 140 635.173828125 140 588.970703125 154.5 c 128,-1,9
 542.766601562 169 542.766601562 169 447.766601562 169 c 0,10,11
 310.766601562 169 310.766601562 169 229.7265625 194 c 1,12,13
 181.5 161 181.5 161 157.456054688 126 c 128,-1,14
 133.413085938 91 133.413085938 91 123.434570312 28 c 0,0,1
442.763671875 592 m 0,15,16
 529.763671875 592 529.763671875 592 590.7421875 655 c 128,-1,17
 651.719726562 718 651.719726562 718 666.608398438 812 c 0,18,19
 681.337890625 905 681.337890625 905 640.31640625 968 c 128,-1,20
 599.293945312 1031 599.293945312 1031 512.293945312 1031 c 0,21,22
 427.293945312 1031 427.293945312 1031 365.81640625 968 c 128,-1,23
 304.337890625 905 304.337890625 905 289.608398438 812 c 128,-1,24
 274.877929688 719 274.877929688 719 316.321289062 655.5 c 128,-1,25
 357.763671875 592 357.763671875 592 442.763671875 592 c 0,15,16
422.490234375 464 m 0,26,27
 348.490234375 464 348.490234375 464 292.924804688 492 c 1,28,29
 250.639648438 446 250.639648438 446 243.829101562 403 c 0,30,31
 235.592773438 351 235.592773438 351 288.529296875 328.5 c 128,-1,32
 341.465820312 306 341.465820312 306 497.465820312 306 c 0,33,34
 634.465820312 306 634.465820312 306 699.739257812 273 c 128,-1,35
 765.012695312 240 765.012695312 240 782.063476562 183.5 c 128,-1,36
 799.115234375 127 799.115234375 127 787.39453125 53 c 0,37,38
 775.357421875 -23 775.357421875 -23 726.928710938 -92 c 128,-1,39
 678.5 -161 678.5 -161 586.768554688 -203.5 c 128,-1,40
 495.037109375 -246 495.037109375 -246 352.037109375 -246 c 0,41,42
 165.037109375 -246 165.037109375 -246 64.173828125 -182 c 128,-1,43
 -36.689453125 -118 -36.689453125 -118 -16.416015625 10 c 0,44,45
 -3.5869140625 91 -3.5869140625 91 47.0205078125 148.5 c 128,-1,46
 97.626953125 206 97.626953125 206 157.586914062 231 c 1,47,48
 100.189453125 279 100.189453125 279 113.96875 366 c 0,49,50
 121.571289062 414 121.571289062 414 150.27734375 459.5 c 128,-1,51
 178.984375 505 178.984375 505 222.477539062 546 c 1,52,53
 138 644 138 644 164.608398438 812 c 0,54,55
 187.890625 959 187.890625 959 288.650390625 1058.5 c 128,-1,56
 389.409179688 1158 389.409179688 1158 532.409179688 1158 c 0,57,58
 606.409179688 1158 606.409179688 1158 660.553710938 1130.5 c 128,-1,59
 714.698242188 1103 714.698242188 1103 747.5703125 1058 c 1,60,61
 807.490234375 1108 807.490234375 1108 866.053710938 1130.5 c 0,62,63
 912.288085938 1148.26269531 912.288085938 1148.26269531 968.797851562 1148.26269531 c 0,64,65
 983.8671875 1148.26269531 983.8671875 1148.26269531 999.666992188 1147 c 1,66,-1
 999.393554688 1019 l 1,67,68
 976.57421875 1021.40039062 976.57421875 1021.40039062 954.25390625 1021.40039062 c 0,69,70
 920.7734375 1021.40039062 920.7734375 1021.40039062 888.418945312 1016 c 0,71,72
 834.493164062 1007 834.493164062 1007 786.424804688 975 c 1,73,74
 805.1015625 903.3125 805.1015625 903.3125 791.518554688 817.547851562 c 0,75,76
 791.080078125 814.78125 791.080078125 814.78125 790.608398438 812 c 0,77,78
 767.325195312 665 767.325195312 665 667.408203125 564.5 c 128,-1,79
 567.490234375 464 567.490234375 464 422.490234375 464 c 0,26,27
EndSplineSet
EndChar

StartChar: h
Encoding: 104 104 308
Width: 922
VWidth: 2441
GlyphClass: 2
Flags: HW
AnchorPoint: "Anchor-4" 404.235 1340 basechar 0
AnchorPoint: "Anchor-2" 456 0 basechar 0
AnchorPoint: "Anchor-0" 422.217 1624 basechar 0
LayerCount: 2
Fore
SplineSet
322.216796875 1624 m 1,0,-1
 503.216796875 1624 l 1,1,-1
 500.5234375 1607 l 1,2,3
 484.306640625 1593 484.306640625 1593 477.03515625 1575.5 c 128,-1,4
 469.762695312 1558 469.762695312 1558 463.110351562 1516 c 2,5,-1
 369.188476562 923 l 1,6,7
 443.501953125 1026 443.501953125 1026 541.188476562 1084 c 128,-1,8
 638.875 1142 638.875 1142 731.875 1142 c 0,9,10
 870.875 1142 870.875 1142 938.245117188 1037 c 128,-1,11
 1005.61425781 932 1005.61425781 932 965.068359375 676 c 2,12,-1
 858 0 l 1,13,-1
 700 0 l 1,14,-1
 806.276367188 671 l 2,15,16
 833.993164062 846 833.993164062 846 793.213867188 920 c 128,-1,17
 752.434570312 994 752.434570312 994 673.434570312 994 c 0,18,19
 607.434570312 994 607.434570312 994 532.624023438 951 c 128,-1,20
 457.813476562 908 457.813476562 908 399.958984375 830 c 128,-1,21
 342.10546875 752 342.10546875 752 324.840820312 643 c 2,22,-1
 223 0 l 1,23,-1
 65 0 l 1,24,-1
 322.216796875 1624 l 1,0,-1
EndSplineSet
EndChar

StartChar: i
Encoding: 105 105 313
Width: 922
VWidth: 2441
GlyphClass: 2
Flags: HW
AnchorPoint: "Anchor-3" 668 0 basechar 0
AnchorPoint: "Anchor-2" 456 0 basechar 0
AnchorPoint: "Anchor-0" 689.934 1477 basechar 0
LayerCount: 2
Fore
SplineSet
123 0 m 1,0,-1
 145.015625 139 l 1,1,-1
 404.015625 139 l 1,2,-1
 536.583007812 976 l 1,3,-1
 292.583007812 976 l 1,4,-1
 314.756835938 1116 l 1,5,-1
 720.756835938 1116 l 1,6,-1
 566.015625 139 l 1,7,-1
 802.015625 139 l 1,8,-1
 780 0 l 1,9,-1
 123 0 l 1,0,-1
667.611328125 1355 m 0,10,11
 621.611328125 1355 621.611328125 1355 592.733398438 1390.5 c 128,-1,12
 563.856445312 1426 563.856445312 1426 571.6171875 1475 c 0,13,14
 579.694335938 1526 579.694335938 1526 618.23828125 1561 c 128,-1,15
 656.78125 1596 656.78125 1596 705.78125 1596 c 128,-1,16
 754.78125 1596 754.78125 1596 783.000976562 1559.5 c 128,-1,17
 811.219726562 1523 811.219726562 1523 803.6171875 1475 c 0,18,19
 795.856445312 1426 795.856445312 1426 756.233398438 1390.5 c 128,-1,20
 716.611328125 1355 716.611328125 1355 667.611328125 1355 c 0,10,11
EndSplineSet
Substitution2: "'locl' Localized Forms in Latin lookup 18 subtable" i.loclTRK
Substitution2: "'locl' Localized Forms in Latin lookup 17 subtable" i.loclTRK
Substitution2: "'locl' Localized Forms in Latin lookup 16 subtable" i.loclTRK
Substitution2: "'locl' Localized Forms in Latin lookup 15 subtable" i.loclTRK
Substitution2: "'locl' Localized Forms in Latin lookup 14 subtable" i.loclTRK
Substitution2: "Single Substitution lookup 4 subtable" dotlessi
Substitution2: "Single Substitution lookup 3 subtable" dotlessi
AlternateSubs2: "'aalt' Access All Alternates in Latin lookup 1 subtable" dotlessi i.loclTRK
EndChar

StartChar: dotlessi
Encoding: 305 305 314
Width: 922
VWidth: 2441
GlyphClass: 2
Flags: HW
AnchorPoint: "Anchor-3" 668 0 basechar 0
AnchorPoint: "Anchor-2" 456 0 basechar 0
AnchorPoint: "Anchor-0" 632.757 1116 basechar 0
LayerCount: 2
Fore
SplineSet
123 0 m 1,0,-1
 145.015625 139 l 1,1,-1
 404.015625 139 l 1,2,-1
 536.583007812 976 l 1,3,-1
 292.583007812 976 l 1,4,-1
 314.756835938 1116 l 1,5,-1
 720.756835938 1116 l 1,6,-1
 566.015625 139 l 1,7,-1
 802.015625 139 l 1,8,-1
 780 0 l 1,9,-1
 123 0 l 1,0,-1
EndSplineSet
EndChar

StartChar: j
Encoding: 106 106 329
Width: 922
VWidth: 2365
GlyphClass: 2
Flags: HW
AnchorPoint: "Anchor-2" 369.336 -282 basechar 0
AnchorPoint: "Anchor-0" 804.676 1488 basechar 0
LayerCount: 2
Fore
SplineSet
256.037109375 -246 m 0,0,1
 169.037109375 -246 169.037109375 -246 96.763671875 -213 c 128,-1,2
 24.4912109375 -180 24.4912109375 -180 -18.7392578125 -112 c 1,3,-1
 85.1083984375 7 l 1,4,-1
 99.1181640625 26 l 1,5,-1
 110.850585938 18 l 1,6,7
 111.68359375 -2 111.68359375 -2 116.5703125 -18.5 c 128,-1,8
 121.45703125 -35 121.45703125 -35 141.021484375 -63 c 1,9,10
 164.537109375 -85 164.537109375 -85 197.399414062 -98.5 c 128,-1,11
 230.260742188 -112 230.260742188 -112 277.260742188 -112 c 0,12,13
 366.260742188 -112 366.260742188 -112 434.34765625 -42 c 128,-1,14
 502.434570312 28 502.434570312 28 526.66796875 181 c 2,15,-1
 660.977539062 1029 l 1,16,-1
 317.977539062 1029 l 1,17,-1
 338.409179688 1158 l 1,18,-1
 832.409179688 1158 l 1,19,-1
 679.092773438 190 l 2,20,21
 654.068359375 32 654.068359375 32 591.442382812 -63.5 c 128,-1,22
 528.81640625 -159 528.81640625 -159 442.426757812 -202.5 c 128,-1,23
 356.037109375 -246 356.037109375 -246 256.037109375 -246 c 0,0,1
785.095703125 1377 m 0,24,25
 743.095703125 1377 743.095703125 1377 716.6640625 1409 c 128,-1,26
 690.232421875 1441 690.232421875 1441 697.201171875 1485 c 0,27,28
 704.64453125 1532 704.64453125 1532 739.712890625 1564 c 128,-1,29
 774.78125 1596 774.78125 1596 819.78125 1596 c 128,-1,30
 864.78125 1596 864.78125 1596 890.5546875 1563 c 128,-1,31
 916.328125 1530 916.328125 1530 909.201171875 1485 c 128,-1,32
 902.073242188 1440 902.073242188 1440 866.084960938 1408.5 c 128,-1,33
 830.095703125 1377 830.095703125 1377 785.095703125 1377 c 0,24,25
EndSplineSet
Substitution2: "Single Substitution lookup 4 subtable" uni0237
Substitution2: "Single Substitution lookup 3 subtable" uni0237
Substitution2: "'aalt' Access All Alternates in Latin lookup 0 subtable" uni0237
EndChar

StartChar: uni0237
Encoding: 567 567 330
Width: 922
VWidth: 2286
GlyphClass: 2
Flags: HW
AnchorPoint: "Anchor-2" 353.494 -281 basechar 0
AnchorPoint: "Anchor-0" 725.757 1116 basechar 0
LayerCount: 2
Fore
SplineSet
244.037109375 -246 m 0,0,1
 160.037109375 -246 160.037109375 -246 89.60546875 -214 c 128,-1,2
 19.173828125 -182 19.173828125 -182 -21.373046875 -116 c 1,3,-1
 79 0 l 1,4,-1
 91.8505859375 18 l 1,5,-1
 103.583984375 10 l 1,6,7
 104.57421875 -9 104.57421875 -9 108.9609375 -25.5 c 128,-1,8
 113.34765625 -42 113.34765625 -42 132.071289062 -69 c 1,9,10
 154.745117188 -90 154.745117188 -90 187.186523438 -103 c 128,-1,11
 219.626953125 -116 219.626953125 -116 264.626953125 -116 c 0,12,13
 350.626953125 -116 350.626953125 -116 416.897460938 -48 c 128,-1,14
 483.16796875 20 483.16796875 20 506.608398438 168 c 2,15,-1
 636.80078125 990 l 1,16,-1
 303.80078125 990 l 1,17,-1
 323.756835938 1116 l 1,18,-1
 803.756835938 1116 l 1,19,-1
 655.034179688 177 l 2,20,21
 630.80078125 24 630.80078125 24 569.571289062 -69 c 128,-1,22
 508.341796875 -162 508.341796875 -162 424.689453125 -204 c 128,-1,23
 341.037109375 -246 341.037109375 -246 244.037109375 -246 c 0,0,1
EndSplineSet
EndChar

StartChar: k
Encoding: 107 107 332
Width: 922
VWidth: 2441
GlyphClass: 2
Flags: HW
AnchorPoint: "Anchor-2" 441 0 basechar 0
AnchorPoint: "Anchor-0" 384.217 1624 basechar 0
LayerCount: 2
Fore
SplineSet
421.745117188 554 m 1,0,-1
 273.045898438 417 l 1,1,-1
 204 0 l 1,2,-1
 45 0 l 1,3,-1
 302.216796875 1624 l 1,4,-1
 482.216796875 1624 l 1,5,-1
 479.5234375 1607 l 1,6,7
 463.306640625 1593 463.306640625 1593 457.03515625 1575.5 c 128,-1,8
 450.762695312 1558 450.762695312 1558 444.110351562 1516 c 2,9,-1
 299.505859375 603 l 1,10,-1
 868.548828125 1121 l 1,11,12
 921.6484375 1109 921.6484375 1109 983.6484375 1109 c 2,13,-1
 1040.6484375 1109 l 1,14,-1
 556.850585938 662 l 1,15,-1
 935 0 l 1,16,-1
 732.416015625 -10 l 1,17,-1
 421.745117188 554 l 1,0,-1
EndSplineSet
EndChar

StartChar: kgreenlandic
Encoding: 312 312 334
Width: 922
VWidth: 2441
GlyphClass: 2
Flags: HW
AnchorPoint: "Anchor-2" 443 0 basechar 0
AnchorPoint: "Anchor-0" 307.757 1116 basechar 0
LayerCount: 2
Fore
SplineSet
421.745117188 554 m 1,0,-1
 273.045898438 417 l 1,1,-1
 204 0 l 1,2,-1
 45 0 l 1,3,-1
 221.756835938 1116 l 1,4,-1
 401.756835938 1116 l 1,5,-1
 399.064453125 1099 l 1,6,7
 382.846679688 1085 382.846679688 1085 376.575195312 1067.5 c 128,-1,8
 370.303710938 1050 370.303710938 1050 363.809570312 1009 c 2,9,-1
 299.505859375 603 l 1,10,-1
 868.548828125 1121 l 1,11,12
 921.6484375 1109 921.6484375 1109 983.6484375 1109 c 2,13,-1
 1040.6484375 1109 l 1,14,-1
 556.850585938 662 l 1,15,-1
 935 0 l 1,16,-1
 732.416015625 -10 l 1,17,-1
 421.745117188 554 l 1,0,-1
EndSplineSet
EndChar

StartChar: l
Encoding: 108 108 335
Width: 922
VWidth: 2441
GlyphClass: 2
Flags: HW
AnchorPoint: "Anchor-4" 544.537 559 basechar 0
AnchorPoint: "Anchor-2" 456 0 basechar 0
AnchorPoint: "Anchor-1" 1137.76 1116 basechar 0
AnchorPoint: "Anchor-0" 713.217 1624 basechar 0
LayerCount: 2
Fore
SplineSet
79 0 m 1,0,-1
 101.015625 139 l 1,1,-1
 396.015625 139 l 1,2,-1
 609.04296875 1484 l 1,3,-1
 329.04296875 1484 l 1,4,-1
 351.216796875 1624 l 1,5,-1
 795.216796875 1624 l 1,6,-1
 560.015625 139 l 1,7,-1
 853.015625 139 l 1,8,-1
 831 0 l 1,9,-1
 79 0 l 1,0,-1
EndSplineSet
EndChar

StartChar: ldot
Encoding: 320 320 339
Width: 922
VWidth: 2441
GlyphClass: 1
Flags: HW
LayerCount: 2
Fore
SplineSet
868.068359375 676 m 0,0,1
 812.068359375 676 812.068359375 676 778.586914062 714 c 128,-1,2
 745.10546875 752 745.10546875 752 753.974609375 808 c 128,-1,3
 762.84375 864 762.84375 864 809.600585938 903.5 c 128,-1,4
 856.356445312 943 856.356445312 943 910.356445312 943 c 0,5,6
 961.356445312 943 961.356445312 943 996.100585938 903.5 c 128,-1,7
 1030.84375 864 1030.84375 864 1021.97460938 808 c 0,8,9
 1013.421875 754 1013.421875 754 967.745117188 715 c 128,-1,10
 922.068359375 676 922.068359375 676 868.068359375 676 c 0,0,1
57 0 m 1,11,-1
 79.015625 139 l 1,12,-1
 333.015625 139 l 1,13,-1
 546.04296875 1484 l 1,14,-1
 307.04296875 1484 l 1,15,-1
 329.216796875 1624 l 1,16,-1
 732.216796875 1624 l 1,17,-1
 497.015625 139 l 1,18,-1
 832.015625 139 l 1,19,-1
 810 0 l 1,20,-1
 57 0 l 1,11,-1
EndSplineSet
EndChar

StartChar: uni01C9
Encoding: 457 457 341
Width: 922
VWidth: 2368
GlyphClass: 1
Flags: HW
LayerCount: 2
Fore
SplineSet
364.037109375 -246 m 1,0,1
 190.037109375 -246 190.037109375 -246 105.260742188 -112 c 1,2,-1
 222.118164062 26 l 1,3,4
 232.7421875 11 232.7421875 11 233.470703125 -6.5 c 128,-1,5
 234.19921875 -24 234.19921875 -24 246.768554688 -42.5 c 128,-1,6
 259.338867188 -61 259.338867188 -61 304.0625 -88 c 0,7,8
 347.578125 -110 347.578125 -110 396.578125 -110 c 0,9,10
 487.578125 -110 487.578125 -110 555.34765625 -42 c 128,-1,11
 623.118164062 26 623.118164062 26 647.826171875 182 c 2,12,-1
 782.293945312 1031 l 1,13,-1
 501.293945312 1031 l 1,14,-1
 521.725585938 1160 l 1,15,-1
 954.725585938 1160 l 1,16,-1
 801.092773438 190 l 2,17,18
 776.068359375 32 776.068359375 32 712.259765625 -61.5 c 128,-1,19
 648.450195312 -155 648.450195312 -155 558.560546875 -198.5 c 128,-1,20
 468.670898438 -242 468.670898438 -242 364.037109375 -246 c 1,0,1
891.412109375 1379 m 0,21,22
 849.412109375 1379 849.412109375 1379 822.98046875 1411 c 128,-1,23
 796.548828125 1443 796.548828125 1443 803.67578125 1488 c 0,24,25
 811.120117188 1535 811.120117188 1535 846.688476562 1567 c 128,-1,26
 882.256835938 1599 882.256835938 1599 926.256835938 1599 c 0,27,28
 971.256835938 1599 971.256835938 1599 996.951171875 1565.5 c 128,-1,29
 1022.64453125 1532 1022.64453125 1532 1015.67578125 1488 c 0,30,31
 1008.54882812 1443 1008.54882812 1443 972.48046875 1411 c 128,-1,32
 936.412109375 1379 936.412109375 1379 891.412109375 1379 c 0,21,22
-33.66796875 141 m 1,33,-1
 -13.39453125 269 l 1,34,-1
 116.60546875 269 l 1,35,-1
 310.943359375 1496 l 1,36,-1
 193.943359375 1496 l 1,37,-1
 214.216796875 1624 l 1,38,-1
 480.216796875 1624 l 1,39,-1
 265.60546875 269 l 1,40,-1
 512.60546875 269 l 1,41,-1
 492.33203125 141 l 1,42,-1
 -33.66796875 141 l 1,33,-1
EndSplineSet
EndChar

StartChar: lslash
Encoding: 322 322 343
Width: 922
VWidth: 2441
GlyphClass: 1
Flags: HW
LayerCount: 2
Fore
SplineSet
79 0 m 1,0,-1
 101.015625 139 l 1,1,-1
 396.015625 139 l 1,2,-1
 481.859375 681 l 1,3,-1
 301.40625 615 l 1,4,-1
 326.90625 776 l 1,5,-1
 507.518554688 843 l 1,6,-1
 609.04296875 1484 l 1,7,-1
 329.04296875 1484 l 1,8,-1
 351.216796875 1624 l 1,9,-1
 795.216796875 1624 l 1,10,-1
 681.1796875 904 l 1,11,-1
 891.692382812 983 l 1,12,-1
 865.083007812 815 l 1,13,-1
 655.204101562 740 l 1,14,-1
 560.015625 139 l 1,15,-1
 853.015625 139 l 1,16,-1
 831 0 l 1,17,-1
 79 0 l 1,0,-1
EndSplineSet
EndChar

StartChar: m
Encoding: 109 109 344
Width: 922
VWidth: 2441
GlyphClass: 2
Flags: HW
AnchorPoint: "Anchor-2" 423 0 basechar 0
AnchorPoint: "Anchor-0" 654.757 1116 basechar 0
LayerCount: 2
Fore
SplineSet
-16 0 m 1,0,-1
 160.756835938 1116 l 1,1,-1
 302.756835938 1116 l 1,2,-1
 285.334960938 1006 l 1,3,4
 326.99609375 1067 326.99609375 1067 382.935546875 1104.5 c 128,-1,5
 438.875 1142 438.875 1142 494.875 1142 c 0,6,7
 555.875 1142 555.875 1142 594.588867188 1096 c 128,-1,8
 633.303710938 1050 633.303710938 1050 635.05859375 979 c 1,9,10
 672.620117188 1052 672.620117188 1052 737.748046875 1097 c 128,-1,11
 802.875 1142 802.875 1142 871.875 1142 c 0,12,13
 967.875 1142 967.875 1142 1000.625 1061.5 c 0,14,15
 1030.72851562 987.504882812 1030.72851562 987.504882812 1013.1875 876.756835938 c 0,16,17
 1011.64550781 867.020507812 1011.64550781 867.020507812 1009.73535156 857 c 1,18,-1
 874 0 l 1,19,-1
 732 0 l 1,20,-1
 857.440429688 792 l 2,21,22
 873.75390625 895 873.75390625 895 869.9609375 940.5 c 128,-1,23
 866.166992188 986 866.166992188 986 850.04296875 1001 c 128,-1,24
 833.918945312 1016 833.918945312 1016 808.918945312 1016 c 0,25,26
 769.918945312 1016 769.918945312 1016 729.608398438 973 c 128,-1,27
 689.297851562 930 689.297851562 930 658.58203125 865.5 c 128,-1,28
 627.866210938 801 627.866210938 801 617.729492188 737 c 2,29,-1
 501 0 l 1,30,-1
 356 0 l 1,31,-1
 478.90625 776 l 2,32,33
 500.921875 915 500.921875 915 488.524414062 963 c 128,-1,34
 476.126953125 1011 476.126953125 1011 418.126953125 1011 c 0,35,36
 377.126953125 1011 377.126953125 1011 320.381835938 940 c 128,-1,37
 263.635742188 869 263.635742188 869 243.99609375 745 c 2,38,-1
 126 0 l 1,39,-1
 -16 0 l 1,0,-1
EndSplineSet
EndChar

StartChar: n
Encoding: 110 110 346
Width: 922
VWidth: 2441
GlyphClass: 2
Flags: HW
AnchorPoint: "Anchor-2" 477 0 basechar 0
AnchorPoint: "Anchor-0" 665.757 1116 basechar 0
LayerCount: 2
Fore
SplineSet
62 0 m 1,0,-1
 238.756835938 1116 l 1,1,-1
 397.756835938 1116 l 1,2,-1
 367.188476562 923 l 1,3,4
 441.501953125 1026 441.501953125 1026 540.188476562 1084 c 128,-1,5
 638.875 1142 638.875 1142 738.875 1142 c 0,6,7
 824.875 1142 824.875 1142 884.485351562 1098.5 c 128,-1,8
 944.095703125 1055 944.095703125 1055 967.51953125 953.5 c 128,-1,9
 990.943359375 852 990.943359375 852 963.859375 681 c 2,10,-1
 856 0 l 1,11,-1
 698 0 l 1,12,-1
 805.068359375 676 l 2,13,14
 832.78515625 851 832.78515625 851 792.609375 922.5 c 128,-1,15
 752.434570312 994 752.434570312 994 671.434570312 994 c 0,16,17
 605.434570312 994 605.434570312 994 530.124023438 951 c 128,-1,18
 454.813476562 908 454.813476562 908 397.696289062 831.5 c 128,-1,19
 340.580078125 755 340.580078125 755 323.474609375 647 c 2,20,-1
 221 0 l 1,21,-1
 62 0 l 1,0,-1
EndSplineSet
EndChar

StartChar: eng
Encoding: 331 331 352
Width: 922
VWidth: 2288
GlyphClass: 1
Flags: HW
LayerCount: 2
Fore
SplineSet
376.037109375 -246 m 0,0,1
 271.037109375 -246 271.037109375 -246 199.283203125 -175 c 1,2,-1
 286.45703125 -35 l 1,3,4
 294.139648438 -37 294.139648438 -37 300.209960938 -55.5 c 128,-1,5
 306.279296875 -74 306.279296875 -74 326.245117188 -90 c 128,-1,6
 346.2109375 -106 346.2109375 -106 402.2109375 -106 c 0,7,8
 587.2109375 -106 587.2109375 -106 641.428710938 230 c 2,9,-1
 719.987304688 726 l 2,10,11
 745.645507812 888 745.645507812 888 708.885742188 949.5 c 128,-1,12
 672.126953125 1011 672.126953125 1011 603.126953125 1011 c 0,13,14
 543.126953125 1011 543.126953125 1011 476.44921875 972 c 128,-1,15
 409.772460938 933 409.772460938 933 359.923828125 864.5 c 128,-1,16
 310.07421875 796 310.07421875 796 295.02734375 701 c 2,17,-1
 205.065429688 133 l 1,18,-1
 57.0654296875 133 l 1,19,-1
 213.232421875 1119 l 1,20,-1
 361.232421875 1119 l 1,21,-1
 334.1484375 948 l 1,22,23
 397.561523438 1039 397.561523438 1039 482.717773438 1090.5 c 128,-1,24
 567.875 1142 567.875 1142 652.875 1142 c 0,25,26
 730.875 1142 730.875 1142 786.77734375 1103.5 c 128,-1,27
 842.6796875 1065 842.6796875 1065 864.845703125 974.5 c 128,-1,28
 887.01171875 884 887.01171875 884 862.62109375 730 c 2,29,-1
 787.229492188 254 l 2,30,31
 744.94140625 -13 744.94140625 -13 631.489257812 -129.5 c 128,-1,32
 518.037109375 -246 518.037109375 -246 376.037109375 -246 c 0,0,1
EndSplineSet
EndChar

StartChar: o
Encoding: 111 111 355
Width: 922
VWidth: 2441
GlyphClass: 2
Flags: HW
AnchorPoint: "Anchor-4" 521.537 559 basechar 0
AnchorPoint: "Anchor-3" 513.801 24 basechar 0
AnchorPoint: "Anchor-2" 433 0 basechar 0
AnchorPoint: "Anchor-1" 831.68 1065 basechar 0
AnchorPoint: "Anchor-0" 609.757 1116 basechar 0
LayerCount: 2
Fore
SplineSet
452.639648438 124 m 128,-1,1
 577.639648438 124 577.639648438 124 674.75 241.5 c 128,-1,2
 771.860351562 359 771.860351562 359 803.853515625 561 c 0,3,4
 836.005859375 764 836.005859375 764 775.45703125 880.5 c 128,-1,5
 714.909179688 997 714.909179688 997 590.909179688 997 c 0,6,7
 469.909179688 997 469.909179688 997 372.45703125 880.5 c 128,-1,8
 275.005859375 764 275.005859375 764 242.853515625 561 c 128,-1,9
 210.701171875 358 210.701171875 358 269.170898438 241 c 128,-1,0
 327.639648438 124 327.639648438 124 452.639648438 124 c 128,-1,1
429.990234375 -19 m 128,-1,11
 297.990234375 -19 297.990234375 -19 210.157226562 51.5 c 128,-1,12
 122.323242188 122 122.323242188 122 85.2548828125 251 c 128,-1,13
 48.1865234375 380 48.1865234375 380 76.537109375 559 c 128,-1,14
 104.887695312 738 104.887695312 738 183.056640625 868.5 c 128,-1,15
 261.225585938 999 261.225585938 999 371.892578125 1069.5 c 128,-1,16
 482.55859375 1140 482.55859375 1140 613.55859375 1140 c 0,17,18
 745.55859375 1140 745.55859375 1140 834.892578125 1069.5 c 128,-1,19
 924.225585938 999 924.225585938 999 959.477539062 868 c 128,-1,20
 994.729492188 737 994.729492188 737 966.537109375 559 c 0,21,22
 938.186523438 380 938.186523438 380 861.754882812 251 c 128,-1,23
 785.323242188 122 785.323242188 122 673.657226562 51.5 c 128,-1,10
 561.990234375 -19 561.990234375 -19 429.990234375 -19 c 128,-1,11
EndSplineSet
Substitution2: "Single Substitution lookup 29 subtable" ordmasculine
Substitution2: "'aalt' Access All Alternates in Latin lookup 0 subtable" ordmasculine
EndChar

StartChar: oslash
Encoding: 248 248 383
Width: 922
VWidth: 2441
GlyphClass: 2
Flags: HW
AnchorPoint: "Anchor-4" 521.537 559 basechar 0
AnchorPoint: "Anchor-3" 513.801 24 basechar 0
AnchorPoint: "Anchor-2" 433 0 basechar 0
AnchorPoint: "Anchor-1" 831.68 1065 basechar 0
AnchorPoint: "Anchor-0" 609.757 1116 basechar 0
LayerCount: 2
Fore
SplineSet
452.639648438 124 m 0,0,1
 577.639648438 124 577.639648438 124 674.75 241.5 c 128,-1,2
 771.860351562 359 771.860351562 359 803.853515625 561 c 0,3,4
 833.629882812 749 833.629882812 749 780.84375 864 c 1,5,-1
 334.5 161 l 1,6,7
 385.639648438 124 385.639648438 124 452.639648438 124 c 0,0,1
242.853515625 561 m 0,8,9
 214.186523438 380 214.186523438 380 258.655273438 263 c 1,10,-1
 702.682617188 964 l 1,11,12
 653.750976562 996 653.750976562 996 590.909179688 997 c 0,13,14
 469.909179688 997 469.909179688 997 372.45703125 880.5 c 128,-1,15
 275.005859375 764 275.005859375 764 242.853515625 561 c 0,8,9
137.717773438 -147 m 1,16,-1
 37.0625 -88 l 1,17,-1
 159.313476562 103 l 1,18,19
 99.1923828125 178 99.1923828125 178 76.0654296875 294 c 128,-1,20
 52.9375 410 52.9375 410 76.537109375 559 c 0,21,22
 104.887695312 738 104.887695312 738 183.056640625 868.5 c 128,-1,23
 261.225585938 999 261.225585938 999 371.892578125 1069.5 c 128,-1,24
 482.55859375 1140 482.55859375 1140 613.55859375 1140 c 0,25,26
 711.55859375 1140 711.55859375 1140 787.064453125 1099 c 1,27,-1
 891.356445312 1265 l 1,28,-1
 995.6953125 1204 l 1,29,-1
 881.02734375 1023 l 1,30,31
 945.1484375 948 945.1484375 948 967.80078125 829 c 128,-1,32
 990.453125 710 990.453125 710 966.537109375 559 c 0,33,34
 938.186523438 380 938.186523438 380 861.754882812 251 c 128,-1,35
 785.323242188 122 785.323242188 122 673.157226562 51.5 c 128,-1,36
 560.990234375 -19 560.990234375 -19 429.990234375 -19 c 0,37,38
 326.990234375 -19 326.990234375 -19 247.276367188 27 c 1,39,-1
 137.717773438 -147 l 1,16,-1
EndSplineSet
EndChar

StartChar: oe
Encoding: 339 339 389
Width: 922
VWidth: 2441
GlyphClass: 1
Flags: HW
LayerCount: 2
Fore
SplineSet
214.84765625 119 m 0,0,1
 251.84765625 119 251.84765625 119 282.124023438 146 c 128,-1,2
 312.400390625 173 312.400390625 173 319.369140625 217 c 0,3,4
 320.478515625 224 320.478515625 224 322.239257812 273 c 0,5,6
 325.860351562 359 325.860351562 359 334.713867188 437 c 128,-1,7
 343.568359375 515 343.568359375 515 354.021484375 581 c 0,8,9
 376.51171875 723 376.51171875 723 395.416015625 795 c 128,-1,10
 414.319335938 867 414.319335938 867 416.853515625 883 c 0,11,12
 424.138671875 929 424.138671875 929 405.287109375 961.5 c 128,-1,13
 386.434570312 994 386.434570312 994 349.434570312 994 c 0,14,15
 309.434570312 994 309.434570312 994 264.756835938 955 c 128,-1,16
 220.080078125 916 220.080078125 916 181.666992188 825 c 128,-1,17
 143.25390625 734 143.25390625 734 119.337890625 583 c 0,18,19
 81.0087890625 341 81.0087890625 341 108.428710938 230 c 128,-1,20
 135.84765625 119 135.84765625 119 214.84765625 119 c 0,0,1
489.384765625 678 m 1,21,-1
 785.384765625 678 l 1,22,23
 812.78515625 851 812.78515625 851 792.559570312 928.5 c 128,-1,24
 772.334960938 1006 772.334960938 1006 693.334960938 1006 c 0,25,26
 622.334960938 1006 622.334960938 1006 568.451171875 921.5 c 128,-1,27
 514.567382812 837 514.567382812 837 489.384765625 678 c 1,21,-1
572.248046875 -30 m 0,28,29
 445.248046875 -30 445.248046875 -30 370.770507812 68 c 1,30,31
 276.723632812 -27 276.723632812 -27 176.723632812 -27 c 0,32,33
 130.723632812 -27 130.723632812 -27 87.2626953125 -1.5 c 128,-1,34
 43.80078125 24 43.80078125 24 13.3583984375 87.5 c 128,-1,35
 -17.083984375 151 -17.083984375 151 -24.107421875 264.5 c 128,-1,36
 -31.130859375 378 -31.130859375 378 -2.7802734375 557 c 0,37,38
 31.58984375 774 31.58984375 774 92.2041015625 901 c 128,-1,39
 152.819335938 1028 152.819335938 1028 224.951171875 1082.5 c 128,-1,40
 297.083007812 1137 297.083007812 1137 372.083007812 1137 c 0,41,42
 482.083007812 1137 482.083007812 1137 526.819335938 1028 c 1,43,44
 612.462890625 1137.00878906 612.462890625 1137.00878906 724.051757812 1137.00878906 c 0,0,0
 725.06640625 1137.00878906 725.06640625 1137.00878906 726.083007812 1137 c 0,45,46
 842.083007812 1137 842.083007812 1137 889.3984375 1028.5 c 128,-1,47
 936.713867188 920 936.713867188 920 900.443359375 691 c 2,48,-1
 876.52734375 540 l 1,49,-1
 465.52734375 540 l 1,50,51
 440.126953125 367 440.126953125 367 446.897460938 274 c 128,-1,52
 453.66796875 181 453.66796875 181 487.703125 146.5 c 128,-1,53
 521.739257812 112 521.739257812 112 578.739257812 112 c 0,54,55
 688.739257812 112 688.739257812 112 767.78515625 207 c 1,56,-1
 815.313476562 103 l 1,57,58
 697.248046875 -30 697.248046875 -30 572.248046875 -30 c 0,28,29
EndSplineSet
EndChar

StartChar: p
Encoding: 112 112 390
Width: 922
VWidth: 2304
GlyphClass: 2
Flags: HW
AnchorPoint: "Anchor-2" 456.848 119 basechar 0
AnchorPoint: "Anchor-0" 615.074 1118 basechar 0
LayerCount: 2
Fore
SplineSet
451.111328125 228 m 0,0,1
 514.111328125 228 514.111328125 228 577.837890625 261 c 128,-1,2
 641.565429688 294 641.565429688 294 691.106445312 379.5 c 128,-1,3
 740.6484375 465 740.6484375 465 765.198242188 620 c 0,4,5
 795.608398438 812 795.608398438 812 750.654296875 907 c 128,-1,6
 705.701171875 1002 705.701171875 1002 594.334960938 1006 c 0,7,8
 590.080078125 1006.16015625 590.080078125 1006.16015625 585.845703125 1006.16015625 c 0,9,10
 484.219726562 1006.16015625 484.219726562 1006.16015625 394.263671875 914 c 0,11,12
 300.55859375 818 300.55859375 818 263.655273438 585 c 1,13,14
 238.51171875 401 238.51171875 401 290.311523438 314.5 c 128,-1,15
 342.111328125 228 342.111328125 228 451.111328125 228 c 0,0,1
-14.962890625 -246 m 1,16,-1
 201.07421875 1118 l 1,17,-1
 348.07421875 1118 l 1,18,-1
 318.297851562 930 l 1,19,20
 365.927734375 1035 365.927734375 1035 448.243164062 1087.5 c 128,-1,21
 530.55859375 1140 530.55859375 1140 624.55859375 1140 c 0,22,23
 724.55859375 1140 724.55859375 1140 801.901367188 1088.5 c 128,-1,24
 879.245117188 1037 879.245117188 1037 912.767578125 923.5 c 128,-1,25
 946.291015625 810 946.291015625 810 917.1484375 626 c 128,-1,26
 888.005859375 442 888.005859375 442 815.895507812 324.5 c 128,-1,27
 743.78515625 207 743.78515625 207 648.178710938 149.5 c 128,-1,28
 552.571289062 92 552.571289062 92 454.571289062 92 c 0,29,30
 371.571289062 92 371.571289062 92 308.223632812 134 c 128,-1,31
 244.875976562 176 244.875976562 176 212.595703125 250 c 1,32,-1
 134.037109375 -246 l 1,33,-1
 -14.962890625 -246 l 1,16,-1
EndSplineSet
EndChar

StartChar: thorn
Encoding: 254 254 391
Width: 922
VWidth: 2374
GlyphClass: 1
Flags: HW
LayerCount: 2
Fore
SplineSet
467.170898438 241 m 0,0,1
 532.170898438 241 532.170898438 241 597.555664062 275 c 128,-1,2
 662.940429688 309 662.940429688 309 713.87890625 397 c 128,-1,3
 764.81640625 485 764.81640625 485 790 644 c 0,4,5
 821.201171875 841 821.201171875 841 774.72265625 939 c 128,-1,6
 728.245117188 1037 728.245117188 1037 614.877929688 1041 c 0,7,8
 610.610351562 1041.15625 610.610351562 1041.15625 606.361328125 1041.15625 c 0,0,0
 501.7421875 1041.15625 501.7421875 1041.15625 408.911132812 946.5 c 128,-1,9
 312.309570312 848 312.309570312 848 274.297851562 608 c 1,10,11
 248.36328125 419 248.36328125 419 301.766601562 330 c 128,-1,12
 355.170898438 241 355.170898438 241 467.170898438 241 c 0,0,1
285.216796875 1624 m 1,13,-1
 455.216796875 1624 l 1,14,-1
 452.682617188 1608 l 1,15,16
 437.623046875 1595 437.623046875 1595 431.588867188 1579 c 128,-1,17
 425.5546875 1563 425.5546875 1563 419.536132812 1525 c 2,18,-1
 330.524414062 963 l 1,19,20
 379.629882812 1071 379.629882812 1071 464.103515625 1124.5 c 128,-1,21
 548.577148438 1178 548.577148438 1178 645.577148438 1178 c 0,22,23
 748.577148438 1178 748.577148438 1178 828.26171875 1125.5 c 128,-1,24
 907.946289062 1073 907.946289062 1073 941.915039062 956 c 128,-1,25
 975.884765625 839 975.884765625 839 945.950195312 650 c 128,-1,26
 916.015625 461 916.015625 461 841.850585938 340 c 128,-1,27
 767.686523438 219 767.686523438 219 669.920898438 160.5 c 128,-1,28
 572.155273438 102 572.155273438 102 471.155273438 102 c 0,29,30
 385.155273438 102 385.155273438 102 319.88671875 144.5 c 128,-1,31
 254.618164062 187 254.618164062 187 221.813476562 264 c 1,32,-1
 141.037109375 -246 l 1,33,-1
 -10.962890625 -246 l 1,34,-1
 285.216796875 1624 l 1,13,-1
EndSplineSet
EndChar

StartChar: q
Encoding: 113 113 392
Width: 922
VWidth: 2305
GlyphClass: 1
Flags: HW
LayerCount: 2
Fore
SplineSet
422.745117188 232 m 0,0,1
 522.745117188 232 522.745117188 232 609.266601562 330 c 128,-1,2
 695.788085938 428 695.788085938 428 730.474609375 647 c 0,3,4
 763.1015625 853 763.1015625 853 711.748046875 936 c 128,-1,5
 660.393554688 1019 660.393554688 1019 561.393554688 1019 c 0,6,7
 448.393554688 1019 448.393554688 1019 358.1640625 926 c 128,-1,8
 267.934570312 833 267.934570312 833 235.624023438 629 c 0,9,10
 205.84765625 441 205.84765625 441 256.295898438 336.5 c 128,-1,11
 306.745117188 232 306.745117188 232 422.745117188 232 c 0,0,1
593.037109375 -246 m 1,12,-1
 675.081054688 272 l 1,13,14
 619.934570312 189 619.934570312 189 542.228515625 143.5 c 128,-1,15
 464.521484375 98 464.521484375 98 374.521484375 98 c 0,16,17
 267.521484375 98 267.521484375 98 194.158203125 162 c 128,-1,18
 120.794921875 226 120.794921875 226 90.5634765625 344.5 c 128,-1,19
 60.33203125 463 60.33203125 463 85.5146484375 622 c 0,20,21
 113.548828125 799 113.548828125 799 186.421875 915 c 128,-1,22
 259.293945312 1031 259.293945312 1031 358.401367188 1088.5 c 128,-1,23
 457.508789062 1146 457.508789062 1146 563.508789062 1146 c 0,24,25
 659.508789062 1146 659.508789062 1146 715.985351562 1098.5 c 128,-1,26
 772.461914062 1051 772.461914062 1051 792.6328125 970 c 1,27,-1
 816.232421875 1119 l 1,28,-1
 956.232421875 1119 l 1,29,-1
 740.037109375 -246 l 1,30,-1
 593.037109375 -246 l 1,12,-1
EndSplineSet
EndChar

StartChar: r
Encoding: 114 114 393
Width: 922
VWidth: 2441
GlyphClass: 2
Flags: HW
AnchorPoint: "Anchor-2" 500 0 basechar 0
AnchorPoint: "Anchor-0" 722.757 1116 basechar 0
LayerCount: 2
Fore
SplineSet
331.756835938 1116 m 1,0,-1
 502.756835938 1116 l 1,1,-1
 467.60546875 913 l 1,2,3
 527.34375 1025 527.34375 1025 627.109375 1083.5 c 128,-1,4
 726.875 1142 726.875 1142 826.875 1142 c 0,5,6
 987.875 1142 987.875 1142 1076.55175781 1020 c 1,7,-1
 982.853515625 883 l 1,8,-1
 972.52734375 862 l 1,9,-1
 956.635742188 869 l 1,10,11
 952.645507812 888 952.645507812 888 946.733398438 907.5 c 128,-1,12
 940.822265625 927 940.822265625 927 916.256835938 955 c 1,13,14
 861.909179688 997 861.909179688 997 793.909179688 997 c 0,15,16
 720.909179688 997 720.909179688 997 642.098632812 954 c 128,-1,17
 563.288085938 911 563.288085938 911 501.11328125 821.5 c 128,-1,18
 438.9375 732 438.9375 732 416.60546875 591 c 2,19,-1
 322.68359375 -2 l 1,20,-1
 154.68359375 -2 l 1,21,-1
 331.756835938 1116 l 1,0,-1
EndSplineSet
EndChar

StartChar: uni027B
Encoding: 635 635 399
Width: 922
VWidth: 2281
GlyphClass: 1
Flags: HW
LayerCount: 2
Fore
SplineSet
629.037109375 -246 m 0,0,1
 574.037109375 -246 574.037109375 -246 519.576171875 -220.5 c 128,-1,2
 465.115234375 -195 465.115234375 -195 437.092773438 -132 c 128,-1,3
 409.071289062 -69 409.071289062 -69 427.286132812 46 c 2,4,-1
 471.099609375 310 l 1,5,6
 421.418945312 211 421.418945312 211 341.420898438 160.5 c 128,-1,7
 261.421875 110 261.421875 110 180.421875 110 c 0,8,9
 118.421875 110 118.421875 110 73.8818359375 135 c 128,-1,10
 29.341796875 160 29.341796875 160 -11.10546875 214 c 1,11,-1
 65.7421875 333 l 1,12,-1
 75.91015625 353 l 1,13,-1
 87.2763671875 349 l 1,14,15
 90.583984375 332 90.583984375 332 93.390625 315 c 128,-1,16
 96.1982421875 298 96.1982421875 298 116.713867188 276 c 0,17,18
 150.487304688 243 150.487304688 243 209.487304688 243 c 0,19,20
 269.487304688 243 269.487304688 243 332.268554688 279.5 c 128,-1,21
 395.049804688 316 395.049804688 316 445.061523438 395 c 128,-1,22
 495.07421875 474 495.07421875 474 514.397460938 596 c 2,23,-1
 597.07421875 1118 l 1,24,-1
 742.07421875 1118 l 1,25,-1
 572.286132812 46 l 2,26,27
 559.931640625 -32 559.931640625 -32 589.4375 -73 c 128,-1,28
 618.944335938 -114 618.944335938 -114 670.944335938 -114 c 0,29,30
 689.944335938 -114 689.944335938 -114 710.236328125 -109 c 128,-1,31
 730.528320312 -104 730.528320312 -104 753.745117188 -90 c 0,32,33
 770.012695312 -82 770.012695312 -82 774.650390625 -68.5 c 128,-1,34
 779.2890625 -55 779.2890625 -55 790.239257812 -49 c 1,35,-1
 818.233398438 -169 l 1,36,37
 740.037109375 -246 740.037109375 -246 629.037109375 -246 c 0,0,1
EndSplineSet
EndChar

StartChar: uni024D
Encoding: 589 589 402
Width: 922
VWidth: 2441
GlyphClass: 2
Flags: HW
AnchorPoint: "Anchor-2" 474 0 basechar 0
AnchorPoint: "Anchor-0" 695.757 1116 basechar 0
LayerCount: 2
Fore
SplineSet
47.521484375 420 m 1,0,-1
 69.537109375 559 l 1,1,-1
 232.537109375 559 l 1,2,-1
 320.756835938 1116 l 1,3,-1
 484.756835938 1116 l 1,4,-1
 449.60546875 913 l 1,5,6
 507.34375 1025 507.34375 1025 603.609375 1083.5 c 128,-1,7
 699.875 1142 699.875 1142 795.875 1142 c 0,8,9
 949.875 1142 949.875 1142 1032.55175781 1020 c 1,10,-1
 942.853515625 883 l 1,11,-1
 932.52734375 862 l 1,12,-1
 917.635742188 869 l 1,13,14
 913.645507812 888 913.645507812 888 908.233398438 907.5 c 128,-1,15
 902.822265625 927 902.822265625 927 880.256835938 955 c 1,16,17
 828.909179688 997 828.909179688 997 761.909179688 997 c 0,18,19
 691.909179688 997 691.909179688 997 616.598632812 954 c 128,-1,20
 541.288085938 911 541.288085938 911 481.11328125 821.5 c 128,-1,21
 420.9375 732 420.9375 732 398.60546875 591 c 2,22,-1
 393.537109375 559 l 1,23,-1
 636.537109375 559 l 1,24,-1
 614.521484375 420 l 1,25,-1
 371.521484375 420 l 1,26,-1
 304.68359375 -2 l 1,27,-1
 143.68359375 -2 l 1,28,-1
 210.521484375 420 l 1,29,-1
 47.521484375 420 l 1,0,-1
EndSplineSet
EndChar

StartChar: s
Encoding: 115 115 403
Width: 922
VWidth: 2441
GlyphClass: 1
Flags: HW
LayerCount: 2
Fore
SplineSet
449.19921875 -24 m 0,0,1
 317.19921875 -24 317.19921875 -24 217.692382812 17 c 128,-1,2
 118.186523438 58 118.186523438 58 50.015625 139 c 1,3,-1
 163.198242188 298 l 1,4,-1
 178.524414062 319 l 1,5,-1
 192.099609375 310 l 1,6,7
 194.08984375 291 194.08984375 291 196.763671875 270 c 128,-1,8
 199.4375 249 199.4375 249 221.686523438 219 c 0,9,10
 260.400390625 173 260.400390625 173 319.465820312 145 c 128,-1,11
 378.53125 117 378.53125 117 476.53125 117 c 0,12,13
 593.53125 117 593.53125 117 668.291992188 166 c 128,-1,14
 743.052734375 215 743.052734375 215 756.515625 300 c 0,15,16
 767.602539062 370 767.602539062 370 720.545898438 417 c 128,-1,17
 673.490234375 464 673.490234375 464 541.250976562 513 c 0,18,19
 377.4375 571 377.4375 571 287.345703125 652.5 c 128,-1,20
 197.25390625 734 197.25390625 734 217.051757812 859 c 0,21,22
 237.008789062 985 237.008789062 985 343.94140625 1063.5 c 128,-1,23
 450.875 1142 450.875 1142 636.875 1142 c 0,24,25
 778.875 1142 778.875 1142 864.143554688 1099.5 c 128,-1,26
 949.412109375 1057 949.412109375 1057 1009.94921875 972 c 1,27,-1
 897.943359375 852 l 1,28,-1
 880.458984375 830 l 1,29,-1
 866.518554688 843 l 1,30,31
 867.52734375 862 867.52734375 862 864.616210938 881.5 c 128,-1,32
 861.704101562 901 861.704101562 901 839.297851562 930 c 1,33,34
 796.94921875 972 796.94921875 972 738.196289062 992.5 c 128,-1,35
 679.443359375 1013 679.443359375 1013 620.443359375 1013 c 0,36,37
 527.443359375 1013 527.443359375 1013 461.083007812 976 c 128,-1,38
 394.72265625 939 394.72265625 939 383.953125 871 c 0,39,40
 374.291015625 810 374.291015625 810 420.872070312 760 c 128,-1,41
 467.453125 710 467.453125 710 629.266601562 652 c 0,42,43
 804.813476562 586 804.813476562 586 872.805664062 516.5 c 128,-1,44
 940.797851562 447 940.797851562 447 921.31640625 324 c 0,45,46
 897.716796875 175 897.716796875 175 776.958007812 75.5 c 128,-1,47
 656.19921875 -24 656.19921875 -24 449.19921875 -24 c 0,0,1
EndSplineSet
EndChar

StartChar: germandbls
Encoding: 223 223 414
Width: 922
VWidth: 2441
GlyphClass: 1
Flags: HW
LayerCount: 2
Fore
SplineSet
513.19921875 -24 m 0,0,1
 383.19921875 -24 383.19921875 -24 298.760742188 49 c 1,2,-1
 394.142578125 184 l 1,3,4
 449.956054688 126 449.956054688 126 543.639648438 124 c 0,5,6
 603.639648438 124 603.639648438 124 666.504882812 170.5 c 128,-1,7
 729.369140625 217 729.369140625 217 775.223632812 295 c 128,-1,8
 821.077148438 373 821.077148438 373 836.598632812 471 c 0,9,10
 857.981445312 606 857.981445312 606 795.473632812 697.5 c 128,-1,11
 732.96484375 789 732.96484375 789 560.96484375 789 c 2,12,-1
 494.96484375 789 l 1,13,-1
 516.822265625 927 l 1,14,-1
 593.822265625 927 l 2,15,16
 673.822265625 927 673.822265625 927 751.513671875 994.5 c 128,-1,17
 829.204101562 1062 829.204101562 1062 850.5859375 1197 c 0,18,19
 870.225585938 1321 870.225585938 1321 818.688476562 1406 c 128,-1,20
 767.151367188 1491 767.151367188 1491 663.151367188 1491 c 0,21,22
 543.151367188 1491 543.151367188 1491 458.274414062 1365.5 c 128,-1,23
 373.396484375 1240 373.396484375 1240 341.245117188 1037 c 2,24,-1
 177 0 l 1,25,-1
 23 0 l 1,26,-1
 186.453125 1032 l 2,27,28
 235.869140625 1344 235.869140625 1344 366.254882812 1488.5 c 128,-1,29
 496.641601562 1633 496.641601562 1633 664.641601562 1633 c 0,30,31
 781.641601562 1633 781.641601562 1633 865.614257812 1576 c 128,-1,32
 949.5859375 1519 949.5859375 1519 988.064453125 1421 c 128,-1,33
 1026.54296875 1323 1026.54296875 1323 1007.6953125 1204 c 0,34,35
 991.064453125 1099 991.064453125 1099 932.626953125 1011 c 128,-1,36
 874.188476562 923 874.188476562 923 787.745117188 876 c 1,37,38
 902.775390625 832 902.775390625 832 955.877929688 719 c 128,-1,39
 1008.98144531 606 1008.98144531 606 983.005859375 442 c 0,40,41
 961.307617188 305 961.307617188 305 895.676757812 200 c 128,-1,42
 830.046875 95 830.046875 95 731.623046875 35.5 c 128,-1,43
 633.19921875 -24 633.19921875 -24 513.19921875 -24 c 0,0,1
EndSplineSet
EndChar

StartChar: t
Encoding: 116 116 415
Width: 922
VWidth: 2441
GlyphClass: 2
Flags: HW
AnchorPoint: "Anchor-4" 492.688 762 basechar 0
AnchorPoint: "Anchor-2" 463 0 basechar 0
AnchorPoint: "Anchor-1" 760.757 1116 basechar 0
AnchorPoint: "Anchor-0" 646.856 1426 basechar 0
LayerCount: 2
Fore
SplineSet
561.990234375 -19 m 0,0,1
 431.990234375 -19 431.990234375 -19 373.96875 44 c 128,-1,2
 315.947265625 107 315.947265625 107 315.883789062 245.5 c 0,3,4
 315.831054688 358.3515625 315.831054688 358.3515625 342.486328125 526.641601562 c 0,5,6
 348.543945312 564.888671875 348.543945312 564.888671875 355.981445312 606 c 2,7,-1
 425.158203125 967 l 1,8,-1
 210.158203125 967 l 1,9,-1
 232.6484375 1109 l 1,10,-1
 452.6484375 1109 l 1,11,-1
 508.0546875 1402 l 1,12,-1
 683.380859375 1423 l 1,13,-1
 707.856445312 1426 l 1,14,-1
 707.1640625 1409 l 1,15,16
 692.470703125 1392 692.470703125 1392 681.778320312 1375 c 128,-1,17
 671.0859375 1358 671.0859375 1358 659.43359375 1316 c 2,18,-1
 610.6484375 1109 l 1,19,-1
 960.6484375 1109 l 1,20,-1
 938.158203125 967 l 1,21,-1
 591.158203125 967 l 1,22,-1
 517.080078125 594 l 2,23,24
 505.580078125 535.454101562 505.580078125 535.454101562 497.630859375 485.26171875 c 0,25,26
 480.595703125 377.704101562 480.595703125 377.704101562 479.861328125 308.5 c 0,27,28
 478.78515625 207 478.78515625 207 510.87109375 166.5 c 128,-1,29
 542.956054688 126 542.956054688 126 608.956054688 126 c 0,30,31
 681.956054688 126 681.956054688 126 744.603515625 158.5 c 128,-1,32
 807.250976562 191 807.250976562 191 873.537109375 237 c 1,33,-1
 900.521484375 98 l 1,34,35
 815.860351562 37 815.860351562 37 731.92578125 9 c 128,-1,36
 647.990234375 -19 647.990234375 -19 561.990234375 -19 c 0,0,1
EndSplineSet
EndChar

StartChar: tbar
Encoding: 359 359 416
Width: 922
VWidth: 2441
GlyphClass: 2
Flags: HW
AnchorPoint: "Anchor-4" 492.688 762 basechar 0
AnchorPoint: "Anchor-2" 463 0 basechar 0
AnchorPoint: "Anchor-1" 760.757 1116 basechar 0
AnchorPoint: "Anchor-0" 646.856 1426 basechar 0
LayerCount: 2
Fore
SplineSet
126.2109375 538 m 1,0,-1
 148.068359375 676 l 1,1,-1
 369.068359375 676 l 1,2,-1
 425.158203125 967 l 1,3,-1
 210.158203125 967 l 1,4,-1
 232.6484375 1109 l 1,5,-1
 452.6484375 1109 l 1,6,-1
 508.0546875 1402 l 1,7,-1
 683.380859375 1423 l 1,8,-1
 707.856445312 1426 l 1,9,-1
 707.1640625 1409 l 1,10,11
 692.470703125 1392 692.470703125 1392 681.778320312 1375 c 128,-1,12
 671.0859375 1358 671.0859375 1358 659.43359375 1316 c 2,13,-1
 610.6484375 1109 l 1,14,-1
 960.6484375 1109 l 1,15,-1
 938.158203125 967 l 1,16,-1
 591.158203125 967 l 1,17,-1
 533.068359375 676 l 1,18,-1
 870.068359375 676 l 1,19,-1
 848.2109375 538 l 1,20,-1
 506.2109375 538 l 1,21,22
 503.155273438 520.111328125 503.155273438 520.111328125 500.461914062 503.104492188 c 0,23,24
 478.9140625 367.055664062 478.9140625 367.055664062 480.53515625 287.5 c 0,25,26
 482.360351562 198 482.360351562 198 515.158203125 162 c 128,-1,27
 547.956054688 126 547.956054688 126 608.956054688 126 c 0,28,29
 681.956054688 126 681.956054688 126 744.603515625 158.5 c 128,-1,30
 807.250976562 191 807.250976562 191 873.537109375 237 c 1,31,-1
 900.521484375 98 l 1,32,33
 815.860351562 37 815.860351562 37 731.92578125 9 c 128,-1,34
 647.990234375 -19 647.990234375 -19 561.990234375 -19 c 0,35,36
 377.990234375 -19 377.990234375 -19 335.66015625 111.5 c 0,37,38
 296.44140625 232.404296875 296.44140625 232.404296875 338.090820312 495.365234375 c 0,39,40
 341.395507812 516.235351562 341.395507812 516.235351562 345.2109375 538 c 1,41,-1
 126.2109375 538 l 1,0,-1
EndSplineSet
EndChar

StartChar: u
Encoding: 117 117 423
Width: 922
VWidth: 2441
GlyphClass: 2
Flags: HW
AnchorPoint: "Anchor-3" 736 0 basechar 0
AnchorPoint: "Anchor-2" 411 0 basechar 0
AnchorPoint: "Anchor-1" 1030.76 1116 basechar 0
AnchorPoint: "Anchor-0" 629.757 1116 basechar 0
LayerCount: 2
Fore
SplineSet
387.723632812 -27 m 0,0,1
 233.723632812 -27 233.723632812 -27 156.150390625 92.5 c 0,2,3
 80.916015625 208.397460938 80.916015625 208.397460938 123.481445312 477.142578125 c 0,4,5
 124.8046875 485.497070312 124.8046875 485.497070312 126.2421875 494 c 2,6,-1
 226.756835938 1116 l 1,7,-1
 387.756835938 1116 l 1,8,-1
 289.2421875 494 l 2,9,10
 265.326171875 343 265.326171875 343 281.837890625 261 c 128,-1,11
 298.350585938 179 298.350585938 179 343.044921875 145.5 c 128,-1,12
 387.739257812 112 387.739257812 112 448.739257812 112 c 0,13,14
 553.739257812 112 553.739257812 112 648.126953125 206 c 128,-1,15
 742.515625 300 742.515625 300 774.350585938 501 c 2,16,-1
 871.756835938 1116 l 1,17,-1
 1032.75683594 1116 l 1,18,-1
 883.400390625 173 l 2,19,20
 876.431640625 129 876.431640625 129 872.200195312 86.5 c 128,-1,21
 867.96875 44 867.96875 44 878 0 c 1,22,-1
 721 0 l 1,23,24
 710.65234375 42 710.65234375 42 714.145507812 83 c 128,-1,25
 717.639648438 124 717.639648438 124 724.291992188 166 c 1,26,27
 665.87890625 75 665.87890625 75 576.80078125 24 c 128,-1,28
 487.723632812 -27 487.723632812 -27 387.723632812 -27 c 0,0,1
EndSplineSet
EndChar

StartChar: v
Encoding: 118 118 446
Width: 922
VWidth: 2441
GlyphClass: 2
Flags: HW
AnchorPoint: "Anchor-2" 442 0 basechar 0
AnchorPoint: "Anchor-0" 618.757 1116 basechar 0
LayerCount: 2
Fore
SplineSet
378 0 m 1,0,-1
 168.756835938 1116 l 1,1,-1
 329.756835938 1116 l 1,2,-1
 488.12109375 247 l 1,3,-1
 706.583007812 654 l 2,4,5
 779.96484375 789 779.96484375 789 828.100585938 903.5 c 128,-1,6
 876.235351562 1018 876.235351562 1018 906.756835938 1116 c 1,7,-1
 1058.75683594 1116 l 1,8,9
 991.080078125 916 991.080078125 916 838.306640625 627 c 2,10,-1
 506 0 l 1,11,-1
 378 0 l 1,0,-1
EndSplineSet
EndChar

StartChar: w
Encoding: 119 119 447
Width: 922
VWidth: 2441
GlyphClass: 2
Flags: HW
AnchorPoint: "Anchor-2" 384 0 basechar 0
AnchorPoint: "Anchor-0" 560.757 1116 basechar 0
LayerCount: 2
Fore
SplineSet
109.68359375 -2 m 1,0,-1
 112.756835938 1116 l 1,1,-1
 240.756835938 1116 l 1,2,-1
 238.745117188 232 l 1,3,-1
 500.958984375 991 l 1,4,-1
 593.958984375 991 l 1,5,-1
 653.220703125 235 l 1,6,7
 708.897460938 435 708.897460938 435 745.516601562 571.5 c 128,-1,8
 782.135742188 708 782.135742188 708 804.866210938 801 c 128,-1,9
 827.595703125 894 827.595703125 894 840.811523438 958.5 c 128,-1,10
 854.02734375 1023 854.02734375 1023 862.896484375 1079 c 2,11,-1
 868.756835938 1116 l 1,12,-1
 1002.75683594 1116 l 1,13,14
 929.775390625 832 929.775390625 832 850.166015625 553.5 c 128,-1,15
 770.555664062 275 770.555664062 275 683.68359375 -2 c 1,16,-1
 542.68359375 -2 l 1,17,-1
 501.02734375 701 l 1,18,-1
 243.68359375 -2 l 1,19,-1
 109.68359375 -2 l 1,0,-1
EndSplineSet
EndChar

StartChar: x
Encoding: 120 120 452
Width: 922
VWidth: 2441
GlyphClass: 2
Flags: HW
AnchorPoint: "Anchor-2" 450 0 basechar 0
AnchorPoint: "Anchor-0" 626.757 1116 basechar 0
LayerCount: 2
Fore
SplineSet
8 0 m 1,0,-1
 445.645507812 566 l 1,1,-1
 191.756835938 1116 l 1,2,-1
 365.756835938 1116 l 1,3,-1
 557.135742188 708 l 1,4,-1
 868.756835938 1116 l 1,5,-1
 1030.75683594 1116 l 1,6,-1
 624.75390625 573 l 1,7,-1
 898 0 l 1,8,-1
 716 0 l 1,9,-1
 512.947265625 429 l 1,10,-1
 189 0 l 1,11,-1
 8 0 l 1,0,-1
EndSplineSet
EndChar

StartChar: y
Encoding: 121 121 453
Width: 922
VWidth: 2286
GlyphClass: 2
Flags: HW
AnchorPoint: "Anchor-2" 647.432 129 basechar 0
AnchorPoint: "Anchor-0" 576.757 1116 basechar 0
LayerCount: 2
Fore
SplineSet
116.037109375 -246 m 0,0,1
 -8.962890625 -246 -8.962890625 -246 -74.658203125 -162 c 1,2,-1
 2.130859375 -56 l 1,3,-1
 17.1396484375 -37 l 1,4,-1
 28.7138671875 -46 l 1,5,6
 30.021484375 -63 30.021484375 -63 37.462890625 -76 c 128,-1,7
 44.9033203125 -89 44.9033203125 -89 71.578125 -110 c 1,8,9
 104.8359375 -121 104.8359375 -121 143.676757812 -122 c 0,10,11
 221.676757812 -122 221.676757812 -122 272.313476562 -58 c 128,-1,12
 322.950195312 6 322.950195312 6 377.115234375 127 c 1,13,-1
 173.756835938 1116 l 1,14,-1
 323.756835938 1116 l 1,15,-1
 472.692382812 339 l 1,16,-1
 646.51171875 723 l 2,17,18
 690.192382812 822 690.192382812 822 732.634765625 919.5 c 128,-1,19
 775.077148438 1017 775.077148438 1017 801.756835938 1116 c 1,20,-1
 945.756835938 1116 l 1,21,22
 917.077148438 1017 917.077148438 1017 871.421875 915 c 128,-1,23
 825.766601562 813 825.766601562 813 778.76953125 712 c 2,24,-1
 446.850585938 18 l 2,25,26
 377.043945312 -126 377.043945312 -126 294.040039062 -186 c 128,-1,27
 211.037109375 -246 211.037109375 -246 116.037109375 -246 c 0,0,1
EndSplineSet
EndChar

StartChar: z
Encoding: 122 122 463
Width: 922
VWidth: 2441
GlyphClass: 2
Flags: HW
AnchorPoint: "Anchor-2" 467 0 basechar 0
AnchorPoint: "Anchor-0" 643.757 1116 basechar 0
LayerCount: 2
Fore
SplineSet
34.53125 117 m 1,0,-1
 789.158203125 967 l 1,1,-1
 215.158203125 967 l 1,2,-1
 238.756835938 1116 l 1,3,-1
 1017.75683594 1116 l 1,4,-1
 999.225585938 999 l 1,5,-1
 256.282226562 147 l 1,6,-1
 810.282226562 147 l 2,7,8
 852.282226562 147 852.282226562 147 869.995117188 151.5 c 128,-1,9
 887.708007812 156 887.708007812 156 904.92578125 170 c 1,10,-1
 920.92578125 170 l 1,11,-1
 894 0 l 1,12,-1
 16 0 l 1,13,-1
 34.53125 117 l 1,0,-1
EndSplineSet
EndChar

StartChar: u.i
Encoding: 65539 -1 468
Width: 922
VWidth: 2441
GlyphClass: 2
Flags: HW
AnchorPoint: "Anchor-3" 668 0 basechar 0
AnchorPoint: "Anchor-2" 358 0 basechar 0
AnchorPoint: "Anchor-1" 919.757 1116 basechar 0
AnchorPoint: "Anchor-0" 548.757 1116 basechar 0
LayerCount: 2
Fore
SplineSet
316.723632812 -27 m 0,0,1
 169.723632812 -27 169.723632812 -27 97.650390625 92.5 c 0,2,3
 27.1279296875 209.4296875 27.1279296875 209.4296875 70.2900390625 481.946289062 c 0,4,5
 71.23828125 487.935546875 71.23828125 487.935546875 72.2421875 494 c 2,6,-1
 173.756835938 1116 l 1,7,-1
 326.756835938 1116 l 1,8,-1
 228.2421875 494 l 2,9,10
 204.326171875 343 204.326171875 343 219.337890625 261 c 128,-1,11
 234.350585938 179 234.350585938 179 277.044921875 145.5 c 128,-1,12
 319.739257812 112 319.739257812 112 377.739257812 112 c 0,13,14
 475.739257812 112 475.739257812 112 566.126953125 206 c 128,-1,15
 656.515625 300 656.515625 300 688.350585938 501 c 2,16,-1
 785.756835938 1116 l 1,17,-1
 939.756835938 1116 l 1,18,-1
 790.400390625 173 l 2,19,20
 783.431640625 129 783.431640625 129 779.200195312 86.5 c 128,-1,21
 774.96875 44 774.96875 44 782 0 c 1,22,-1
 633 0 l 1,23,24
 625.65234375 42 625.65234375 42 628.645507812 83 c 128,-1,25
 631.639648438 124 631.639648438 124 638.291992188 166 c 1,26,27
 579.87890625 75 579.87890625 75 495.80078125 24 c 128,-1,28
 411.723632812 -27 411.723632812 -27 316.723632812 -27 c 0,0,1
EndSplineSet
EndChar

StartChar: r.serif
Encoding: 65540 -1 469
Width: 922
VWidth: 2441
GlyphClass: 1
Flags: HW
LayerCount: 2
Fore
SplineSet
46.68359375 -2 m 1,0,-1
 67.9072265625 132 l 1,1,-1
 206.907226562 132 l 1,2,-1
 340.583007812 976 l 1,3,-1
 206.583007812 976 l 1,4,-1
 228.756835938 1116 l 1,5,-1
 532.756835938 1116 l 1,6,-1
 492.49609375 906 l 1,7,8
 558.443359375 1013 558.443359375 1013 656.000976562 1076.5 c 128,-1,9
 753.55859375 1140 753.55859375 1140 860.55859375 1140 c 0,10,11
 1011.55859375 1140 1011.55859375 1140 1098.55175781 1020 c 1,12,-1
 997.943359375 852 l 1,13,14
 981.735351562 857 981.735351562 857 972.719726562 879 c 128,-1,15
 963.704101562 901 963.704101562 901 949.243164062 926.5 c 128,-1,16
 934.782226562 952 934.782226562 952 902.870117188 971.5 c 128,-1,17
 870.958984375 991 870.958984375 991 802.958984375 991 c 0,18,19
 730.958984375 991 730.958984375 991 652.456054688 931 c 128,-1,20
 573.953125 871 573.953125 871 515.010742188 773.5 c 128,-1,21
 456.068359375 676 456.068359375 676 437.853515625 561 c 2,22,-1
 369.907226562 132 l 1,23,-1
 576.907226562 132 l 1,24,-1
 555.68359375 -2 l 1,25,-1
 46.68359375 -2 l 1,0,-1
EndSplineSet
EndChar

StartChar: ordfeminine
Encoding: 170 170 470
Width: 922
VWidth: 2441
GlyphClass: 1
Flags: HW
LayerCount: 2
Fore
SplineSet
153.568359375 515 m 1,0,-1
 922.568359375 515 l 1,1,-1
 902.13671875 386 l 1,2,-1
 133.13671875 386 l 1,3,-1
 153.568359375 515 l 1,0,-1
405.329101562 886 m 0,4,5
 393.450195312 811 393.450195312 811 429.119140625 780.5 c 128,-1,6
 464.788085938 750 464.788085938 750 522.788085938 750 c 0,7,8
 746.788085938 750 746.788085938 750 810.095703125 1055 c 1,9,10
 741.204101562 1062 741.204101562 1062 682.204101562 1062 c 0,11,12
 565.204101562 1062 565.204101562 1062 492.630859375 1020.5 c 128,-1,13
 420.05859375 979 420.05859375 979 405.329101562 886 c 0,4,5
485.624023438 629 m 0,14,15
 361.624023438 629 361.624023438 629 304.2109375 699 c 128,-1,16
 246.797851562 769 246.797851562 769 263.427734375 874 c 0,17,18
 287.02734375 1023 287.02734375 1023 407.22265625 1100 c 128,-1,19
 527.418945312 1177 527.418945312 1177 693.418945312 1177 c 0,20,21
 723.418945312 1177 723.418945312 1177 757.180664062 1175.5 c 128,-1,22
 790.943359375 1174 790.943359375 1174 825.151367188 1169 c 1,23,24
 837.166992188 1308 837.166992188 1308 796.823242188 1359.5 c 128,-1,25
 756.48046875 1411 756.48046875 1411 658.48046875 1411 c 0,26,27
 604.48046875 1411 604.48046875 1411 553.733398438 1390.5 c 128,-1,28
 502.986328125 1370 502.986328125 1370 453.017578125 1326 c 1,29,-1
 398.747070312 1419 l 1,30,31
 461.93359375 1477 461.93359375 1477 534.868164062 1505 c 128,-1,32
 607.803710938 1533 607.803710938 1533 688.803710938 1533 c 0,33,34
 788.803710938 1533 788.803710938 1533 856.259765625 1498 c 128,-1,35
 923.716796875 1463 923.716796875 1463 948.303710938 1372 c 128,-1,36
 972.890625 1281 972.890625 1281 947.07421875 1118 c 2,37,-1
 873.266601562 652 l 1,38,-1
 729.266601562 652 l 1,39,-1
 748.58984375 774 l 1,40,41
 692.651367188 686 692.651367188 686 620.637695312 657.5 c 128,-1,42
 548.624023438 629 548.624023438 629 485.624023438 629 c 0,14,15
EndSplineSet
EndChar

StartChar: ordmasculine
Encoding: 186 186 471
Width: 922
VWidth: 2441
GlyphClass: 1
Flags: HW
LayerCount: 2
Fore
SplineSet
153.568359375 515 m 1,0,-1
 922.568359375 515 l 1,1,-1
 902.13671875 386 l 1,2,-1
 133.13671875 386 l 1,3,-1
 153.568359375 515 l 1,0,-1
576.213867188 759 m 128,-1,5
 667.213867188 759 667.213867188 759 735.4140625 845.5 c 128,-1,6
 803.614257812 932 803.614257812 932 828.005859375 1086 c 0,7,8
 852.713867188 1242 852.713867188 1242 810.096679688 1326.5 c 128,-1,9
 767.48046875 1411 767.48046875 1411 679.48046875 1411 c 128,-1,10
 591.48046875 1411 591.48046875 1411 521.596679688 1326.5 c 128,-1,11
 451.713867188 1242 451.713867188 1242 427.005859375 1086 c 0,12,13
 402.614257812 932 402.614257812 932 443.9140625 845.5 c 128,-1,4
 485.213867188 759 485.213867188 759 576.213867188 759 c 128,-1,5
556.416015625 634 m 0,14,15
 407.416015625 634 407.416015625 634 328.184570312 752.5 c 128,-1,16
 248.953125 871 248.953125 871 282.688476562 1084 c 0,17,18
 316.266601562 1296 316.266601562 1296 433.03515625 1414.5 c 128,-1,19
 549.803710938 1533 549.803710938 1533 698.803710938 1533 c 0,20,21
 849.803710938 1533 849.803710938 1533 927.53515625 1414.5 c 128,-1,22
 1005.26660156 1296 1005.26660156 1296 971.688476562 1084 c 128,-1,23
 938.111328125 872 938.111328125 872 822.763671875 753 c 128,-1,24
 707.416015625 634 707.416015625 634 556.416015625 634 c 0,14,15
EndSplineSet
EndChar

StartChar: uni2124
Encoding: 8484 8484 473
Width: 922
VWidth: 2441
GlyphClass: 1
Flags: HW
LayerCount: 2
Fore
SplineSet
1022.27246094 1416 m 1,0,-1
 895.272460938 1416 l 1,1,-1
 134.313476562 103 l 1,2,-1
 266.313476562 103 l 1,3,-1
 1022.27246094 1416 l 1,0,-1
1143.90234375 1521 m 1,4,-1
 1125.0546875 1402 l 1,5,-1
 375.313476562 103 l 1,6,-1
 812.313476562 103 l 2,7,8
 850.313476562 103 850.313476562 103 868.526367188 107.5 c 128,-1,9
 886.739257812 112 886.739257812 112 904.956054688 126 c 1,10,-1
 920.956054688 126 l 1,11,-1
 901 0 l 1,12,-1
 13 0 l 1,13,-1
 31.84765625 119 l 1,14,-1
 791.272460938 1416 l 1,15,-1
 242.272460938 1416 l 1,16,-1
 258.90234375 1521 l 1,17,-1
 1143.90234375 1521 l 1,4,-1
EndSplineSet
EndChar

StartChar: zero
Encoding: 48 48 474
Width: 922
VWidth: 2441
GlyphClass: 1
Flags: HW
LayerCount: 2
Fore
SplineSet
474.84765625 119 m 0,0,1
 596.84765625 119 596.84765625 119 691.926757812 280.5 c 128,-1,2
 787.005859375 442 787.005859375 442 836.10546875 752 c 0,3,4
 856.6953125 882 856.6953125 882 858.483398438 988 c 1,5,-1
 296.850585938 340 l 1,6,7
 330.84765625 119 330.84765625 119 474.84765625 119 c 0,0,1
313.10546875 752 m 0,8,9
 288.713867188 598 288.713867188 598 287.024414062 480 c 1,10,-1
 853.083007812 1137 l 1,11,12
 839.930664062 1256 839.930664062 1256 795.067382812 1320 c 128,-1,13
 750.204101562 1384 750.204101562 1384 675.204101562 1384 c 0,14,15
 553.204101562 1384 553.204101562 1384 456.595703125 1216 c 128,-1,16
 359.987304688 1048 359.987304688 1048 313.10546875 752 c 0,8,9
451.723632812 -27 m 128,-1,18
 246.723632812 -27 246.723632812 -27 166.7421875 172 c 128,-1,19
 86.7607421875 371 86.7607421875 371 147.10546875 752 c 0,20,21
 205.390625 1120 205.390625 1120 349.438476562 1325.5 c 128,-1,22
 493.486328125 1531 493.486328125 1531 698.486328125 1531 c 128,-1,23
 903.486328125 1531 903.486328125 1531 980.517578125 1326 c 128,-1,24
 1057.54882812 1121 1057.54882812 1121 999.10546875 752 c 0,25,26
 938.918945312 372 938.918945312 372 797.821289062 172.5 c 128,-1,17
 656.723632812 -27 656.723632812 -27 451.723632812 -27 c 128,-1,18
EndSplineSet
Substitution2: "'ss02' Style Set 2 in Latin lookup 36 subtable" zero.ss02
Substitution2: "'zero' Slashed Zero in Latin lookup 33 subtable" zero.zero
Substitution2: "'frac' Diagonal Fractions in Latin lookup 24 subtable" zero.numr
Substitution2: "'dnom' Denominators in Latin lookup 22 subtable" zero.dnom
Substitution2: "'numr' Numerators in Latin lookup 21 subtable" zero.numr
Substitution2: "'sups' Superscript in Latin lookup 20 subtable" uni2070
Substitution2: "'subs' Subscript in Latin lookup 19 subtable" uni2080
AlternateSubs2: "'aalt' Access All Alternates in Latin lookup 1 subtable" zero.zero zero.ss02 uni2080 zero.dnom zero.numr uni2070
EndChar

StartChar: one
Encoding: 49 49 475
Width: 922
VWidth: 2441
GlyphClass: 1
Flags: HW
LayerCount: 2
Fore
SplineSet
407 0 m 1,0,-1
 614.008789062 1307 l 1,1,-1
 322.595703125 1216 l 1,2,-1
 305.43359375 1316 l 1,3,-1
 699.219726562 1523 l 1,4,-1
 811.219726562 1523 l 1,5,-1
 570 0 l 1,6,-1
 407 0 l 1,0,-1
EndSplineSet
Substitution2: "'frac' Diagonal Fractions in Latin lookup 24 subtable" one.numr
Substitution2: "'dnom' Denominators in Latin lookup 22 subtable" one.dnom
Substitution2: "'numr' Numerators in Latin lookup 21 subtable" one.numr
Substitution2: "'sups' Superscript in Latin lookup 20 subtable" uni00B9
Substitution2: "'subs' Subscript in Latin lookup 19 subtable" uni2081
AlternateSubs2: "'aalt' Access All Alternates in Latin lookup 1 subtable" uni2081 one.dnom one.numr uni00B9
EndChar

StartChar: two
Encoding: 50 50 476
Width: 922
VWidth: 2441
GlyphClass: 1
Flags: HW
LayerCount: 2
Fore
SplineSet
88.3818359375 135 m 1,0,1
 319.860351562 359 319.860351562 359 487.018554688 521 c 128,-1,2
 654.176757812 683 654.176757812 683 751.716796875 819 c 128,-1,3
 849.256835938 955 849.256835938 955 874.380859375 1101 c 0,4,5
 899.564453125 1260 899.564453125 1260 843.383789062 1322 c 128,-1,6
 787.204101562 1384 787.204101562 1384 691.204101562 1384 c 0,7,8
 612.204101562 1384 612.204101562 1384 540.319335938 1350 c 128,-1,9
 468.43359375 1316 468.43359375 1316 402.396484375 1240 c 1,10,11
 377.536132812 1203 377.536132812 1203 369.84375 1186 c 128,-1,12
 362.151367188 1169 362.151367188 1169 363.142578125 1150 c 1,13,-1
 353.766601562 1135 l 1,14,-1
 334.825195312 1148 l 1,15,-1
 227.288085938 1233 l 1,16,17
 315.303710938 1372 315.303710938 1372 441.89453125 1451.5 c 128,-1,18
 568.486328125 1531 568.486328125 1531 712.486328125 1531 c 0,19,20
 891.486328125 1531 891.486328125 1531 980.3515625 1416.5 c 128,-1,21
 1069.21679688 1302 1069.21679688 1302 1036.74804688 1097 c 0,22,23
 1010.45605469 931 1010.45605469 931 902.540039062 780 c 128,-1,24
 794.624023438 629 794.624023438 629 634.311523438 475.5 c 128,-1,25
 474 322 474 322 295.282226562 147 c 1,26,-1
 786.282226562 147 l 2,27,28
 828.282226562 147 828.282226562 147 845.495117188 151.5 c 128,-1,29
 862.708007812 156 862.708007812 156 880.92578125 170 c 1,30,-1
 896.92578125 170 l 1,31,-1
 870 0 l 1,32,-1
 67 0 l 1,33,-1
 88.3818359375 135 l 1,0,1
EndSplineSet
Substitution2: "'frac' Diagonal Fractions in Latin lookup 24 subtable" two.numr
Substitution2: "'dnom' Denominators in Latin lookup 22 subtable" two.dnom
Substitution2: "'numr' Numerators in Latin lookup 21 subtable" two.numr
Substitution2: "'sups' Superscript in Latin lookup 20 subtable" uni00B2
Substitution2: "'subs' Subscript in Latin lookup 19 subtable" uni2082
AlternateSubs2: "'aalt' Access All Alternates in Latin lookup 1 subtable" uni2082 two.dnom two.numr uni00B2
EndChar

StartChar: three
Encoding: 51 51 477
Width: 922
VWidth: 2441
GlyphClass: 1
Flags: HW
LayerCount: 2
Fore
SplineSet
428.723632812 -27 m 0,0,1
 196.723632812 -27 196.723632812 -27 76.916015625 151 c 1,2,-1
 205.239257812 273 l 1,3,-1
 225.40625 293 l 1,4,-1
 236.505859375 281 l 1,5,6
 235.1796875 260 235.1796875 260 238.170898438 241 c 128,-1,7
 241.161132812 222 241.161132812 222 260.568359375 193 c 1,8,9
 294.024414062 158 294.024414062 158 336.278320312 137.5 c 128,-1,10
 378.53125 117 378.53125 117 444.53125 117 c 0,11,12
 574.53125 117 574.53125 117 650.073242188 202.5 c 128,-1,13
 725.614257812 288 725.614257812 288 747.155273438 424 c 0,14,15
 774.555664062 597 774.555664062 597 683.6171875 670 c 128,-1,16
 610.666992188 728.560546875 610.666992188 728.560546875 481.143554688 728.560546875 c 0,0,0
 449.206054688 728.560546875 449.206054688 728.560546875 413.829101562 725 c 1,17,-1
 435.051757812 859 l 1,18,19
 577.051757812 859 577.051757812 859 655.204101562 901 c 128,-1,20
 733.356445312 943 733.356445312 943 768.78515625 1012 c 128,-1,21
 804.213867188 1081 804.213867188 1081 816.725585938 1160 c 0,22,23
 833.672851562 1267 833.672851562 1267 790.596679688 1326.5 c 128,-1,24
 747.520507812 1386 747.520507812 1386 663.520507812 1386 c 0,25,26
 597.520507812 1386 597.520507812 1386 531.823242188 1359.5 c 128,-1,27
 466.125976562 1333 466.125976562 1333 400.46484375 1272 c 1,28,-1
 313.194335938 1365 l 1,29,30
 400.1328125 1453 400.1328125 1453 495.309570312 1492 c 128,-1,31
 590.486328125 1531 590.486328125 1531 686.486328125 1531 c 0,32,33
 852.486328125 1531 852.486328125 1531 931.251953125 1428.5 c 128,-1,34
 1010.01757812 1326 1010.01757812 1326 982.6171875 1153 c 0,35,36
 963.76953125 1034 963.76953125 1034 896.301757812 939.5 c 128,-1,37
 828.834960938 845 828.834960938 845 711.658203125 806 c 1,38,39
 822.005859375 764 822.005859375 764 878.879882812 668.5 c 128,-1,40
 935.75390625 573 935.75390625 573 911.045898438 417 c 0,41,42
 891.40625 293 891.40625 293 828.568359375 193 c 128,-1,43
 765.729492188 93 765.729492188 93 663.2265625 33 c 128,-1,44
 560.723632812 -27 560.723632812 -27 428.723632812 -27 c 0,0,1
EndSplineSet
Substitution2: "'frac' Diagonal Fractions in Latin lookup 24 subtable" three.numr
Substitution2: "'dnom' Denominators in Latin lookup 22 subtable" three.dnom
Substitution2: "'numr' Numerators in Latin lookup 21 subtable" three.numr
Substitution2: "'sups' Superscript in Latin lookup 20 subtable" uni00B3
Substitution2: "'subs' Subscript in Latin lookup 19 subtable" uni2083
AlternateSubs2: "'aalt' Access All Alternates in Latin lookup 1 subtable" uni2083 three.dnom three.numr uni00B3
EndChar

StartChar: four
Encoding: 52 52 478
Width: 922
VWidth: 2441
GlyphClass: 1
Flags: HW
LayerCount: 2
Fore
SplineSet
269.884765625 517 m 1,0,-1
 656.884765625 517 l 1,1,-1
 763.953125 1193 l 1,2,-1
 269.884765625 517 l 1,0,-1
575 0 m 1,3,-1
 634.552734375 376 l 1,4,-1
 70.552734375 376 l 1,5,-1
 89.875 498 l 1,6,-1
 846.219726562 1523 l 1,7,-1
 977.219726562 1523 l 1,8,-1
 817.568359375 515 l 1,9,-1
 982.568359375 515 l 1,10,-1
 960.077148438 373 l 1,11,-1
 795.077148438 373 l 1,12,-1
 736 0 l 1,13,-1
 575 0 l 1,3,-1
EndSplineSet
Substitution2: "'frac' Diagonal Fractions in Latin lookup 24 subtable" four.numr
Substitution2: "'dnom' Denominators in Latin lookup 22 subtable" four.dnom
Substitution2: "'numr' Numerators in Latin lookup 21 subtable" four.numr
Substitution2: "'sups' Superscript in Latin lookup 20 subtable" uni2074
Substitution2: "'subs' Subscript in Latin lookup 19 subtable" uni2084
AlternateSubs2: "'aalt' Access All Alternates in Latin lookup 1 subtable" uni2084 four.dnom four.numr uni2074
EndChar

StartChar: five
Encoding: 53 53 479
Width: 922
VWidth: 2441
GlyphClass: 1
Flags: HW
LayerCount: 2
Fore
SplineSet
448.723632812 -27 m 0,0,1
 324.723632812 -27 324.723632812 -27 225.068359375 32 c 128,-1,2
 125.413085938 91 125.413085938 91 77.15234375 203 c 1,3,-1
 216.198242188 298 l 1,4,-1
 239.416015625 312 l 1,5,-1
 246.515625 300 l 1,6,7
 243.505859375 281 243.505859375 281 246.813476562 264 c 128,-1,8
 250.12109375 247 250.12109375 247 269.052734375 215 c 0,9,10
 303.291992188 166 303.291992188 166 353.069335938 142.5 c 128,-1,11
 402.84765625 119 402.84765625 119 478.84765625 119 c 0,12,13
 583.84765625 119 583.84765625 119 677.131835938 215.5 c 128,-1,14
 770.416015625 312 770.416015625 312 797.974609375 486 c 0,15,16
 825.375 659 825.375 659 761.500976562 754.5 c 128,-1,17
 697.626953125 850 697.626953125 850 582.626953125 850 c 0,18,19
 433.626953125 850 433.626953125 850 306.135742188 708 c 1,20,-1
 212.313476562 747 l 1,21,-1
 378.90234375 1521 l 1,22,-1
 1073.90234375 1521 l 1,23,-1
 1049.98632812 1370 l 1,24,-1
 493.986328125 1370 l 1,25,-1
 402.297851562 930 l 1,26,27
 521.166992188 986 521.166992188 986 633.166992188 986 c 0,28,29
 812.166992188 986 812.166992188 986 905.443359375 852 c 128,-1,30
 998.719726562 718 998.719726562 718 960.708007812 478 c 128,-1,31
 922.6953125 238 922.6953125 238 779.709960938 105.5 c 128,-1,32
 636.723632812 -27 636.723632812 -27 448.723632812 -27 c 0,0,1
EndSplineSet
Substitution2: "'frac' Diagonal Fractions in Latin lookup 24 subtable" five.numr
Substitution2: "'dnom' Denominators in Latin lookup 22 subtable" five.dnom
Substitution2: "'numr' Numerators in Latin lookup 21 subtable" five.numr
Substitution2: "'sups' Superscript in Latin lookup 20 subtable" uni2075
Substitution2: "'subs' Subscript in Latin lookup 19 subtable" uni2085
AlternateSubs2: "'aalt' Access All Alternates in Latin lookup 1 subtable" uni2085 five.dnom five.numr uni2075
EndChar

StartChar: six
Encoding: 54 54 480
Width: 922
VWidth: 2441
GlyphClass: 1
Flags: HW
LayerCount: 2
Fore
SplineSet
506.639648438 124 m 0,0,1
 599.639648438 124 599.639648438 124 681.2109375 216 c 128,-1,2
 762.782226562 308 762.782226562 308 790.024414062 480 c 0,3,4
 819.166992188 664 819.166992188 664 757.971679688 748 c 128,-1,5
 696.775390625 832 696.775390625 832 613.775390625 832 c 0,6,7
 534.775390625 832 534.775390625 832 456.748046875 775 c 128,-1,8
 378.719726562 718 378.719726562 718 321.098632812 632 c 1,9,10
 311.5234375 596.799804688 311.5234375 596.799804688 305.923828125 561.440429688 c 0,0,0
 297.522460938 508.400390625 297.522460938 508.400390625 298.064453125 455 c 128,-1,11
 298.96875 366 298.96875 366 322.168945312 291.5 c 128,-1,12
 345.369140625 217 345.369140625 217 392.004882812 170.5 c 128,-1,13
 438.639648438 124 438.639648438 124 506.639648438 124 c 0,0,1
475.19921875 -24 m 0,14,15
 270.19921875 -24 270.19921875 -24 189.633789062 165 c 128,-1,16
 109.068359375 354 109.068359375 354 162.918945312 694 c 0,17,18
 228.96484375 1111 228.96484375 1111 393.280273438 1324.5 c 128,-1,19
 557.595703125 1538 557.595703125 1538 778.595703125 1538 c 0,20,21
 957.595703125 1538 957.595703125 1538 1059.73828125 1400 c 1,22,-1
 942.256835938 1277 l 1,23,-1
 925.248046875 1258 l 1,24,-1
 915.1484375 1270 l 1,25,26
 916.157226562 1289 916.157226562 1289 911.849609375 1306 c 128,-1,27
 907.54296875 1323 907.54296875 1323 883.977539062 1351 c 1,28,29
 840.275390625 1389.02539062 840.275390625 1389.02539062 763.932617188 1389.02539062 c 0,0,0
 761.974609375 1389.02539062 761.974609375 1389.02539062 759.99609375 1389 c 0,30,31
 715.99609375 1389 715.99609375 1389 657.51171875 1367 c 128,-1,32
 599.02734375 1345 599.02734375 1345 538.365234375 1284 c 128,-1,33
 477.704101562 1223 477.704101562 1223 425.806640625 1110 c 128,-1,34
 373.909179688 997 373.909179688 997 343.083007812 815 c 1,35,36
 401.595703125 894 401.595703125 894 483.985351562 937.5 c 128,-1,37
 566.375 981 566.375 981 655.375 981 c 0,38,39
 758.375 981 758.375 981 832.055664062 919 c 128,-1,40
 905.735351562 857 905.735351562 857 938.075195312 745.5 c 128,-1,41
 970.416015625 634 970.416015625 634 946.658203125 484 c 0,42,43
 922.7421875 333 922.7421875 333 853.52734375 218 c 128,-1,44
 784.313476562 103 784.313476562 103 685.755859375 39.5 c 128,-1,45
 587.19921875 -24 587.19921875 -24 475.19921875 -24 c 0,14,15
EndSplineSet
Substitution2: "'frac' Diagonal Fractions in Latin lookup 24 subtable" six.numr
Substitution2: "'dnom' Denominators in Latin lookup 22 subtable" six.dnom
Substitution2: "'numr' Numerators in Latin lookup 21 subtable" six.numr
Substitution2: "'sups' Superscript in Latin lookup 20 subtable" uni2076
Substitution2: "'subs' Subscript in Latin lookup 19 subtable" uni2086
AlternateSubs2: "'aalt' Access All Alternates in Latin lookup 1 subtable" uni2086 six.dnom six.numr uni2076
EndChar

StartChar: seven
Encoding: 55 55 481
Width: 922
VWidth: 2441
GlyphClass: 1
Flags: HW
LayerCount: 2
Fore
SplineSet
243 0 m 1,0,1
 393.276367188 349 393.276367188 349 548.047851562 688.5 c 128,-1,2
 702.819335938 1028 702.819335938 1028 874.194335938 1365 c 1,3,-1
 295.194335938 1365 l 1,4,-1
 319.90234375 1521 l 1,5,-1
 1096.90234375 1521 l 1,6,-1
 1082.17285156 1428 l 1,7,8
 902.421875 1076 902.421875 1076 737.1953125 721 c 128,-1,9
 571.96875 366 571.96875 366 423 0 c 1,10,-1
 243 0 l 1,0,1
EndSplineSet
Substitution2: "'frac' Diagonal Fractions in Latin lookup 24 subtable" seven.numr
Substitution2: "'dnom' Denominators in Latin lookup 22 subtable" seven.dnom
Substitution2: "'numr' Numerators in Latin lookup 21 subtable" seven.numr
Substitution2: "'sups' Superscript in Latin lookup 20 subtable" uni2077
Substitution2: "'subs' Subscript in Latin lookup 19 subtable" uni2087
AlternateSubs2: "'aalt' Access All Alternates in Latin lookup 1 subtable" uni2087 seven.dnom seven.numr uni2077
EndChar

StartChar: eight
Encoding: 56 56 482
Width: 922
VWidth: 2441
GlyphClass: 1
Flags: HW
LayerCount: 2
Fore
SplineSet
479.639648438 124 m 0,0,1
 601.639648438 124 601.639648438 124 679.073242188 202.5 c 128,-1,2
 756.505859375 281 756.505859375 281 774.245117188 393 c 0,3,4
 792.30078125 507 792.30078125 507 730.872070312 599 c 128,-1,5
 669.443359375 691 669.443359375 691 548.204101562 740 c 1,6,7
 440.918945312 694 440.918945312 694 363.243164062 604.5 c 128,-1,8
 285.568359375 515 285.568359375 515 267.51171875 401 c 0,9,10
 249.7734375 289 249.7734375 289 305.206054688 206.5 c 128,-1,11
 360.639648438 124 360.639648438 124 479.639648438 124 c 0,0,1
632.219726562 879 m 1,12,13
 720.98046875 928 720.98046875 928 783.151367188 1008 c 128,-1,14
 845.322265625 1088 845.322265625 1088 858.943359375 1174 c 0,15,16
 873.356445312 1265 873.356445312 1265 831.546875 1332.5 c 128,-1,17
 789.73828125 1400 789.73828125 1400 684.73828125 1400 c 128,-1,18
 579.73828125 1400 579.73828125 1400 519.206054688 1333.5 c 128,-1,19
 458.672851562 1267 458.672851562 1267 445.051757812 1181 c 0,20,21
 427.3125 1069 427.3125 1069 483.09765625 1004.5 c 128,-1,22
 538.881835938 940 538.881835938 940 632.219726562 879 c 1,12,13
452.19921875 -24 m 0,23,24
 322.19921875 -24 322.19921875 -24 236.671875 29.5 c 128,-1,25
 151.145507812 83 151.145507812 83 115.796875 175.5 c 128,-1,26
 80.447265625 268 80.447265625 268 98.8193359375 384 c 0,27,28
 120.518554688 521 120.518554688 521 211.416015625 634 c 128,-1,29
 302.313476562 747 302.313476562 747 439.450195312 811 c 1,30,31
 353.002929688 865 353.002929688 865 312.048828125 960 c 128,-1,32
 271.095703125 1055 271.095703125 1055 288.517578125 1165 c 0,33,34
 313.701171875 1324 313.701171875 1324 420.806640625 1432 c 128,-1,35
 527.912109375 1540 527.912109375 1540 710.912109375 1540 c 0,36,37
 898.912109375 1540 898.912109375 1540 969.28125 1435 c 128,-1,38
 1039.65136719 1330 1039.65136719 1330 1015.73535156 1179 c 0,39,40
 998.3125 1069 998.3125 1069 925.1328125 970 c 128,-1,41
 851.953125 871 851.953125 871 742.766601562 813 c 1,42,43
 852.10546875 752 852.10546875 752 905.4453125 640.5 c 128,-1,44
 958.78515625 529 958.78515625 529 937.245117188 393 c 0,45,46
 908.577148438 212 908.577148438 212 776.887695312 94 c 128,-1,47
 645.19921875 -24 645.19921875 -24 452.19921875 -24 c 0,23,24
EndSplineSet
Substitution2: "'frac' Diagonal Fractions in Latin lookup 24 subtable" eight.numr
Substitution2: "'dnom' Denominators in Latin lookup 22 subtable" eight.dnom
Substitution2: "'numr' Numerators in Latin lookup 21 subtable" eight.numr
Substitution2: "'sups' Superscript in Latin lookup 20 subtable" uni2078
Substitution2: "'subs' Subscript in Latin lookup 19 subtable" uni2088
AlternateSubs2: "'aalt' Access All Alternates in Latin lookup 1 subtable" uni2088 eight.dnom eight.numr uni2078
EndChar

StartChar: nine
Encoding: 57 57 483
Width: 922
VWidth: 2441
GlyphClass: 1
Flags: HW
LayerCount: 2
Fore
SplineSet
375.245117188 1037 m 0,0,1
 352.4375 893 352.4375 893 412.395507812 807.5 c 128,-1,2
 472.353515625 722 472.353515625 722 570.353515625 722 c 0,3,4
 661.353515625 722 661.353515625 722 726.288085938 750 c 128,-1,5
 791.22265625 778 791.22265625 778 850.518554688 843 c 1,6,7
 887.548828125 1121 887.548828125 1121 845.376953125 1252.5 c 128,-1,8
 803.204101562 1384 803.204101562 1384 675.204101562 1384 c 0,9,10
 568.204101562 1384 568.204101562 1384 485.028320312 1294.5 c 128,-1,11
 401.853515625 1205 401.853515625 1205 375.245117188 1037 c 0,0,1
403.19921875 -24 m 1,12,13
 203.19921875 -24 203.19921875 -24 96.7392578125 112 c 1,14,-1
 208.428710938 230 l 1,15,-1
 229.913085938 252 l 1,16,-1
 240.012695312 240 l 1,17,18
 239.002929688 221 239.002929688 221 244.731445312 203.5 c 128,-1,19
 250.459960938 186 250.459960938 186 275.708007812 156 c 1,20,21
 327.84765625 119 327.84765625 119 413.84765625 119 c 0,22,23
 518.84765625 119 518.84765625 119 597.939453125 198.5 c 128,-1,24
 677.03125 278 677.03125 278 733.3828125 406.5 c 128,-1,25
 789.735351562 535 789.735351562 535 821.384765625 678 c 1,26,27
 763.098632812 632 763.098632812 632 696.322265625 605 c 128,-1,28
 629.545898438 578 629.545898438 578 544.545898438 578 c 0,29,30
 432.545898438 578 432.545898438 578 351.232421875 636 c 128,-1,31
 269.918945312 694 269.918945312 694 233.811523438 797.5 c 128,-1,32
 197.704101562 901 197.704101562 901 218.927734375 1035 c 0,33,34
 242.52734375 1184 242.52734375 1184 313.6875 1295.5 c 128,-1,35
 384.846679688 1407 384.846679688 1407 484.166992188 1469 c 128,-1,36
 583.486328125 1531 583.486328125 1531 690.486328125 1531 c 0,37,38
 888.486328125 1531 888.486328125 1531 972.611328125 1355 c 128,-1,39
 1056.73535156 1179 1056.73535156 1179 1010.32910156 886 c 0,40,41
 936.521484375 420 936.521484375 420 781.255859375 200.5 c 128,-1,42
 625.990234375 -19 625.990234375 -19 403.19921875 -24 c 1,12,13
EndSplineSet
Substitution2: "'frac' Diagonal Fractions in Latin lookup 24 subtable" nine.numr
Substitution2: "'dnom' Denominators in Latin lookup 22 subtable" nine.dnom
Substitution2: "'numr' Numerators in Latin lookup 21 subtable" nine.numr
Substitution2: "'sups' Superscript in Latin lookup 20 subtable" uni2079
Substitution2: "'subs' Subscript in Latin lookup 19 subtable" uni2089
AlternateSubs2: "'aalt' Access All Alternates in Latin lookup 1 subtable" uni2089 nine.dnom nine.numr uni2079
EndChar

StartChar: zero.zero
Encoding: 65541 -1 484
Width: 922
VWidth: 2441
GlyphClass: 1
Flags: HW
LayerCount: 2
Fore
SplineSet
556.416015625 634 m 0,0,1
 500.416015625 634 500.416015625 634 469.434570312 672 c 128,-1,2
 438.453125 710 438.453125 710 447.005859375 764 c 128,-1,3
 455.55859375 818 455.55859375 818 500.577148438 856 c 128,-1,4
 545.595703125 894 545.595703125 894 597.595703125 894 c 0,5,6
 646.595703125 894 646.595703125 894 681.577148438 856 c 128,-1,7
 716.55859375 818 716.55859375 818 708.005859375 764 c 0,8,9
 699.927734375 713 699.927734375 713 655.171875 673.5 c 128,-1,10
 610.416015625 634 610.416015625 634 556.416015625 634 c 0,0,1
474.84765625 119 m 128,-1,12
 596.84765625 119 596.84765625 119 691.926757812 280.5 c 128,-1,13
 787.005859375 442 787.005859375 442 836.10546875 752 c 0,14,15
 882.987304688 1048 882.987304688 1048 839.595703125 1216 c 128,-1,16
 796.204101562 1384 796.204101562 1384 675.204101562 1384 c 0,17,18
 553.204101562 1384 553.204101562 1384 456.595703125 1216 c 128,-1,19
 359.987304688 1048 359.987304688 1048 313.10546875 752 c 0,20,21
 264.005859375 442 264.005859375 442 308.426757812 280.5 c 128,-1,11
 352.84765625 119 352.84765625 119 474.84765625 119 c 128,-1,12
451.723632812 -27 m 128,-1,23
 246.723632812 -27 246.723632812 -27 166.7421875 172 c 128,-1,24
 86.7607421875 371 86.7607421875 371 147.10546875 752 c 0,25,26
 205.390625 1120 205.390625 1120 349.438476562 1325.5 c 128,-1,27
 493.486328125 1531 493.486328125 1531 698.486328125 1531 c 128,-1,28
 903.486328125 1531 903.486328125 1531 980.517578125 1326 c 128,-1,29
 1057.54882812 1121 1057.54882812 1121 999.10546875 752 c 0,30,31
 938.918945312 372 938.918945312 372 797.821289062 172.5 c 128,-1,22
 656.723632812 -27 656.723632812 -27 451.723632812 -27 c 128,-1,23
EndSplineSet
EndChar

StartChar: zero.ss02
Encoding: 65542 -1 485
Width: 922
VWidth: 2441
GlyphClass: 1
Flags: HW
LayerCount: 2
Fore
SplineSet
474.84765625 119 m 128,-1,1
 596.84765625 119 596.84765625 119 691.926757812 280.5 c 128,-1,2
 787.005859375 442 787.005859375 442 836.10546875 752 c 0,3,4
 882.987304688 1048 882.987304688 1048 839.595703125 1216 c 128,-1,5
 796.204101562 1384 796.204101562 1384 675.204101562 1384 c 0,6,7
 553.204101562 1384 553.204101562 1384 456.595703125 1216 c 128,-1,8
 359.987304688 1048 359.987304688 1048 313.10546875 752 c 0,9,10
 264.005859375 442 264.005859375 442 308.426757812 280.5 c 128,-1,0
 352.84765625 119 352.84765625 119 474.84765625 119 c 128,-1,1
451.723632812 -27 m 128,-1,12
 246.723632812 -27 246.723632812 -27 166.7421875 172 c 128,-1,13
 86.7607421875 371 86.7607421875 371 147.10546875 752 c 0,14,15
 205.390625 1120 205.390625 1120 349.438476562 1325.5 c 128,-1,16
 493.486328125 1531 493.486328125 1531 698.486328125 1531 c 128,-1,17
 903.486328125 1531 903.486328125 1531 980.517578125 1326 c 128,-1,18
 1057.54882812 1121 1057.54882812 1121 999.10546875 752 c 0,19,20
 938.918945312 372 938.918945312 372 797.821289062 172.5 c 128,-1,11
 656.723632812 -27 656.723632812 -27 451.723632812 -27 c 128,-1,12
EndSplineSet
EndChar

StartChar: uni2070
Encoding: 8304 8304 516
Width: 922
VWidth: 2441
GlyphClass: 1
Flags: HW
LayerCount: 2
Fore
SplineSet
565.443359375 691 m 0,0,1
 648.443359375 691 648.443359375 691 709.6484375 787 c 128,-1,2
 770.853515625 883 770.853515625 883 799.99609375 1067 c 0,3,4
 811.55859375 1140 811.55859375 1140 814.6953125 1204 c 1,5,-1
 443.55859375 818 l 1,6,7
 467.443359375 691 467.443359375 691 565.443359375 691 c 0,0,1
447.99609375 1067 m 0,8,9
 434.375 981 434.375 981 435.080078125 916 c 1,10,-1
 807.008789062 1307 l 1,11,12
 783.056640625 1442.02832031 783.056640625 1442.02832031 687.204101562 1442.02832031 c 0,13,14
 685.8046875 1442.02832031 685.8046875 1442.02832031 684.390625 1442 c 0,15,16
 601.390625 1442 601.390625 1442 538.551757812 1342 c 128,-1,17
 475.713867188 1242 475.713867188 1242 447.99609375 1067 c 0,8,9
548.337890625 583 m 128,-1,19
 406.337890625 583 406.337890625 583 346.3984375 706.5 c 128,-1,20
 286.458984375 830 286.458984375 830 323.99609375 1067 c 0,21,22
 360.424804688 1297 360.424804688 1297 460.198242188 1425 c 128,-1,23
 559.970703125 1553 559.970703125 1553 701.970703125 1553 c 128,-1,24
 843.970703125 1553 843.970703125 1553 902.618164062 1424.5 c 128,-1,25
 961.266601562 1296 961.266601562 1296 924.99609375 1067 c 0,26,27
 887.458984375 830 887.458984375 830 788.8984375 706.5 c 128,-1,18
 690.337890625 583 690.337890625 583 548.337890625 583 c 128,-1,19
EndSplineSet
Substitution2: "'ss02' Style Set 2 in Latin lookup 36 subtable" uni2070.ss02
Substitution2: "'zero' Slashed Zero in Latin lookup 33 subtable" uni2070.zero
AlternateSubs2: "'aalt' Access All Alternates in Latin lookup 1 subtable" uni2070.ss02 uni2070.zero
EndChar

StartChar: uni00B9
Encoding: 185 185 517
Width: 922
VWidth: 2441
GlyphClass: 1
Flags: HW
LayerCount: 2
Fore
SplineSet
509.189453125 601 m 1,0,-1
 633.99609375 1389 l 1,1,-1
 444.125976562 1333 l 1,2,-1
 427.956054688 1414 l 1,3,-1
 692.704101562 1545 l 1,4,-1
 784.704101562 1545 l 1,5,-1
 635.189453125 601 l 1,6,-1
 509.189453125 601 l 1,0,-1
EndSplineSet
EndChar

StartChar: uni00B2
Encoding: 178 178 518
Width: 922
VWidth: 2441
GlyphClass: 1
Flags: HW
LayerCount: 2
Fore
SplineSet
291.7109375 699 m 1,0,1
 450.7265625 838 450.7265625 838 563.08984375 935 c 128,-1,2
 675.453125 1032 675.453125 1032 738.203125 1112.5 c 128,-1,3
 800.953125 1193 800.953125 1193 816.890625 1281 c 0,4,5
 830.51171875 1367 830.51171875 1367 793.29296875 1403.5 c 128,-1,6
 756.073242188 1440 756.073242188 1440 693.073242188 1440 c 0,7,8
 602.073242188 1440 602.073242188 1440 533.99609375 1389 c 1,9,10
 504.927734375 1357 504.927734375 1357 495.735351562 1340 c 128,-1,11
 486.54296875 1323 486.54296875 1323 485.216796875 1302 c 1,12,-1
 474.157226562 1289 l 1,13,-1
 457.533203125 1304 l 1,14,-1
 374.986328125 1370 l 1,15,16
 437.607421875 1456 437.607421875 1456 523.2890625 1504.5 c 128,-1,17
 608.970703125 1553 608.970703125 1553 710.970703125 1553 c 0,18,19
 829.970703125 1553 829.970703125 1553 895.567382812 1481 c 128,-1,20
 961.1640625 1409 961.1640625 1409 940.890625 1281 c 0,21,22
 924.577148438 1178 924.577148438 1178 859.797851562 1091 c 128,-1,23
 795.017578125 1004 795.017578125 1004 693.946289062 912 c 128,-1,24
 592.875 820 592.875 820 470.453125 710 c 1,25,-1
 748.453125 710 l 2,26,27
 790.453125 710 790.453125 710 808.245117188 715 c 128,-1,28
 826.037109375 720 826.037109375 720 842.25390625 734 c 1,29,-1
 859.25390625 734 l 1,30,-1
 838.189453125 601 l 1,31,-1
 276.189453125 601 l 1,32,-1
 291.7109375 699 l 1,0,1
EndSplineSet
EndChar

StartChar: uni00B3
Encoding: 179 179 519
Width: 922
VWidth: 2441
GlyphClass: 1
Flags: HW
LayerCount: 2
Fore
SplineSet
530.337890625 583 m 0,0,1
 449.337890625 583 449.337890625 583 384.58984375 613 c 128,-1,2
 319.840820312 643 319.840820312 643 279.235351562 696 c 1,3,-1
 372.014648438 783 l 1,4,-1
 392.182617188 803 l 1,5,-1
 402.440429688 792 l 1,6,7
 399.431640625 773 399.431640625 773 407.817382812 756.5 c 128,-1,8
 416.204101562 740 416.204101562 740 440.927734375 713 c 1,9,10
 460.344726562 703 460.344726562 703 485.893554688 697 c 128,-1,11
 511.443359375 691 511.443359375 691 542.443359375 691 c 0,12,13
 623.443359375 691 623.443359375 691 674.966796875 738.5 c 128,-1,14
 726.490234375 786 726.490234375 786 739.319335938 867 c 0,15,16
 755.6328125 970 755.6328125 970 692.46875 1010 c 0,17,18
 642.927734375 1041.37207031 642.927734375 1041.37207031 557.352539062 1041.37207031 c 0,19,20
 533.819335938 1041.37207031 533.819335938 1041.37207031 507.561523438 1039 c 1,21,-1
 523.875 1142 l 1,22,23
 529.108398438 1141.92480469 529.108398438 1141.92480469 534.219726562 1141.92480469 c 0,24,25
 664.561523438 1141.92480469 664.561523438 1141.92480469 715.635742188 1191 c 0,26,27
 768.713867188 1242 768.713867188 1242 780.1171875 1314 c 0,28,29
 789.778320312 1375 789.778320312 1375 757.584960938 1408.5 c 128,-1,30
 725.390625 1442 725.390625 1442 669.390625 1442 c 0,31,32
 625.390625 1442 625.390625 1442 581.435546875 1426.5 c 128,-1,33
 537.48046875 1411 537.48046875 1411 494.303710938 1372 c 1,34,-1
 425.865234375 1445 l 1,35,36
 485.735351562 1501 485.735351562 1501 554.353515625 1527 c 128,-1,37
 622.970703125 1553 622.970703125 1553 689.970703125 1553 c 0,38,39
 806.970703125 1553 806.970703125 1553 866.17578125 1488 c 128,-1,40
 925.380859375 1423 925.380859375 1423 908.43359375 1316 c 0,41,42
 896.5546875 1241 896.5546875 1241 850.369140625 1183 c 128,-1,43
 804.182617188 1125 804.182617188 1125 732.380859375 1101 c 1,44,45
 801.580078125 1077 801.580078125 1077 841.314453125 1018.5 c 128,-1,46
 881.048828125 960 881.048828125 960 865.52734375 862 c 0,47,48
 846.6796875 743 846.6796875 743 758.008789062 663 c 128,-1,49
 669.337890625 583 669.337890625 583 530.337890625 583 c 0,0,1
EndSplineSet
EndChar

StartChar: uni2074
Encoding: 8308 8308 520
Width: 922
VWidth: 2441
GlyphClass: 1
Flags: HW
LayerCount: 2
Fore
SplineSet
440.08984375 935 m 1,0,-1
 694.08984375 935 l 1,1,-1
 754.1171875 1314 l 1,2,-1
 440.08984375 935 l 1,0,-1
639.189453125 601 m 1,3,-1
 674.984375 827 l 1,4,-1
 280.984375 827 l 1,5,-1
 295.396484375 918 l 1,6,-1
 816.704101562 1545 l 1,7,-1
 917.704101562 1545 l 1,8,-1
 821.08984375 935 l 1,9,-1
 940.08984375 935 l 1,10,-1
 922.666992188 825 l 1,11,-1
 803.666992188 825 l 1,12,-1
 768.189453125 601 l 1,13,-1
 639.189453125 601 l 1,3,-1
EndSplineSet
EndChar

StartChar: uni2075
Encoding: 8309 8309 521
Width: 922
VWidth: 2441
GlyphClass: 1
Flags: HW
LayerCount: 2
Fore
SplineSet
548.337890625 583 m 0,0,1
 460.337890625 583 460.337890625 583 390.198242188 620 c 128,-1,2
 320.05859375 657 320.05859375 657 284.145507812 727 c 1,3,-1
 388.866210938 801 l 1,4,-1
 411.083007812 815 l 1,5,-1
 418.866210938 801 l 1,6,7
 413.856445312 782 413.856445312 782 421.98046875 767 c 128,-1,8
 430.10546875 752 430.10546875 752 455.353515625 722 c 1,9,10
 494.024414062 693.875 494.024414062 693.875 559.122070312 693.875 c 0,11,12
 563.461914062 693.875 563.461914062 693.875 567.918945312 694 c 0,13,14
 637.918945312 694 637.918945312 694 698.05078125 748.5 c 128,-1,15
 758.182617188 803 758.182617188 803 773.704101562 901 c 0,16,17
 790.017578125 1004 790.017578125 1004 745.991210938 1057.5 c 128,-1,18
 701.96484375 1111 701.96484375 1111 626.96484375 1111 c 0,19,20
 526.96484375 1111 526.96484375 1111 447.135742188 1030 c 1,21,-1
 371.412109375 1057 l 1,22,-1
 479.38671875 1543 l 1,23,-1
 963.38671875 1543 l 1,24,-1
 945.96484375 1433 l 1,25,-1
 572.96484375 1433 l 1,26,-1
 517.051757812 1181 l 1,27,28
 588.912109375 1218 588.912109375 1218 671.912109375 1218 c 0,29,30
 793.912109375 1218 793.912109375 1218 858.345703125 1135.5 c 128,-1,31
 922.779296875 1053 922.779296875 1053 899.1796875 904 c 0,32,33
 875.263671875 753 875.263671875 753 777.80078125 668 c 128,-1,34
 680.337890625 583 680.337890625 583 548.337890625 583 c 0,0,1
EndSplineSet
EndChar

StartChar: uni2076
Encoding: 8310 8310 522
Width: 922
VWidth: 2441
GlyphClass: 1
Flags: HW
LayerCount: 2
Fore
SplineSet
585.235351562 696 m 0,0,1
 646.235351562 696 646.235351562 696 698.708984375 749.5 c 128,-1,2
 751.182617188 803 751.182617188 803 767.1796875 904 c 0,3,4
 783.809570312 1009 783.809570312 1009 742.333007812 1056.5 c 128,-1,5
 700.856445312 1104 700.856445312 1104 646.856445312 1104 c 0,6,7
 597.856445312 1104 597.856445312 1104 546.208984375 1071.5 c 128,-1,8
 494.561523438 1039 494.561523438 1039 458.958984375 991 c 1,9,10
 455.442382812 975.375 455.442382812 975.375 453.01953125 960.075195312 c 0,11,12
 443.811523438 901.9375 443.811523438 901.9375 450.389648438 848.5 c 0,13,14
 458.698242188 781 458.698242188 781 493.966796875 738.5 c 128,-1,15
 529.235351562 696 529.235351562 696 585.235351562 696 c 0,0,1
562.971679688 587 m 0,16,17
 420.971679688 587 420.971679688 587 362.661132812 705 c 128,-1,18
 304.350585938 823 304.350585938 823 337.135742188 1030 c 0,19,20
 377.682617188 1286 377.682617188 1286 491.064453125 1421 c 128,-1,21
 604.446289062 1556 604.446289062 1556 758.446289062 1556 c 0,22,23
 884.446289062 1556 884.446289062 1556 958.349609375 1467 c 1,24,-1
 874.412109375 1379 l 1,25,-1
 853.877929688 1363 l 1,26,-1
 843.303710938 1372 l 1,27,28
 844.3125 1391 844.3125 1391 835.29296875 1403.5 c 128,-1,29
 826.272460938 1416 826.272460938 1416 797.28125 1435 c 1,30,31
 771.390625 1442 771.390625 1442 744.390625 1442 c 0,32,33
 705.390625 1442 705.390625 1442 651.747070312 1419 c 128,-1,34
 598.104492188 1396 598.104492188 1396 550.67578125 1327 c 128,-1,35
 503.248046875 1258 503.248046875 1258 476.548828125 1121 c 1,36,37
 515.517578125 1165 515.517578125 1165 570.3984375 1189.5 c 128,-1,38
 625.278320312 1214 625.278320312 1214 681.278320312 1214 c 0,39,40
 788.278320312 1214 788.278320312 1214 850.291015625 1132 c 128,-1,41
 912.303710938 1050 912.303710938 1050 889.49609375 906 c 0,42,43
 867.005859375 764 867.005859375 764 774.48828125 675.5 c 128,-1,44
 681.971679688 587 681.971679688 587 562.971679688 587 c 0,16,17
EndSplineSet
EndChar

StartChar: uni2077
Encoding: 8311 8311 523
Width: 922
VWidth: 2441
GlyphClass: 1
Flags: HW
LayerCount: 2
Fore
SplineSet
394.189453125 601 m 1,0,1
 493.766601562 813 493.766601562 813 595.735351562 1018 c 128,-1,2
 697.704101562 1223 697.704101562 1223 808.172851562 1428 c 1,3,-1
 418.172851562 1428 l 1,4,-1
 436.38671875 1543 l 1,5,-1
 977.38671875 1543 l 1,6,-1
 966.141601562 1472 l 1,7,8
 846.088867188 1257 846.088867188 1257 738.377929688 1041 c 128,-1,9
 630.666992188 825 630.666992188 825 530.189453125 601 c 1,10,-1
 394.189453125 601 l 1,0,1
EndSplineSet
EndChar

StartChar: uni2078
Encoding: 8312 8312 524
Width: 922
VWidth: 2441
GlyphClass: 1
Flags: HW
LayerCount: 2
Fore
SplineSet
568.7109375 699 m 0,0,1
 649.7109375 699 649.7109375 699 698.704101562 740 c 128,-1,2
 747.698242188 781 747.698242188 781 758.626953125 850 c 0,3,4
 769.396484375 918 769.396484375 918 725.974609375 969 c 128,-1,5
 682.551757812 1020 682.551757812 1020 601.303710938 1050 c 1,6,7
 533.551757812 1020 533.551757812 1020 484.6328125 970 c 128,-1,8
 435.713867188 920 435.713867188 920 425.418945312 855 c 0,9,10
 414.6484375 787 414.6484375 787 454.1796875 743 c 128,-1,11
 493.7109375 699 493.7109375 699 568.7109375 699 c 0,0,1
660.825195312 1148 m 1,12,13
 716.893554688 1180 716.893554688 1180 757.6796875 1226 c 128,-1,14
 798.46484375 1272 798.46484375 1272 806.54296875 1323 c 128,-1,15
 814.620117188 1374 814.620117188 1374 784.901367188 1410.5 c 128,-1,16
 755.182617188 1447 755.182617188 1447 689.182617188 1447 c 128,-1,17
 623.182617188 1447 623.182617188 1447 583.638671875 1412 c 128,-1,18
 544.095703125 1377 544.095703125 1377 536.334960938 1328 c 0,19,20
 525.564453125 1260 525.564453125 1260 564.466796875 1221.5 c 128,-1,21
 603.369140625 1183 603.369140625 1183 660.825195312 1148 c 1,12,13
548.971679688 587 m 0,22,23
 413.971679688 587 413.971679688 587 345.795898438 658.5 c 128,-1,24
 277.62109375 730 277.62109375 730 295.04296875 840 c 0,25,26
 308.98046875 928 308.98046875 928 368.830078125 996.5 c 128,-1,27
 428.6796875 1065 428.6796875 1065 518.172851562 1106 c 1,28,29
 460.241210938 1138 460.241210938 1138 432.348632812 1195.5 c 128,-1,30
 404.456054688 1253 404.456054688 1253 414.750976562 1318 c 0,31,32
 431.064453125 1421 431.064453125 1421 507.9140625 1489.5 c 128,-1,33
 584.762695312 1558 584.762695312 1558 711.762695312 1558 c 0,34,35
 837.762695312 1558 837.762695312 1558 891.309570312 1492 c 128,-1,36
 944.856445312 1426 944.856445312 1426 929.334960938 1328 c 0,37,38
 918.248046875 1258 918.248046875 1258 872.165039062 1197.5 c 128,-1,39
 826.083007812 1137 826.083007812 1137 756.380859375 1101 c 1,40,41
 829.521484375 1064 829.521484375 1064 863.909179688 997 c 128,-1,42
 898.297851562 930 898.297851562 930 885.309570312 848 c 0,43,44
 867.25390625 734 867.25390625 734 776.61328125 660.5 c 128,-1,45
 685.971679688 587 685.971679688 587 548.971679688 587 c 0,22,23
EndSplineSet
EndChar

StartChar: uni2079
Encoding: 8313 8313 525
Width: 922
VWidth: 2441
GlyphClass: 1
Flags: HW
LayerCount: 2
Fore
SplineSet
490.921875 1237 m 0,0,1
 477.775390625 1154 477.775390625 1154 517.59375 1105.5 c 128,-1,2
 557.412109375 1057 557.412109375 1057 623.412109375 1057 c 0,3,4
 733.412109375 1057 733.412109375 1057 802.657226562 1128 c 1,5,6
 823.94921875 1294 823.94921875 1294 793.669921875 1368 c 128,-1,7
 763.390625 1442 763.390625 1442 681.390625 1442 c 0,8,9
 611.390625 1442 611.390625 1442 559.3125 1391 c 128,-1,10
 507.235351562 1340 507.235351562 1340 490.921875 1237 c 0,0,1
513.971679688 587 m 0,11,12
 443.971679688 587 443.971679688 587 386.639648438 607 c 128,-1,13
 329.306640625 627 329.306640625 627 290.276367188 671 c 1,14,-1
 375.688476562 762 l 1,15,-1
 395.698242188 781 l 1,16,-1
 406.114257812 771 l 1,17,18
 405.10546875 752 405.10546875 752 415.466796875 738.5 c 128,-1,19
 425.829101562 725 425.829101562 725 457.344726562 703 c 1,20,21
 484.995117188 693.909179688 484.995117188 693.909179688 514.913085938 693.909179688 c 0,22,23
 517.904296875 693.909179688 517.904296875 693.909179688 520.918945312 694 c 0,24,25
 618.918945312 694 618.918945312 694 685.069335938 786.5 c 128,-1,26
 751.219726562 879 751.219726562 879 780.809570312 1009 c 1,27,28
 741.533203125 982 741.533203125 982 697.999023438 966 c 128,-1,29
 654.46484375 950 654.46484375 950 601.46484375 950 c 0,30,31
 482.46484375 950 482.46484375 950 415.056640625 1029.5 c 128,-1,32
 347.6484375 1109 347.6484375 1109 368.396484375 1240 c 0,33,34
 390.412109375 1379 390.412109375 1379 485.69140625 1466 c 128,-1,35
 580.970703125 1553 580.970703125 1553 698.970703125 1553 c 0,36,37
 840.970703125 1553 840.970703125 1553 897.548828125 1443 c 128,-1,38
 954.125976562 1333 954.125976562 1333 923.875 1142 c 0,39,40
 878.893554688 858 878.893554688 858 773.590820312 723.5 c 128,-1,41
 668.288085938 589 668.288085938 589 513.971679688 587 c 0,11,12
EndSplineSet
EndChar

StartChar: fraction
Encoding: 8260 8260 526
Width: 922
VWidth: 2441
GlyphClass: 1
Flags: HW
LayerCount: 2
Fore
SplineSet
160.686523438 -103 m 1,0,-1
 62.03125 -44 l 1,1,-1
 1018.21679688 1624 l 1,2,-1
 1115.5546875 1563 l 1,3,-1
 160.686523438 -103 l 1,0,-1
EndSplineSet
EndChar

StartChar: onehalf
Encoding: 189 189 527
Width: 922
VWidth: 2441
GlyphClass: 1
Flags: HW
LayerCount: 2
Fore
SplineSet
412.07421875 -170 m 1,0,-1
 425.37890625 -86 l 1,1,2
 538.118164062 26 538.118164062 26 614.734375 102.5 c 128,-1,3
 691.350585938 179 691.350585938 179 734.932617188 239.5 c 128,-1,4
 778.515625 300 778.515625 300 791.28515625 368 c 0,5,6
 800.947265625 429 800.947265625 429 777.802734375 456.5 c 128,-1,7
 754.658203125 484 754.658203125 484 710.658203125 484 c 128,-1,8
 666.658203125 484 666.658203125 484 626.435546875 460.5 c 128,-1,9
 586.213867188 437 586.213867188 437 551.186523438 380 c 1,10,-1
 493.213867188 437 l 1,11,12
 535.984375 505 535.984375 505 596.161132812 544 c 128,-1,13
 656.337890625 583 656.337890625 583 726.337890625 583 c 0,14,15
 811.337890625 583 811.337890625 583 856.731445312 525.5 c 128,-1,16
 902.124023438 468 902.124023438 468 886.28515625 368 c 0,17,18
 873.456054688 287 873.456054688 287 828.686523438 219 c 128,-1,19
 783.916015625 151 783.916015625 151 715.908203125 81.5 c 128,-1,20
 647.900390625 12 647.900390625 12 562.4375 -73 c 1,21,-1
 818.4375 -73 l 1,22,-1
 803.07421875 -170 l 1,23,-1
 412.07421875 -170 l 1,0,-1
123.686523438 -103 m 1,24,-1
 40.03125 -44 l 1,25,-1
 903.216796875 1624 l 1,26,-1
 986.5546875 1563 l 1,27,-1
 123.686523438 -103 l 1,24,-1
228.822265625 927 m 1,28,-1
 326.38671875 1543 l 1,29,-1
 197.625976562 1494 l 1,30,-1
 188.663085938 1570 l 1,31,-1
 372.293945312 1675 l 1,32,-1
 446.293945312 1675 l 1,33,-1
 327.822265625 927 l 1,34,-1
 228.822265625 927 l 1,28,-1
EndSplineSet
EndChar

StartChar: onequarter
Encoding: 188 188 528
Width: 922
VWidth: 2441
GlyphClass: 1
Flags: HW
LayerCount: 2
Fore
SplineSet
510.838867188 100 m 1,0,-1
 668.838867188 100 l 1,1,-1
 712.552734375 376 l 1,2,-1
 510.838867188 100 l 1,0,-1
624.07421875 -170 m 1,3,-1
 652.108398438 7 l 1,4,-1
 391.108398438 7 l 1,5,-1
 403.62109375 86 l 1,6,-1
 764.229492188 576 l 1,7,-1
 838.229492188 576 l 1,8,-1
 762.838867188 100 l 1,9,-1
 844.838867188 100 l 1,10,-1
 829.791992188 5 l 1,11,-1
 747.791992188 5 l 1,12,-1
 720.07421875 -170 l 1,13,-1
 624.07421875 -170 l 1,3,-1
120.686523438 -103 m 1,14,-1
 38.03125 -44 l 1,15,-1
 894.216796875 1624 l 1,16,-1
 976.5546875 1563 l 1,17,-1
 120.686523438 -103 l 1,14,-1
225.822265625 927 m 1,18,-1
 323.38671875 1543 l 1,19,-1
 195.625976562 1494 l 1,20,-1
 187.663085938 1570 l 1,21,-1
 369.293945312 1675 l 1,22,-1
 442.293945312 1675 l 1,23,-1
 323.822265625 927 l 1,24,-1
 225.822265625 927 l 1,18,-1
EndSplineSet
EndChar

StartChar: threequarters
Encoding: 190 190 529
Width: 922
VWidth: 2441
GlyphClass: 1
Flags: HW
LayerCount: 2
Fore
SplineSet
647.838867188 100 m 1,0,-1
 691.552734375 376 l 1,1,-1
 494.838867188 100 l 1,2,-1
 647.838867188 100 l 1,0,-1
631.108398438 7 m 1,3,-1
 377.108398438 7 l 1,4,-1
 389.62109375 86 l 1,5,-1
 742.229492188 576 l 1,6,-1
 815.229492188 576 l 1,7,-1
 739.838867188 100 l 1,8,-1
 818.838867188 100 l 1,9,-1
 803.791992188 5 l 1,10,-1
 724.791992188 5 l 1,11,-1
 697.07421875 -170 l 1,12,-1
 603.07421875 -170 l 1,13,-1
 631.108398438 7 l 1,3,-1
113.686523438 -103 m 1,14,-1
 34.03125 -44 l 1,15,-1
 873.216796875 1624 l 1,16,-1
 953.5546875 1563 l 1,17,-1
 113.686523438 -103 l 1,14,-1
238.60546875 913 m 0,18,19
 183.60546875 913 183.60546875 913 140.827148438 936.5 c 128,-1,20
 98.048828125 960 98.048828125 960 72.017578125 1004 c 1,21,-1
 139.213867188 1081 l 1,22,-1
 156.380859375 1101 l 1,23,-1
 162.797851562 1091 l 1,24,25
 159.788085938 1072 159.788085938 1072 166.650390625 1058.5 c 128,-1,26
 173.51171875 1045 173.51171875 1045 193.02734375 1023 c 1,27,28
 213.809570312 1009 213.809570312 1009 249.809570312 1009 c 0,29,30
 300.809570312 1009 300.809570312 1009 333.616210938 1042.5 c 128,-1,31
 366.421875 1076 366.421875 1076 376.083007812 1137 c 0,32,33
 388.912109375 1218 388.912109375 1218 349.743164062 1248.5 c 128,-1,34
 319.498046875 1272.05078125 319.498046875 1272.05078125 264.65625 1272.05078125 c 0,0,0
 248.47265625 1272.05078125 248.47265625 1272.05078125 230.1484375 1270 c 1,35,-1
 244.403320312 1360 l 1,36,37
 248.994140625 1359.8984375 248.994140625 1359.8984375 253.444335938 1359.8984375 c 0,0,0
 336.880859375 1359.8984375 336.880859375 1359.8984375 370.525390625 1395.5 c 128,-1,38
 405.96484375 1433 405.96484375 1433 414.04296875 1484 c 0,39,40
 421.803710938 1533 421.803710938 1533 401.341796875 1558.5 c 128,-1,41
 380.880859375 1584 380.880859375 1584 344.880859375 1584 c 0,42,43
 315.880859375 1584 315.880859375 1584 286.48046875 1572 c 128,-1,44
 257.080078125 1560 257.080078125 1560 228.01171875 1528 c 1,45,-1
 182.46484375 1594 l 1,46,47
 224.75 1640 224.75 1640 271.076171875 1661 c 128,-1,48
 317.40234375 1682 317.40234375 1682 363.40234375 1682 c 0,49,50
 442.40234375 1682 442.40234375 1682 481.587890625 1629.5 c 128,-1,51
 520.772460938 1577 520.772460938 1577 507.151367188 1491 c 0,52,53
 497.490234375 1430 497.490234375 1430 465.020507812 1386 c 128,-1,54
 432.551757812 1342 432.551757812 1342 388.54296875 1323 c 1,55,56
 430.533203125 1304 430.533203125 1304 455.90625 1259 c 128,-1,57
 481.278320312 1214 481.278320312 1214 468.291015625 1132 c 0,58,59
 453.245117188 1037 453.245117188 1037 392.424804688 975 c 128,-1,60
 331.60546875 913 331.60546875 913 238.60546875 913 c 0,18,19
EndSplineSet
EndChar

StartChar: uni2070.ss02
Encoding: 65566 -1 533
Width: 922
VWidth: 2441
GlyphClass: 1
Flags: HW
LayerCount: 2
Fore
SplineSet
565.443359375 691 m 128,-1,1
 648.443359375 691 648.443359375 691 709.6484375 787 c 128,-1,2
 770.853515625 883 770.853515625 883 799.99609375 1067 c 0,3,4
 827.713867188 1242 827.713867188 1242 797.051757812 1342 c 128,-1,5
 766.390625 1442 766.390625 1442 684.390625 1442 c 0,6,7
 601.390625 1442 601.390625 1442 538.551757812 1342 c 128,-1,8
 475.713867188 1242 475.713867188 1242 447.99609375 1067 c 0,9,10
 418.853515625 883 418.853515625 883 450.6484375 787 c 128,-1,0
 482.443359375 691 482.443359375 691 565.443359375 691 c 128,-1,1
548.337890625 583 m 128,-1,12
 406.337890625 583 406.337890625 583 346.3984375 706.5 c 128,-1,13
 286.458984375 830 286.458984375 830 323.99609375 1067 c 0,14,15
 360.424804688 1297 360.424804688 1297 460.198242188 1425 c 128,-1,16
 559.970703125 1553 559.970703125 1553 701.970703125 1553 c 128,-1,17
 843.970703125 1553 843.970703125 1553 902.618164062 1424.5 c 128,-1,18
 961.266601562 1296 961.266601562 1296 924.99609375 1067 c 0,19,20
 887.458984375 830 887.458984375 830 788.8984375 706.5 c 128,-1,11
 690.337890625 583 690.337890625 583 548.337890625 583 c 128,-1,12
EndSplineSet
EndChar

StartChar: uni2070.zero
Encoding: 65570 -1 537
Width: 922
VWidth: 2441
GlyphClass: 1
Flags: HW
LayerCount: 2
Fore
SplineSet
624.551757812 1020 m 0,0,1
 589.551757812 1020 589.551757812 1020 571.116210938 1042.5 c 128,-1,2
 552.6796875 1065 552.6796875 1065 558.064453125 1099 c 0,3,4
 563.1328125 1131 563.1328125 1131 590.038085938 1152.5 c 128,-1,5
 616.943359375 1174 616.943359375 1174 648.943359375 1174 c 0,6,7
 678.943359375 1174 678.943359375 1174 698.958984375 1152 c 128,-1,8
 718.974609375 1130 718.974609375 1130 714.064453125 1099 c 0,9,10
 708.99609375 1067 708.99609375 1067 682.774414062 1043.5 c 128,-1,11
 656.551757812 1020 656.551757812 1020 624.551757812 1020 c 0,0,1
565.443359375 691 m 128,-1,13
 648.443359375 691 648.443359375 691 709.6484375 787 c 128,-1,14
 770.853515625 883 770.853515625 883 799.99609375 1067 c 0,15,16
 827.713867188 1242 827.713867188 1242 797.051757812 1342 c 128,-1,17
 766.390625 1442 766.390625 1442 684.390625 1442 c 0,18,19
 601.390625 1442 601.390625 1442 538.551757812 1342 c 128,-1,20
 475.713867188 1242 475.713867188 1242 447.99609375 1067 c 0,21,22
 418.853515625 883 418.853515625 883 450.6484375 787 c 128,-1,12
 482.443359375 691 482.443359375 691 565.443359375 691 c 128,-1,13
548.337890625 583 m 128,-1,24
 406.337890625 583 406.337890625 583 346.3984375 706.5 c 128,-1,25
 286.458984375 830 286.458984375 830 323.99609375 1067 c 0,26,27
 360.424804688 1297 360.424804688 1297 460.198242188 1425 c 128,-1,28
 559.970703125 1553 559.970703125 1553 701.970703125 1553 c 128,-1,29
 843.970703125 1553 843.970703125 1553 902.618164062 1424.5 c 128,-1,30
 961.266601562 1296 961.266601562 1296 924.99609375 1067 c 0,31,32
 887.458984375 830 887.458984375 830 788.8984375 706.5 c 128,-1,23
 690.337890625 583 690.337890625 583 548.337890625 583 c 128,-1,24
EndSplineSet
EndChar

StartChar: period
Encoding: 46 46 538
Width: 922
VWidth: 2607
GlyphClass: 1
Flags: HW
LayerCount: 2
Fore
SplineSet
453.015625 139 m 0,0,1
 397.015625 139 397.015625 139 365.192382812 178 c 128,-1,2
 333.369140625 217 333.369140625 217 341.921875 271 c 128,-1,3
 350.474609375 325 350.474609375 325 394.389648438 365.5 c 128,-1,4
 438.303710938 406 438.303710938 406 495.303710938 406 c 0,5,6
 546.303710938 406 546.303710938 406 577.889648438 365.5 c 128,-1,7
 609.474609375 325 609.474609375 325 600.921875 271 c 128,-1,8
 592.369140625 217 592.369140625 217 548.192382812 178 c 128,-1,9
 504.015625 139 504.015625 139 453.015625 139 c 0,0,1
EndSplineSet
EndChar

StartChar: comma
Encoding: 44 44 539
Width: 922
VWidth: 2607
GlyphClass: 1
Flags: HW
LayerCount: 2
Fore
SplineSet
314.354492188 -244 m 1,0,-1
 246.124023438 -176 l 1,1,2
 317.102539062 -113 317.102539062 -113 370.34765625 -42 c 128,-1,3
 423.592773438 29 423.592773438 29 430.87890625 75 c 0,4,5
 436.421875 110 436.421875 110 412.4609375 135.5 c 128,-1,6
 388.5 161 388.5 161 365.171875 190.5 c 128,-1,7
 341.844726562 220 341.844726562 220 348.813476562 264 c 0,8,9
 358.474609375 325 358.474609375 325 400.889648438 365.5 c 128,-1,10
 443.303710938 406 443.303710938 406 502.303710938 406 c 0,11,12
 558.303710938 406 558.303710938 406 597.489257812 353.5 c 128,-1,13
 636.673828125 301 636.673828125 301 622.260742188 210 c 0,14,15
 606.739257812 112 606.739257812 112 529.737304688 1.5 c 128,-1,16
 452.736328125 -109 452.736328125 -109 314.354492188 -244 c 1,0,-1
EndSplineSet
EndChar

StartChar: colon
Encoding: 58 58 540
Width: 922
VWidth: 2716
GlyphClass: 1
Flags: HW
LayerCount: 2
Fore
SplineSet
474.279296875 248 m 0,0,1
 418.279296875 248 418.279296875 248 385.797851562 286 c 128,-1,2
 353.31640625 324 353.31640625 324 362.186523438 380 c 128,-1,3
 371.055664062 436 371.055664062 436 417.311523438 475.5 c 128,-1,4
 463.568359375 515 463.568359375 515 516.568359375 515 c 0,5,6
 567.568359375 515 567.568359375 515 603.311523438 475.5 c 128,-1,7
 639.055664062 436 639.055664062 436 630.186523438 380 c 0,8,9
 621.633789062 326 621.633789062 326 574.956054688 287 c 128,-1,10
 528.279296875 248 528.279296875 248 474.279296875 248 c 0,0,1
598.76953125 1034 m 128,-1,12
 544.76953125 1034 544.76953125 1034 511.446289062 1073 c 128,-1,13
 478.123046875 1112 478.123046875 1112 486.834960938 1167 c 0,14,15
 495.704101562 1223 495.704101562 1223 541.801757812 1261.5 c 128,-1,16
 587.899414062 1300 587.899414062 1300 640.899414062 1300 c 0,17,18
 691.899414062 1300 691.899414062 1300 727.801757812 1261.5 c 128,-1,19
 763.704101562 1223 763.704101562 1223 754.834960938 1167 c 0,20,21
 746.282226562 1113 746.282226562 1113 699.525390625 1073.5 c 128,-1,11
 652.76953125 1034 652.76953125 1034 598.76953125 1034 c 128,-1,12
EndSplineSet
EndChar

StartChar: semicolon
Encoding: 59 59 541
Width: 922
VWidth: 2716
GlyphClass: 1
Flags: HW
LayerCount: 2
Fore
SplineSet
329.618164062 -135 m 1,0,-1
 261.388671875 -67 l 1,1,2
 332.366210938 -4 332.366210938 -4 385.111328125 67 c 128,-1,3
 437.857421875 138 437.857421875 138 445.142578125 184 c 0,4,5
 450.686523438 219 450.686523438 219 426.724609375 244.5 c 128,-1,6
 402.763671875 270 402.763671875 270 379.436523438 299.5 c 128,-1,7
 356.108398438 329 356.108398438 329 363.077148438 373 c 0,8,9
 372.739257812 434 372.739257812 434 415.653320312 474.5 c 128,-1,10
 458.568359375 515 458.568359375 515 516.568359375 515 c 0,11,12
 572.568359375 515 572.568359375 515 612.252929688 462.5 c 128,-1,13
 651.9375 410 651.9375 410 637.524414062 319 c 0,14,15
 622.002929688 221 622.002929688 221 545.001953125 110.5 c 128,-1,16
 468 0 468 0 329.618164062 -135 c 1,0,-1
598.76953125 1034 m 128,-1,18
 544.76953125 1034 544.76953125 1034 511.446289062 1073 c 128,-1,19
 478.123046875 1112 478.123046875 1112 486.834960938 1167 c 0,20,21
 495.704101562 1223 495.704101562 1223 541.801757812 1261.5 c 128,-1,22
 587.899414062 1300 587.899414062 1300 640.899414062 1300 c 0,23,24
 691.899414062 1300 691.899414062 1300 727.801757812 1261.5 c 128,-1,25
 763.704101562 1223 763.704101562 1223 754.834960938 1167 c 0,26,27
 746.282226562 1113 746.282226562 1113 699.525390625 1073.5 c 128,-1,17
 652.76953125 1034 652.76953125 1034 598.76953125 1034 c 128,-1,18
EndSplineSet
EndChar

StartChar: ellipsis
Encoding: 8230 8230 542
Width: 922
VWidth: 2441
GlyphClass: 1
Flags: HW
LayerCount: 2
Fore
SplineSet
33.7236328125 -27 m 0,0,1
 -15.2763671875 -27 -15.2763671875 -27 -42.599609375 12 c 128,-1,2
 -69.9228515625 51 -69.9228515625 51 -61.3701171875 105 c 128,-1,3
 -52.81640625 159 -52.81640625 159 -12.90234375 199.5 c 128,-1,4
 27.0126953125 240 27.0126953125 240 76.0126953125 240 c 0,5,6
 121.012695312 240 121.012695312 240 147.59765625 199.5 c 128,-1,7
 174.18359375 159 174.18359375 159 165.629882812 105 c 128,-1,8
 157.077148438 51 157.077148438 51 117.900390625 12 c 128,-1,9
 78.7236328125 -27 78.7236328125 -27 33.7236328125 -27 c 0,0,1
362.723632812 -27 m 0,10,11
 313.723632812 -27 313.723632812 -27 286.900390625 12 c 128,-1,12
 260.077148438 51 260.077148438 51 268.629882812 105 c 128,-1,13
 277.18359375 159 277.18359375 159 316.59765625 199.5 c 128,-1,14
 356.012695312 240 356.012695312 240 405.012695312 240 c 0,15,16
 450.012695312 240 450.012695312 240 477.09765625 199.5 c 128,-1,17
 504.18359375 159 504.18359375 159 495.629882812 105 c 128,-1,18
 487.077148438 51 487.077148438 51 447.400390625 12 c 128,-1,19
 407.723632812 -27 407.723632812 -27 362.723632812 -27 c 0,10,11
694.723632812 -27 m 128,-1,21
 647.723632812 -27 647.723632812 -27 620.400390625 12 c 128,-1,22
 593.077148438 51 593.077148438 51 601.629882812 105 c 128,-1,23
 610.18359375 159 610.18359375 159 650.09765625 199.5 c 128,-1,24
 690.012695312 240 690.012695312 240 737.012695312 240 c 128,-1,25
 784.012695312 240 784.012695312 240 810.59765625 199.5 c 128,-1,26
 837.18359375 159 837.18359375 159 828.629882812 105 c 128,-1,27
 820.077148438 51 820.077148438 51 780.900390625 12 c 128,-1,20
 741.723632812 -27 741.723632812 -27 694.723632812 -27 c 128,-1,21
EndSplineSet
EndChar

StartChar: exclam
Encoding: 33 33 543
Width: 922
VWidth: 2441
GlyphClass: 1
Flags: HW
LayerCount: 2
Fore
SplineSet
426.723632812 -27 m 0,0,1
 372.723632812 -27 372.723632812 -27 339.900390625 12 c 128,-1,2
 307.077148438 51 307.077148438 51 315.947265625 107 c 128,-1,3
 324.81640625 163 324.81640625 163 370.46875 205 c 128,-1,4
 416.12109375 247 416.12109375 247 470.12109375 247 c 0,5,6
 526.12109375 247 526.12109375 247 559.96875 205 c 128,-1,7
 593.81640625 163 593.81640625 163 584.947265625 107 c 0,8,9
 576.39453125 53 576.39453125 53 529.55859375 13 c 128,-1,10
 482.723632812 -27 482.723632812 -27 426.723632812 -27 c 0,0,1
451.916015625 473 m 1,11,-1
 552.241210938 1460 l 1,12,13
 565.0703125 1541 565.0703125 1541 602.697265625 1586 c 128,-1,14
 640.325195312 1631 640.325195312 1631 693.325195312 1631 c 0,15,16
 744.325195312 1631 744.325195312 1631 770.618164062 1585.5 c 0,17,18
 795.430664062 1542.56347656 795.430664062 1542.56347656 780.23828125 1446.64257812 c 0,19,20
 779.331054688 1440.91503906 779.331054688 1440.91503906 778.28125 1435 c 1,21,-1
 563.916015625 473 l 1,22,-1
 451.916015625 473 l 1,11,-1
EndSplineSet
EndChar

StartChar: question
Encoding: 63 63 545
Width: 922
VWidth: 2441
GlyphClass: 1
Flags: HW
LayerCount: 2
Fore
SplineSet
474.723632812 -27 m 128,-1,1
 420.723632812 -27 420.723632812 -27 389.900390625 12 c 128,-1,2
 359.077148438 51 359.077148438 51 367.629882812 105 c 128,-1,3
 376.18359375 159 376.18359375 159 420.09765625 199.5 c 128,-1,4
 464.012695312 240 464.012695312 240 517.012695312 240 c 0,5,6
 571.012695312 240 571.012695312 240 602.59765625 199.5 c 128,-1,7
 634.18359375 159 634.18359375 159 625.629882812 105 c 128,-1,8
 617.077148438 51 617.077148438 51 572.900390625 12 c 128,-1,0
 528.723632812 -27 528.723632812 -27 474.723632812 -27 c 128,-1,1
486.63671875 547 m 2,9,10
 503.583007812 654 503.583007812 654 544.669921875 724 c 128,-1,11
 585.756835938 794 585.756835938 794 639.334960938 845 c 128,-1,12
 692.912109375 896 692.912109375 896 745.411132812 946.5 c 128,-1,13
 797.909179688 997 797.909179688 997 840.783203125 1062.5 c 128,-1,14
 883.657226562 1128 883.657226562 1128 899.8125 1230 c 0,15,16
 917.235351562 1340 917.235351562 1340 861.584960938 1408.5 c 128,-1,17
 805.93359375 1477 805.93359375 1477 698.93359375 1477 c 0,18,19
 537.93359375 1477 537.93359375 1477 427.51171875 1367 c 1,20,21
 401.443359375 1335 401.443359375 1335 393.330078125 1318.5 c 128,-1,22
 385.216796875 1302 385.216796875 1302 383.890625 1281 c 1,23,-1
 372.672851562 1267 l 1,24,-1
 355.573242188 1279 l 1,25,-1
 264.986328125 1370 l 1,26,27
 353.833984375 1489 353.833984375 1489 460.025390625 1556.5 c 128,-1,28
 566.216796875 1624 566.216796875 1624 729.216796875 1624 c 0,29,30
 902.216796875 1624 902.216796875 1624 994.536132812 1525 c 128,-1,31
 1086.85644531 1426 1086.85644531 1426 1057.71386719 1242 c 0,32,33
 1038.86621094 1123 1038.86621094 1123 995.169921875 1046 c 128,-1,34
 951.474609375 969 951.474609375 969 897.263671875 914 c 128,-1,35
 843.051757812 859 843.051757812 859 788.870117188 810.5 c 128,-1,36
 734.688476562 762 734.688476562 762 693.52734375 701 c 128,-1,37
 652.366210938 640 652.366210938 640 637.63671875 547 c 2,38,-1
 621.797851562 447 l 1,39,-1
 470.797851562 447 l 1,40,-1
 486.63671875 547 l 2,9,10
EndSplineSet
EndChar

StartChar: periodcentered
Encoding: 183 183 547
Width: 922
VWidth: 2441
GlyphClass: 1
Flags: HW
LayerCount: 2
Fore
SplineSet
538.068359375 676 m 0,0,1
 482.068359375 676 482.068359375 676 449.086914062 714 c 128,-1,2
 416.10546875 752 416.10546875 752 424.974609375 808 c 128,-1,3
 433.84375 864 433.84375 864 480.100585938 903.5 c 128,-1,4
 526.356445312 943 526.356445312 943 580.356445312 943 c 0,5,6
 631.356445312 943 631.356445312 943 666.600585938 903.5 c 128,-1,7
 701.84375 864 701.84375 864 692.974609375 808 c 0,8,9
 684.421875 754 684.421875 754 638.245117188 715 c 128,-1,10
 592.068359375 676 592.068359375 676 538.068359375 676 c 0,0,1
EndSplineSet
Substitution2: "Single Substitution lookup 11 subtable" periodcentered.loclCAT
Substitution2: "Single Substitution lookup 10 subtable" periodcentered.loclCAT
Substitution2: "'aalt' Access All Alternates in Latin lookup 0 subtable" periodcentered.loclCAT
EndChar

StartChar: bullet
Encoding: 8226 8226 548
Width: 922
VWidth: 2441
GlyphClass: 1
Flags: HW
LayerCount: 2
Fore
SplineSet
541.78515625 529 m 0,0,1
 462.78515625 529 462.78515625 529 417.471679688 587 c 128,-1,2
 372.158203125 645 372.158203125 645 384.037109375 720 c 0,3,4
 397.182617188 803 397.182617188 803 462.893554688 858 c 128,-1,5
 528.60546875 913 528.60546875 913 602.60546875 913 c 0,6,7
 681.60546875 913 681.60546875 913 728.735351562 857 c 128,-1,8
 775.866210938 801 775.866210938 801 763.037109375 720 c 0,9,10
 751.158203125 645 751.158203125 645 686.971679688 587 c 128,-1,11
 622.78515625 529 622.78515625 529 541.78515625 529 c 0,0,1
EndSplineSet
EndChar

StartChar: asterisk
Encoding: 42 42 549
Width: 922
VWidth: 2441
GlyphClass: 1
Flags: HW
LayerCount: 2
Fore
SplineSet
246.515625 300 m 1,0,-1
 144.829101562 403 l 1,1,-1
 479.58984375 774 l 1,2,-1
 134.1796875 904 l 1,3,-1
 217.095703125 1055 l 1,4,-1
 528.745117188 876 l 1,5,-1
 564.325195312 1309 l 1,6,-1
 734.325195312 1309 l 1,7,-1
 627.745117188 876 l 1,8,-1
 992.987304688 1048 l 1,9,-1
 1024.1796875 904 l 1,10,-1
 639.58984375 774 l 1,11,-1
 852.829101562 403 l 1,12,-1
 716.990234375 303 l 1,13,-1
 548.02734375 701 l 1,14,-1
 246.515625 300 l 1,0,-1
EndSplineSet
Substitution2: "'ss01' Style Set 1 in Latin lookup 35 subtable" asterisk.ss01
Substitution2: "'salt' Stylistic Alternatives in Latin lookup 34 subtable" asterisk.ss01
Substitution2: "'aalt' Access All Alternates in Latin lookup 0 subtable" asterisk.ss01
EndChar

StartChar: uni2E12
Encoding: 11794 11794 550
Width: 922
VWidth: 2212
GlyphClass: 1
Flags: HW
LayerCount: 2
Fore
SplineSet
259.037109375 -246 m 1,0,-1
 277.568359375 -129 l 1,1,2
 342.568359375 -129 342.568359375 -129 390.541992188 -75.5 c 128,-1,3
 438.515625 -22 438.515625 -22 449.444335938 47 c 0,4,5
 460.53125 117 460.53125 117 429.663085938 171.5 c 128,-1,6
 398.794921875 226 398.794921875 226 333.794921875 226 c 1,7,-1
 351.850585938 340 l 1,8,9
 464.850585938 340 464.850585938 340 526.705078125 257 c 128,-1,10
 588.55859375 174 588.55859375 174 568.126953125 45 c 0,11,12
 548.487304688 -79 548.487304688 -79 461.762695312 -162.5 c 128,-1,13
 375.037109375 -246 375.037109375 -246 259.037109375 -246 c 1,0,-1
EndSplineSet
EndChar

StartChar: numbersign
Encoding: 35 35 551
Width: 922
VWidth: 2441
GlyphClass: 1
Flags: HW
LayerCount: 2
Fore
SplineSet
369.021484375 581 m 1,0,-1
 585.021484375 581 l 1,1,-1
 689.909179688 997 l 1,2,-1
 474.909179688 997 l 1,3,-1
 369.021484375 581 l 1,0,-1
441.80078125 24 m 1,4,-1
 556.598632812 471 l 1,5,-1
 340.598632812 471 l 1,6,-1
 229.54296875 35 l 1,7,-1
 108.068359375 32 l 1,8,-1
 218.807617188 466 l 1,9,-1
 29.8076171875 466 l 1,10,-1
 54.2294921875 576 l 1,11,-1
 247.229492188 576 l 1,12,-1
 353.434570312 994 l 1,13,-1
 140.434570312 994 l 1,14,-1
 165.172851562 1106 l 1,15,-1
 382.172851562 1106 l 1,16,-1
 487.219726562 1523 l 1,17,-1
 611.01171875 1528 l 1,18,-1
 505.96484375 1111 l 1,19,-1
 718.96484375 1111 l 1,20,-1
 823.5859375 1519 l 1,21,-1
 948.90234375 1521 l 1,22,-1
 844.756835938 1116 l 1,23,-1
 1022.75683594 1116 l 1,24,-1
 993.54296875 1001 l 1,25,-1
 815.54296875 1001 l 1,26,-1
 709.288085938 589 l 1,27,-1
 902.288085938 589 l 1,28,-1
 875.708007812 478 l 1,29,-1
 681.708007812 478 l 1,30,-1
 567.54296875 35 l 1,31,-1
 441.80078125 24 l 1,4,-1
EndSplineSet
EndChar

StartChar: slash
Encoding: 47 47 552
Width: 922
VWidth: 2441
GlyphClass: 1
Flags: HW
LayerCount: 2
Fore
SplineSet
162.686523438 -103 m 1,0,-1
 37.1396484375 -37 l 1,1,-1
 988.216796875 1624 l 1,2,-1
 1115.97070312 1553 l 1,3,-1
 162.686523438 -103 l 1,0,-1
EndSplineSet
Substitution2: "'frac' Diagonal Fractions in Latin lookup 23 subtable" fraction
Substitution2: "'aalt' Access All Alternates in Latin lookup 0 subtable" fraction
EndChar

StartChar: backslash
Encoding: 92 92 553
Width: 922
VWidth: 2441
GlyphClass: 1
Flags: HW
LayerCount: 2
Fore
SplineSet
716.686523438 -103 m 1,0,-1
 288.970703125 1553 l 1,1,-1
 436.216796875 1624 l 1,2,-1
 864.139648438 -37 l 1,3,-1
 716.686523438 -103 l 1,0,-1
EndSplineSet
EndChar

StartChar: asterisk.ss01
Encoding: 65572 -1 555
Width: 922
VWidth: 2441
GlyphClass: 1
Flags: HW
LayerCount: 2
Fore
SplineSet
269.797851562 447 m 1,0,-1
 168.111328125 550 l 1,1,-1
 502.713867188 920 l 1,2,-1
 157.303710938 1050 l 1,3,-1
 240.377929688 1202 l 1,4,-1
 552.02734375 1023 l 1,5,-1
 587.607421875 1456 l 1,6,-1
 757.607421875 1456 l 1,7,-1
 651.02734375 1023 l 1,8,-1
 1015.953125 1193 l 1,9,-1
 1047.30371094 1050 l 1,10,-1
 662.713867188 920 l 1,11,-1
 876.111328125 550 l 1,12,-1
 740.114257812 449 l 1,13,-1
 571.309570312 848 l 1,14,-1
 269.797851562 447 l 1,0,-1
EndSplineSet
EndChar

StartChar: parenleft
Encoding: 40 40 556
Width: 922
VWidth: 2449
GlyphClass: 1
Flags: HW
LayerCount: 2
Fore
SplineSet
731.037109375 -246 m 1,0,1
 562.083984375 -151 562.083984375 -151 452.42578125 9 c 128,-1,2
 342.766601562 169 342.766601562 169 300.181640625 370.5 c 128,-1,3
 257.595703125 572 257.595703125 572 291.96484375 789 c 128,-1,4
 326.334960938 1006 326.334960938 1006 430.95703125 1202.5 c 128,-1,5
 535.580078125 1399 535.580078125 1399 693.129882812 1554 c 128,-1,6
 850.678710938 1709 850.678710938 1709 1043.40917969 1802 c 1,7,-1
 1067.6015625 1658 l 1,8,9
 911.98046875 1572 911.98046875 1572 783.01953125 1436.5 c 128,-1,10
 654.05859375 1301 654.05859375 1301 567.44921875 1133 c 128,-1,11
 480.840820312 965 480.840820312 965 451.856445312 782 c 0,12,13
 422.713867188 598 422.713867188 598 457.447265625 429 c 128,-1,14
 492.1796875 260 492.1796875 260 579.584960938 120.5 c 128,-1,15
 666.990234375 -19 666.990234375 -19 800.2109375 -106 c 1,16,-1
 731.037109375 -246 l 1,0,1
EndSplineSet
EndChar

StartChar: parenright
Encoding: 41 41 557
Width: 922
VWidth: 2449
GlyphClass: 1
Flags: HW
LayerCount: 2
Fore
SplineSet
160.037109375 -246 m 1,0,1
 359.083984375 -151 359.083984375 -151 519.42578125 9 c 0,2,3
 680.766601562 169 680.766601562 169 785.602539062 370 c 0,4,5
 891.4375 571 891.4375 571 926.96484375 789 c 0,6,7
 961.334960938 1006 961.334960938 1006 919.377929688 1202 c 0,8,9
 877.580078125 1399 877.580078125 1399 768.129882812 1554 c 0,10,11
 658.678710938 1709 658.678710938 1709 496.409179688 1802 c 1,12,-1
 427.6015625 1658 l 1,13,14
 555.98046875 1572 555.98046875 1572 641.598632812 1437 c 0,15,16
 727.05859375 1301 727.05859375 1301 760.44921875 1133 c 0,17,18
 793.293945312 967.75390625 793.293945312 967.75390625 764.822265625 787.99609375 c 0,0,0
 764.348632812 785 764.348632812 785 763.856445312 782 c 0,1,2
 734.713867188 598 734.713867188 598 647.947265625 429 c 0,3,4
 560.1796875 260 560.1796875 260 428.005859375 120 c 0,5,6
 295.990234375 -19 295.990234375 -19 136.2109375 -106 c 1,7,-1
 160.037109375 -246 l 1,0,1
EndSplineSet
EndChar

StartChar: braceleft
Encoding: 123 123 558
Width: 922
VWidth: 2486
GlyphClass: 1
Flags: HW
LayerCount: 2
Fore
SplineSet
694.381835938 -187 m 2,0,1
 538.381835938 -187 538.381835938 -187 436.504882812 -151.5 c 128,-1,2
 334.626953125 -116 334.626953125 -116 298.278320312 -23.5 c 128,-1,3
 264.572265625 62.2724609375 264.572265625 62.2724609375 288.983398438 216.40234375 c 0,0,0
 290.8984375 228.491210938 290.8984375 228.491210938 293.170898438 241 c 2,4,-1
 341.81640625 485 l 1,5,6
 367.31640625 646 367.31640625 646 323.685546875 702 c 128,-1,7
 280.055664062 758 280.055664062 758 187.055664062 758 c 2,8,-1
 143.055664062 758 l 1,9,-1
 164.75390625 895 l 1,10,-1
 206.75390625 895 l 2,11,12
 306.75390625 895 306.75390625 895 368.915039062 956 c 128,-1,13
 431.077148438 1017 431.077148438 1017 453.092773438 1156 c 2,14,-1
 475.809570312 1331 l 1,15,16
 542.96484375 1755 542.96484375 1755 946.28125 1757 c 2,17,-1
 1085.28125 1757 l 1,18,-1
 1063.58300781 1620 l 1,19,-1
 887.583007812 1620 l 2,20,21
 682.583007812 1620 682.583007812 1620 641.244140625 1359 c 1,22,-1
 619.001953125 1187 l 1,23,24
 576.555664062 919 576.555664062 919 369.825195312 826 c 1,25,26
 546.73828125 756 546.73828125 756 496.956054688 448 c 1,27,-1
 457.487304688 243 l 1,28,29
 431.1953125 77 431.1953125 77 485.900390625 12 c 128,-1,30
 540.60546875 -53 540.60546875 -53 683.60546875 -53 c 2,31,-1
 796.60546875 -53 l 1,32,-1
 775.381835938 -187 l 1,33,-1
 694.381835938 -187 l 2,0,1
EndSplineSet
EndChar

StartChar: braceright
Encoding: 125 125 559
Width: 922
VWidth: 2486
GlyphClass: 1
Flags: HW
LayerCount: 2
Fore
SplineSet
83.3818359375 -187 m 2,0,1
 239.381835938 -187 239.381835938 -187 352.92578125 -152 c 0,2,3
 465.626953125 -116 465.626953125 -116 531.357421875 -23 c 0,4,5
 592.306640625 63.236328125 592.306640625 63.236328125 616.587890625 216.540039062 c 0,0,0
 618.4921875 228.563476562 618.4921875 228.563476562 620.170898438 241 c 2,1,-1
 648.81640625 485 l 1,2,3
 674.31640625 646 674.31640625 646 736.185546875 702 c 0,4,5
 797.055664062 758 797.055664062 758 890.055664062 758 c 2,6,-1
 934.055664062 758 l 1,7,-1
 955.75390625 895 l 1,8,-1
 914.75390625 895 l 2,9,10
 814.75390625 895 814.75390625 895 771.415039062 956 c 0,11,12
 729.077148438 1017 729.077148438 1017 751.092773438 1156 c 2,13,-1
 782.809570312 1331 l 1,14,15
 849.96484375 1755 849.96484375 1755 447.28125 1757 c 2,16,-1
 308.28125 1757 l 1,17,-1
 286.583007812 1620 l 1,18,-1
 462.583007812 1620 l 2,19,20
 667.583007812 1620 667.583007812 1620 626.244140625 1359 c 1,21,-1
 595.001953125 1187 l 1,22,23
 552.555664062 919 552.555664062 919 730.825195312 826 c 1,24,25
 531.73828125 756 531.73828125 756 481.956054688 448 c 1,26,-1
 457.487304688 243 l 1,27,28
 431.1953125 77 431.1953125 77 355.900390625 12 c 0,29,30
 281.763671875 -52 281.763671875 -52 137.60546875 -53 c 2,31,-1
 23.60546875 -53 l 1,32,-1
 2.3818359375 -187 l 1,33,-1
 83.3818359375 -187 l 2,0,1
EndSplineSet
EndChar

StartChar: bracketleft
Encoding: 91 91 560
Width: 922
VWidth: 2516
GlyphClass: 1
Flags: HW
LayerCount: 2
Fore
SplineSet
167.509765625 -142 m 1,0,-1
 460.99609375 1711 l 1,1,-1
 1092.99609375 1711 l 1,2,-1
 1070.03027344 1566 l 1,3,-1
 586.030273438 1566 l 1,4,-1
 337.049804688 -6 l 1,5,-1
 823.049804688 -6 l 1,6,-1
 801.509765625 -142 l 1,7,-1
 167.509765625 -142 l 1,0,-1
EndSplineSet
EndChar

StartChar: bracketright
Encoding: 93 93 561
Width: 922
VWidth: 2516
GlyphClass: 1
Flags: HW
LayerCount: 2
Fore
SplineSet
794.509765625 -142 m 1,0,-1
 1087.99609375 1711 l 1,1,-1
 454.99609375 1711 l 1,2,-1
 432.030273438 1566 l 1,3,-1
 916.030273438 1566 l 1,4,-1
 667.049804688 -6 l 1,5,-1
 180.049804688 -6 l 1,6,-1
 158.509765625 -142 l 1,7,-1
 794.509765625 -142 l 1,0,-1
EndSplineSet
EndChar

StartChar: hyphen
Encoding: 45 45 562
Width: 922
VWidth: 2441
GlyphClass: 1
Flags: HW
LayerCount: 2
Fore
SplineSet
259.443359375 691 m 1,0,-1
 284.626953125 850 l 1,1,-1
 899.626953125 850 l 1,2,-1
 874.443359375 691 l 1,3,-1
 259.443359375 691 l 1,0,-1
EndSplineSet
EndChar

StartChar: endash
Encoding: 8211 8211 564
Width: 922
VWidth: 2441
GlyphClass: 1
Flags: HW
LayerCount: 2
Fore
SplineSet
171.443359375 691 m 1,0,-1
 196.626953125 850 l 1,1,-1
 988.626953125 850 l 1,2,-1
 963.443359375 691 l 1,3,-1
 171.443359375 691 l 1,0,-1
EndSplineSet
EndChar

StartChar: emdash
Encoding: 8212 8212 565
Width: 922
VWidth: 2441
GlyphClass: 1
Flags: HW
LayerCount: 2
Fore
SplineSet
33.443359375 691 m 1,0,-1
 58.626953125 850 l 1,1,-1
 948.626953125 850 l 1,2,-1
 923.443359375 691 l 1,3,-1
 33.443359375 691 l 1,0,-1
EndSplineSet
EndChar

StartChar: underscore
Encoding: 95 95 569
Width: 922
VWidth: 2441
GlyphClass: 1
Flags: HW
LayerCount: 2
Fore
SplineSet
-54.04296875 -196 m 1,0,-1
 -30.7607421875 -49 l 1,1,-1
 859.239257812 -49 l 1,2,-1
 835.95703125 -196 l 1,3,-1
 -54.04296875 -196 l 1,0,-1
EndSplineSet
EndChar

StartChar: quotedblleft
Encoding: 8220 8220 572
Width: 922
VWidth: 2441
GlyphClass: 1
Flags: HW
LayerCount: 2
Fore
SplineSet
562.762695312 1558 m 1,0,-1
 630.833984375 1489 l 1,1,2
 557.856445312 1426 557.856445312 1426 504.373046875 1353.5 c 128,-1,3
 450.890625 1281 450.890625 1281 443.288085938 1233 c 0,4,5
 437.744140625 1198 437.744140625 1198 463.28515625 1173 c 128,-1,6
 488.825195312 1148 488.825195312 1148 512.311523438 1119.5 c 128,-1,7
 535.797851562 1091 535.797851562 1091 529.303710938 1050 c 0,8,9
 519.642578125 989 519.642578125 989 476.727539062 948.5 c 128,-1,10
 433.813476562 908 433.813476562 908 373.813476562 908 c 0,11,12
 315.813476562 908 315.813476562 908 277.866210938 962 c 128,-1,13
 239.918945312 1016 239.918945312 1016 253.856445312 1104 c 0,14,15
 283.6328125 1292 283.6328125 1292 562.762695312 1558 c 1,0,-1
1014.76269531 1558 m 1,16,-1
 1080.83398438 1489 l 1,17,18
 1007.85644531 1426 1007.85644531 1426 955.373046875 1353.5 c 128,-1,19
 902.890625 1281 902.890625 1281 895.288085938 1233 c 0,20,21
 889.744140625 1198 889.744140625 1198 914.78515625 1173 c 128,-1,22
 939.825195312 1148 939.825195312 1148 963.311523438 1119.5 c 128,-1,23
 986.797851562 1091 986.797851562 1091 980.303710938 1050 c 0,24,25
 970.642578125 989 970.642578125 989 927.227539062 948.5 c 128,-1,26
 883.813476562 908 883.813476562 908 825.813476562 908 c 128,-1,27
 767.813476562 908 767.813476562 908 729.866210938 962 c 128,-1,28
 691.918945312 1016 691.918945312 1016 705.856445312 1104 c 0,29,30
 735.6328125 1292 735.6328125 1292 1014.76269531 1558 c 1,16,-1
EndSplineSet
EndChar

StartChar: quoteleft
Encoding: 8216 8216 574
Width: 922
VWidth: 2441
GlyphClass: 1
Flags: HW
LayerCount: 2
Fore
SplineSet
781.762695312 1558 m 1,0,-1
 849.833984375 1489 l 1,1,2
 776.856445312 1426 776.856445312 1426 723.373046875 1353.5 c 128,-1,3
 669.890625 1281 669.890625 1281 662.288085938 1233 c 0,4,5
 656.744140625 1198 656.744140625 1198 682.28515625 1173 c 128,-1,6
 707.825195312 1148 707.825195312 1148 731.311523438 1119.5 c 128,-1,7
 754.797851562 1091 754.797851562 1091 748.303710938 1050 c 0,8,9
 738.642578125 989 738.642578125 989 695.727539062 948.5 c 128,-1,10
 652.813476562 908 652.813476562 908 594.813476562 908 c 128,-1,11
 536.813476562 908 536.813476562 908 498.366210938 962 c 128,-1,12
 459.915039062 1016.00488281 459.915039062 1016.00488281 474.102539062 1105.58105469 c 0,0,0
 503.805664062 1293.1171875 503.805664062 1293.1171875 781.762695312 1558 c 1,0,-1
EndSplineSet
EndChar

StartChar: quoteright
Encoding: 8217 8217 575
Width: 922
VWidth: 2441
GlyphClass: 1
Flags: HW
LayerCount: 2
Fore
SplineSet
486.813476562 908 m 1,0,-1
 422.05859375 979 l 1,1,2
 493.036132812 1042 493.036132812 1042 545.782226562 1113 c 128,-1,3
 598.52734375 1184 598.52734375 1184 606.288085938 1233 c 0,4,5
 611.831054688 1268 611.831054688 1268 587.791015625 1293 c 128,-1,6
 563.750976562 1318 563.750976562 1318 539.185546875 1346 c 128,-1,7
 514.620117188 1374 514.620117188 1374 521.747070312 1419 c 0,8,9
 530.93359375 1477 530.93359375 1477 573.848632812 1517.5 c 128,-1,10
 616.762695312 1558 616.762695312 1558 674.762695312 1558 c 128,-1,11
 732.762695312 1558 732.762695312 1558 771.2890625 1504.5 c 128,-1,12
 809.815429688 1451 809.815429688 1451 796.194335938 1365 c 0,13,14
 765.943359375 1174 765.943359375 1174 486.813476562 908 c 1,0,-1
EndSplineSet
EndChar

StartChar: guillemotleft
Encoding: 171 171 576
Width: 922
VWidth: 2441
GlyphClass: 1
Flags: HW
LayerCount: 2
Fore
SplineSet
817.599609375 149 m 1,0,-1
 539.853515625 561 l 1,1,-1
 548.723632812 617 l 1,2,-1
 936.583007812 976 l 1,3,-1
 1011.74511719 876 l 1,4,-1
 700.288085938 589 l 1,5,-1
 926.12109375 247 l 1,6,-1
 817.599609375 149 l 1,0,-1
423.599609375 149 m 1,7,-1
 138.853515625 561 l 1,8,-1
 147.723632812 617 l 1,9,-1
 538.583007812 976 l 1,10,-1
 613.745117188 876 l 1,11,-1
 302.288085938 589 l 1,12,-1
 532.12109375 247 l 1,13,-1
 423.599609375 149 l 1,7,-1
EndSplineSet
EndChar

StartChar: guilsinglleft
Encoding: 8249 8249 578
Width: 922
VWidth: 2441
GlyphClass: 1
Flags: HW
LayerCount: 2
Fore
SplineSet
595.599609375 149 m 1,0,-1
 313.853515625 561 l 1,1,-1
 322.723632812 617 l 1,2,-1
 712.583007812 976 l 1,3,-1
 787.745117188 876 l 1,4,-1
 475.288085938 589 l 1,5,-1
 704.12109375 247 l 1,6,-1
 595.599609375 149 l 1,0,-1
EndSplineSet
EndChar

StartChar: guilsinglright
Encoding: 8250 8250 579
Width: 922
VWidth: 2441
GlyphClass: 1
Flags: HW
LayerCount: 2
Fore
SplineSet
337.599609375 149 m 1,0,-1
 260.12109375 247 l 1,1,-1
 595.288085938 589 l 1,2,-1
 373.745117188 876 l 1,3,-1
 480.583007812 976 l 1,4,-1
 758.723632812 617 l 1,5,-1
 749.853515625 561 l 1,6,-1
 337.599609375 149 l 1,0,-1
EndSplineSet
EndChar

StartChar: quotedbl
Encoding: 34 34 580
Width: 922
VWidth: 2441
GlyphClass: 1
Flags: HW
LayerCount: 2
Fore
SplineSet
454.216796875 1624 m 1,0,-1
 634.216796875 1624 l 1,1,2
 610.93359375 1477 610.93359375 1477 593.99609375 1389 c 0,3,4
 578.05859375 1301 578.05859375 1301 563.5546875 1241 c 0,5,6
 549.051757812 1181 549.051757812 1181 533.499023438 1127 c 0,7,8
 517.788085938 1072 517.788085938 1072 498.434570312 994 c 1,9,-1
 390.434570312 994 l 1,10,11
 395.946289062 1073 395.946289062 1073 396.499023438 1127 c 0,12,13
 398.209960938 1182 398.209960938 1182 402.396484375 1240 c 0,14,15
 406.583007812 1298 406.583007812 1298 418.837890625 1388 c 0,16,17
 430.93359375 1477 430.93359375 1477 454.216796875 1624 c 1,0,-1
790.216796875 1624 m 1,18,-1
 971.216796875 1624 l 1,19,20
 947.93359375 1477 947.93359375 1477 931.99609375 1389 c 0,21,22
 916.05859375 1301 916.05859375 1301 901.5546875 1241 c 0,23,24
 887.051757812 1181 887.051757812 1181 870.499023438 1127 c 0,25,26
 854.788085938 1072 854.788085938 1072 834.434570312 994 c 1,27,-1
 727.434570312 994 l 1,28,29
 732.946289062 1073 732.946289062 1073 734.499023438 1127 c 0,30,31
 736.209960938 1182 736.209960938 1182 740.396484375 1240 c 0,32,33
 744.583007812 1298 744.583007812 1298 754.837890625 1388 c 0,34,35
 766.93359375 1477 766.93359375 1477 790.216796875 1624 c 1,18,-1
EndSplineSet
Substitution2: "'ss03' Style Set 3 in Latin lookup 37 subtable" quotedbl.ss03
Substitution2: "'aalt' Access All Alternates in Latin lookup 0 subtable" quotedbl.ss03
EndChar

